<svg width="147" height="32" viewBox="0 0 147 32" fill="none" xmlns="http://www.w3.org/2000/svg">
<path d="M20.8406 3.58207C20.7605 3.16335 20.3741 2.87635 19.95 2.91869C17.8579 3.1304 14.1355 3.78908 12.4109 4.08548C10.9172 4.34424 8.10414 4.88527 6.06386 5.33692C6.02616 5.33692 5.99319 5.34632 5.96021 5.35573C5.92251 5.36514 5.88482 5.37455 5.84241 5.38396C5.38064 5.48746 4.96126 5.58158 4.61728 5.67097C3.91049 5.83093 3.19899 6.00498 2.50634 6.29668C2.28016 6.39077 2.12466 6.58366 2.08697 6.8236C1.93618 7.79748 1.72416 9.53354 1.60636 10.5451C1.5404 11.0908 2.0964 11.5001 2.59586 11.279C2.83146 11.1755 3.10476 11.0673 3.3969 10.9638C2.24719 17.6069 1.22941 24.4381 0.0137198 31.02C-0.0946553 31.6175 0.456645 32.1303 1.04564 31.9704C1.64877 31.8057 2.32256 31.6269 3.17071 31.4246C4.91885 31.0059 6.87904 30.5872 8.13713 30.319C8.46697 30.2484 8.72143 29.9756 8.76383 29.6415C8.91462 28.5312 9.0701 27.3691 9.22088 26.2588C9.268 25.9154 9.52715 25.6378 9.86642 25.5672C11.525 25.2238 13.3203 24.8804 15.0213 24.631C15.4736 24.5651 15.8883 24.8804 15.9496 25.332C16.0721 26.2306 16.1899 27.1528 16.3124 28.0514C16.3689 28.4889 16.7694 28.7947 17.2029 28.7429C18.4186 28.5971 20.1291 28.376 21.4861 28.2442C22.4474 28.1454 23.6819 28.009 24.695 27.9008C25.1615 27.849 25.4913 27.4115 25.4018 26.9504C23.9222 19.1876 22.3154 11.3119 20.8406 3.58678V3.58207ZM14.6679 19.2112C13.3627 19.4088 12.0198 19.6675 10.7146 19.9074C10.4271 19.9592 10.168 19.7193 10.2057 19.4276C10.5073 17.047 10.8748 14.6099 11.1669 12.2387C11.2612 11.5048 11.8737 10.865 12.5946 10.7568C13.3061 10.6439 13.9187 11.0861 14.0177 11.7777C14.3569 14.1018 14.6962 16.3977 15.0355 18.7219C15.0684 18.9571 14.9082 19.1782 14.6679 19.2112Z" fill="#F4F5F7"/>
<path d="M49.0263 0.316939C47.8577 0.232254 46.5384 0.166391 45.4735 0.114639C43.6688 0.0252492 41.7369 -0.0171129 40.4741 0.00641072C40.0736 0.0158202 39.7343 0.302823 39.673 0.69802C39.0841 4.34889 38.4903 8.08444 37.8966 11.7306C37.8024 12.3093 37.3076 12.728 36.7186 12.728C36.1391 12.728 35.649 12.3281 35.5454 11.7635C34.881 8.12676 34.1836 4.3818 33.5145 0.740347C33.4391 0.33574 33.081 0.0487555 32.6711 0.0675744C31.2811 0.119326 29.1324 0.222822 27.0403 0.382783C25.9612 0.462763 24.8963 0.547462 23.9916 0.632147C23.4168 0.683899 23.0728 1.29552 23.3273 1.81304C26.0414 7.37873 28.7554 13.0997 31.4742 18.7924C31.5261 18.9053 31.5544 19.0276 31.5544 19.1499C31.5544 21.0318 31.5544 24.3675 31.5544 26.5317C31.5544 26.9974 31.9407 27.3691 32.4072 27.3503C33.5475 27.3079 34.9941 27.2515 36.3417 27.2468C37.9438 27.2327 39.6071 27.2421 40.8039 27.2562C41.261 27.2609 41.6332 26.8939 41.6332 26.4376V19.0935C41.6332 18.9712 41.6615 18.8535 41.7086 18.7453C44.352 13.015 47.0661 7.11055 49.7095 1.4837C49.9545 0.956772 49.6012 0.349863 49.0216 0.30752L49.0263 0.316939Z" fill="#F4F5F7"/>
<path d="M76.8435 10.9308C76.721 9.91932 76.5137 8.18326 76.3629 7.20938C76.3252 6.96944 76.165 6.78126 75.9435 6.68246C75.3781 6.44252 74.7938 6.28257 74.2095 6.14143C73.4226 5.92501 72.2635 5.66625 70.553 5.28517C69.0829 4.96054 67.8342 4.69236 66.8824 4.50888C66.3641 4.41008 65.8788 4.80528 65.8788 5.33691C65.8788 10.3522 65.8788 15.358 65.8788 20.3732C65.8788 21.8035 64.7196 22.4574 63.2919 22.2222C61.8642 21.9869 60.7051 20.8907 60.7051 19.4605C60.7051 14.3465 60.7051 9.2983 60.7051 4.19367C60.7051 3.77495 60.3988 3.42209 59.9888 3.36092C59.0888 3.22449 57.8119 3.041 55.8611 2.82458C54.3863 2.66462 53.3497 2.55642 52.5722 2.48114C52.0775 2.4341 51.6534 2.8246 51.6534 3.3186C51.6534 8.55025 51.6534 13.7066 51.6534 18.9477C51.6534 18.9853 51.3895 22.5562 53.7455 25.3414C55.3617 27.2609 56.9025 28.1219 60.248 28.79C62.2411 29.204 64.1448 29.4957 65.8694 29.7685C65.9306 29.778 69.9264 30.5213 72.5179 28.5265C74.0305 27.355 74.7985 25.4167 74.7985 22.7397C74.7985 18.8724 74.7985 15.0757 74.7985 11.2555C75.1943 11.3919 75.5524 11.5236 75.8587 11.6601C76.3629 11.8812 76.9142 11.4719 76.8482 10.9261L76.8435 10.9308Z" fill="#F4F5F7"/>
<path d="M85.7626 11.9952C85.5312 11.8535 85.3491 11.6563 85.2226 11.3975C85.0961 11.1387 85.0312 10.8429 85.0312 10.5039C85.0312 10.165 85.0961 9.85688 85.2226 9.59806C85.3491 9.33616 85.5312 9.13279 85.7688 8.99106C86.0064 8.84932 86.2811 8.77539 86.5927 8.77539C86.818 8.77539 87.0309 8.81236 87.2346 8.88939C87.4383 8.96642 87.608 9.07426 87.7376 9.20983L87.5802 9.5272C87.4074 9.38546 87.2439 9.28378 87.0896 9.21908C86.9322 9.15438 86.7717 9.12356 86.6051 9.12356C86.2502 9.12356 85.9694 9.24681 85.7626 9.49022C85.5559 9.73364 85.454 10.0726 85.454 10.5039C85.454 10.9353 85.5558 11.2557 85.7595 11.493C85.9632 11.7302 86.2471 11.8504 86.6051 11.8504C86.7717 11.8504 86.9322 11.8196 87.0896 11.7549C87.2469 11.6902 87.4105 11.5916 87.5802 11.456L87.7376 11.7672C87.5956 11.9028 87.4228 12.0106 87.213 12.0907C87.0032 12.1708 86.7933 12.2109 86.5773 12.2109C86.2656 12.2109 85.994 12.14 85.7595 11.9983L85.7626 11.9952Z" fill="#F4F5F7"/>
<path d="M88.8471 11.9956C88.6156 11.8539 88.4398 11.6536 88.3132 11.3948C88.1867 11.136 88.125 10.834 88.125 10.492C88.125 10.15 88.1867 9.84804 88.3132 9.58614C88.4398 9.32732 88.6156 9.12704 88.8471 8.98531C89.0785 8.84357 89.3439 8.77271 89.6464 8.77271C89.9488 8.77271 90.208 8.84357 90.4363 8.98531C90.6647 9.12704 90.8406 9.32732 90.9671 9.58614C91.0936 9.84496 91.1553 10.1469 91.1553 10.492C91.1553 10.8371 91.0936 11.136 90.9671 11.3948C90.8406 11.6536 90.6647 11.8539 90.4363 11.9956C90.208 12.1373 89.9457 12.2082 89.6464 12.2082C89.347 12.2082 89.0754 12.1373 88.8471 11.9956ZM90.4549 11.4964C90.6462 11.2623 90.7418 10.9264 90.7418 10.4889C90.7418 10.0514 90.6462 9.7217 90.4518 9.48137C90.2574 9.24104 89.992 9.12088 89.6495 9.12088C89.3069 9.12088 89.0323 9.24104 88.8379 9.48137C88.6435 9.7217 88.5478 10.0576 88.5478 10.4889C88.5478 10.9203 88.6434 11.2654 88.8317 11.4995C89.0199 11.7337 89.2915 11.8508 89.6433 11.8508C89.9951 11.8508 90.2666 11.7337 90.458 11.4964L90.4549 11.4964Z" fill="#F4F5F7"/>
<path d="M94.6406 10.0529L94.6406 12.1574L94.2395 12.1574L94.2395 10.0776C94.2395 9.74788 94.1716 9.50447 94.0389 9.35041C93.9062 9.19635 93.6963 9.11932 93.4093 9.11932C93.0791 9.11932 92.8138 9.221 92.6132 9.42127C92.4126 9.62463 92.3108 9.89578 92.3108 10.2409L92.3108 12.1543L91.9158 12.1543L91.9158 9.76636C91.9158 9.42435 91.8972 9.11624 91.8633 8.84818L92.2459 8.84818L92.2984 9.45516C92.4002 9.23024 92.5514 9.06078 92.752 8.9437C92.9526 8.82661 93.1871 8.76807 93.4494 8.76807C94.2456 8.76807 94.6406 9.19328 94.6406 10.0468L94.6406 10.0529Z" fill="#F4F5F7"/>
<path d="M97.3446 10.4577L97.3446 10.4762C97.3446 10.9199 97.4465 11.2619 97.6501 11.496C97.8538 11.7302 98.1532 11.8504 98.542 11.8504C98.9308 11.8504 99.298 11.7148 99.6282 11.4406L99.7856 11.758C99.6406 11.8935 99.4554 12.0045 99.2332 12.0846C99.011 12.1647 98.7796 12.2078 98.542 12.2078C98.0421 12.2078 97.6471 12.0568 97.357 11.7518C97.0669 11.4498 96.9219 11.0308 96.9219 10.4978C96.9219 10.1588 96.9867 9.85996 97.1163 9.59806C97.2459 9.33616 97.428 9.13279 97.6594 8.99106C97.8909 8.84932 98.1593 8.77539 98.4617 8.77539C98.8969 8.77539 99.2363 8.91712 99.4801 9.19751C99.7239 9.4779 99.8442 9.8692 99.8442 10.3714L99.8442 10.4577L97.3416 10.4577L97.3446 10.4577ZM97.7273 9.37929C97.5391 9.56108 97.4187 9.81681 97.3724 10.1496L99.4677 10.1496C99.44 9.81065 99.3412 9.55185 99.1715 9.37314C99.0018 9.19443 98.7642 9.10508 98.4679 9.10508C98.1717 9.10508 97.9186 9.1975 97.7304 9.37929L97.7273 9.37929Z" fill="#F4F5F7"/>
<path d="M100.578 12.1582L100.578 7.30225L100.973 7.30225L100.973 12.1582L100.578 12.1582Z" fill="#F4F5F7"/>
<path d="M105.211 8.80043L105.193 9.16402C105.109 9.14553 105.008 9.13628 104.89 9.13628C104.557 9.13628 104.307 9.24411 104.144 9.45672C103.98 9.66932 103.897 9.92506 103.897 10.2178L103.897 12.1589L103.502 12.1589L103.502 9.771C103.502 9.42899 103.483 9.12088 103.449 8.85282L103.832 8.85282L103.884 9.46597C103.968 9.24104 104.103 9.07158 104.289 8.95142C104.474 8.83125 104.687 8.77271 104.924 8.77271C105.035 8.77271 105.131 8.78194 105.214 8.80043L105.211 8.80043Z" fill="#F4F5F7"/>
<path d="M105.809 10.4577L105.809 10.4762C105.809 10.9199 105.911 11.2619 106.115 11.496C106.319 11.7302 106.618 11.8504 107.007 11.8504C107.396 11.8504 107.763 11.7148 108.093 11.4406L108.25 11.758C108.105 11.8935 107.92 12.0045 107.698 12.0846C107.476 12.1647 107.244 12.2078 107.007 12.2078C106.507 12.2078 106.112 12.0568 105.822 11.7518C105.532 11.4498 105.387 11.0308 105.387 10.4978C105.387 10.1588 105.452 9.85996 105.581 9.59806C105.711 9.33616 105.893 9.13279 106.124 8.99106C106.356 8.84932 106.624 8.77539 106.927 8.77539C107.362 8.77539 107.701 8.91712 107.945 9.19751C108.189 9.4779 108.309 9.8692 108.309 10.3714L108.309 10.4577L105.806 10.4577L105.809 10.4577ZM106.192 9.37929C106.004 9.56108 105.884 9.81681 105.837 10.1496L107.933 10.1496C107.905 9.81065 107.806 9.55185 107.636 9.37314C107.467 9.19443 107.229 9.10508 106.933 9.10508C106.637 9.10508 106.383 9.1975 106.195 9.37929L106.192 9.37929Z" fill="#F4F5F7"/>
<path d="M108.848 11.7645L108.993 11.4533C109.169 11.5981 109.344 11.7029 109.523 11.7645C109.702 11.8261 109.906 11.857 110.141 11.857C110.412 11.857 110.619 11.8107 110.764 11.7152C110.906 11.6197 110.977 11.4841 110.977 11.3023C110.977 11.1544 110.931 11.0343 110.835 10.948C110.739 10.8617 110.585 10.794 110.372 10.7416L109.814 10.6152C109.551 10.5536 109.341 10.4427 109.19 10.2856C109.039 10.1284 108.962 9.94354 108.962 9.73094C108.962 9.44131 109.073 9.21022 109.295 9.0346C109.517 8.86205 109.814 8.77271 110.181 8.77271C110.412 8.77271 110.631 8.80967 110.829 8.88362C111.029 8.95757 111.193 9.06541 111.326 9.20714L111.174 9.51834C110.872 9.25336 110.539 9.12396 110.181 9.12396C109.925 9.12396 109.727 9.17326 109.588 9.27494C109.446 9.37662 109.378 9.51527 109.378 9.69706C109.378 9.84803 109.425 9.9682 109.514 10.0606C109.604 10.1531 109.743 10.2208 109.934 10.264L110.502 10.4026C111.094 10.5351 111.39 10.8278 111.39 11.2808C111.39 11.5581 111.276 11.7799 111.048 11.9494C110.82 12.1189 110.511 12.2051 110.125 12.2051C109.588 12.2051 109.166 12.0572 108.854 11.7614L108.848 11.7645Z" fill="#F4F5F7"/>
<path d="M114.474 8.98839C114.696 9.13012 114.869 9.33347 114.992 9.59537C115.116 9.85727 115.178 10.1592 115.178 10.5012C115.178 10.8432 115.116 11.1452 114.996 11.3979C114.875 11.6536 114.702 11.8508 114.477 11.9925C114.252 12.1343 113.996 12.2051 113.706 12.2051C113.416 12.2051 113.193 12.1435 112.999 12.0233C112.805 11.9032 112.656 11.7275 112.561 11.4995L112.561 13.5855L112.166 13.5855L112.166 9.771C112.166 9.42899 112.147 9.12088 112.113 8.85282L112.496 8.85282L112.548 9.49986C112.644 9.26569 112.792 9.08698 112.993 8.96065C113.193 8.83432 113.431 8.77271 113.709 8.77271C113.986 8.77271 114.255 8.84358 114.477 8.98839L114.474 8.98839ZM114.465 11.4964C114.659 11.2623 114.755 10.9295 114.755 10.5043C114.755 10.0791 114.659 9.73712 114.465 9.49062C114.27 9.24721 114.005 9.12396 113.662 9.12396C113.32 9.12396 113.042 9.24412 112.851 9.48137C112.663 9.71862 112.567 10.0545 112.567 10.492C112.567 10.9295 112.663 11.2561 112.851 11.4964C113.039 11.7337 113.308 11.8539 113.653 11.8539C113.999 11.8539 114.27 11.7368 114.465 11.4995L114.465 11.4964Z" fill="#F4F5F7"/>
<path d="M118.727 8.85282L118.727 12.1589L118.326 12.1589L118.326 11.5242C118.23 11.7429 118.082 11.9124 117.887 12.0295C117.693 12.1466 117.458 12.2051 117.187 12.2051C116.894 12.2051 116.634 12.1373 116.412 11.9956C116.19 11.8569 116.02 11.6597 115.897 11.4009C115.773 11.1421 115.715 10.8432 115.715 10.5012C115.715 10.1592 115.777 9.85419 115.9 9.59537C116.023 9.33347 116.196 9.13012 116.418 8.98839C116.641 8.84666 116.897 8.77271 117.187 8.77271C117.455 8.77271 117.687 8.83125 117.881 8.94525C118.076 9.05925 118.224 9.22564 118.326 9.44748L118.326 8.85282L118.727 8.85282ZM118.042 11.4934C118.23 11.2561 118.326 10.9203 118.326 10.4889C118.326 10.0576 118.23 9.71554 118.042 9.47829C117.853 9.24104 117.585 9.12088 117.239 9.12088C116.894 9.12088 116.622 9.24413 116.428 9.48754C116.233 9.73095 116.138 10.0699 116.138 10.5012C116.138 10.9326 116.233 11.2592 116.428 11.4934C116.622 11.7276 116.894 11.8477 117.245 11.8477C117.597 11.8477 117.853 11.7275 118.042 11.4903L118.042 11.4934Z" fill="#F4F5F7"/>
<path d="M119.691 12.1582L119.691 7.30225L120.086 7.30225L120.086 12.1582L119.691 12.1582Z" fill="#F4F5F7"/>
<path d="M123.86 7.30225L123.86 12.1582L123.458 12.1582L123.458 11.5234C123.363 11.7422 123.215 11.9117 123.02 12.0288C122.826 12.1458 122.591 12.2044 122.32 12.2044C122.03 12.2044 121.773 12.1335 121.551 11.9887C121.329 11.847 121.156 11.6436 121.033 11.3817C120.909 11.1198 120.848 10.8179 120.848 10.4758C120.848 10.1338 120.909 9.83189 121.03 9.57615C121.15 9.31733 121.323 9.12014 121.545 8.98149C121.767 8.84283 122.023 8.77505 122.32 8.77505C122.588 8.77505 122.82 8.83359 123.014 8.9476C123.208 9.0616 123.356 9.22799 123.458 9.44983L123.458 7.30533L123.86 7.30533L123.86 7.30225ZM123.174 11.4926C123.363 11.2554 123.458 10.9195 123.458 10.4882C123.458 10.0568 123.363 9.72096 123.174 9.48063C122.986 9.2403 122.721 9.12014 122.378 9.12014C122.036 9.12014 121.755 9.2403 121.56 9.47755C121.366 9.7148 121.27 10.0476 121.27 10.4728C121.27 10.898 121.366 11.24 121.56 11.4834C121.755 11.7268 122.023 11.847 122.372 11.847C122.721 11.847 122.986 11.7268 123.174 11.4896L123.174 11.4926Z" fill="#F4F5F7"/>
<path d="M125.332 11.9956C125.1 11.8539 124.924 11.6536 124.798 11.3948C124.671 11.136 124.609 10.834 124.609 10.492C124.609 10.15 124.671 9.84804 124.798 9.58614C124.924 9.32732 125.1 9.12704 125.332 8.98531C125.563 8.84357 125.828 8.77271 126.131 8.77271C126.433 8.77271 126.692 8.84357 126.921 8.98531C127.149 9.12704 127.325 9.32732 127.452 9.58614C127.578 9.84496 127.64 10.1469 127.64 10.492C127.64 10.8371 127.578 11.136 127.452 11.3948C127.325 11.6536 127.149 11.8539 126.921 11.9956C126.692 12.1373 126.43 12.2082 126.131 12.2082C125.831 12.2082 125.56 12.1373 125.332 11.9956ZM126.939 11.4964C127.131 11.2623 127.226 10.9264 127.226 10.4889C127.226 10.0514 127.131 9.7217 126.936 9.48137C126.742 9.24104 126.476 9.12088 126.134 9.12088C125.791 9.12088 125.517 9.24104 125.322 9.48137C125.128 9.7217 125.032 10.0576 125.032 10.4889C125.032 10.9203 125.128 11.2654 125.316 11.4995C125.504 11.7337 125.776 11.8508 126.128 11.8508C126.479 11.8508 126.751 11.7337 126.942 11.4964L126.939 11.4964Z" fill="#F4F5F7"/>
<path d="M133.121 7.25391L133.121 12.1098L132.72 12.1098L132.72 11.4751C132.624 11.6939 132.476 11.8633 132.282 11.9804C132.087 12.0975 131.853 12.156 131.581 12.156C131.291 12.156 131.035 12.0852 130.813 11.9404C130.591 11.7986 130.418 11.5953 130.295 11.3334C130.171 11.0715 130.109 10.7695 130.109 10.4275C130.109 10.0855 130.171 9.78355 130.291 9.52781C130.412 9.26899 130.585 9.07178 130.807 8.93313C131.029 8.79448 131.285 8.72669 131.581 8.72669C131.85 8.72669 132.081 8.78524 132.276 8.89924C132.47 9.01324 132.618 9.17963 132.72 9.40147L132.72 7.25697L133.121 7.25697L133.121 7.25391ZM132.436 11.4443C132.624 11.207 132.72 10.8712 132.72 10.4398C132.72 10.0085 132.624 9.67263 132.436 9.43229C132.248 9.19196 131.983 9.07178 131.64 9.07178C131.297 9.07178 131.017 9.19196 130.822 9.42921C130.628 9.66646 130.532 9.99922 130.532 10.4244C130.532 10.8496 130.628 11.1916 130.822 11.4351C131.017 11.6785 131.285 11.7986 131.634 11.7986C131.983 11.7986 132.248 11.6785 132.436 11.4412L132.436 11.4443Z" fill="#F4F5F7"/>
<path d="M134.294 10.4062L134.294 10.4247C134.294 10.8684 134.396 11.2104 134.599 11.4446C134.803 11.6787 135.102 11.7989 135.491 11.7989C135.88 11.7989 136.247 11.6633 136.577 11.3891L136.735 11.7064C136.59 11.842 136.405 11.9529 136.182 12.033C135.96 12.1132 135.729 12.1563 135.491 12.1563C134.991 12.1563 134.596 12.0053 134.306 11.7003C134.016 11.3983 133.871 10.9793 133.871 10.4463C133.871 10.1073 133.936 9.80846 134.066 9.54656C134.195 9.28466 134.377 9.0813 134.609 8.93956C134.84 8.79783 135.109 8.72388 135.411 8.72388C135.846 8.72388 136.185 8.86561 136.429 9.146C136.673 9.42638 136.793 9.81769 136.793 10.3199L136.793 10.4062L134.291 10.4062L134.294 10.4062ZM134.677 9.32779C134.488 9.50958 134.368 9.76532 134.322 10.0981L136.417 10.0981C136.389 9.75916 136.29 9.50033 136.121 9.32162C135.951 9.14292 135.713 9.05356 135.417 9.05356C135.121 9.05356 134.868 9.146 134.68 9.32779L134.677 9.32779Z" fill="#F4F5F7"/>
<path fill-rule="evenodd" clip-rule="evenodd" d="M139.121 11.5242L147.001 11.5242L147.001 16.7643L144.369 16.7643L144.369 19.3772L139.121 19.3772L139.121 11.5242Z" fill="#F4F5F7"/>
<path fill-rule="evenodd" clip-rule="evenodd" d="M133.84 16.695C135.405 16.695 136.676 17.9207 136.676 19.4362C136.676 20.9517 135.405 22.1774 133.84 22.1774C132.274 22.1774 131.004 20.9517 131.004 19.4362C131.004 17.9207 132.274 16.695 133.84 16.695ZM109.835 18.3768L110.83 17.3696C110.83 17.3696 109.221 16.2722 107.894 16.9278C106.566 17.5834 106.438 19.1844 107.513 19.7307C108.584 20.2771 109.388 20.049 109.455 20.5099C109.516 20.9707 109.112 21.213 108.294 20.9564C107.475 20.6999 107.604 20.3816 107.604 20.3816L106.657 21.479C106.657 21.479 107.842 22.5479 109.721 22.0159C111.6 21.479 111.163 19.669 110.349 19.2129C109.531 18.7521 108.279 19.0989 108.332 18.334C108.384 17.5691 109.597 17.9017 109.84 18.3768L109.835 18.3768ZM122.192 16.8232L122.887 16.8232C124.081 16.8232 125.056 17.7972 125.056 18.9896L125.056 22.0396L123.762 22.0396L123.762 21.251C123.234 21.9779 122.501 22.1726 121.445 22.1156C120.26 22.0539 119.699 20.2676 120.779 19.3222C121.535 18.6618 122.944 18.6808 123.715 18.7568C123.562 18.2105 123.058 17.8067 122.463 17.8067C122.011 17.8067 121.616 18.0395 121.383 18.3863L120.56 17.5739C120.96 17.113 121.545 16.8232 122.202 16.8232L122.192 16.8232ZM123.691 19.783C123.691 19.783 121.688 19.6547 121.697 20.5336C121.711 21.5883 124.076 21.232 123.691 19.783ZM92.8535 16.8232L93.5483 16.8232C94.7425 16.8232 95.7179 17.7972 95.7179 18.9896L95.7179 22.0396L94.4237 22.0396L94.4237 21.251C93.8956 21.9779 93.1628 22.1726 92.1065 22.1156C90.9218 22.0539 90.3603 20.2676 91.4404 19.3222C92.1969 18.6618 93.6054 18.6808 94.3762 18.7568C94.2239 18.2105 93.7195 17.8067 93.1248 17.8067C92.6728 17.8067 92.2778 18.0395 92.0447 18.3863L91.2215 17.5739C91.6212 17.113 92.2064 16.8232 92.8631 16.8232L92.8535 16.8232ZM94.3524 19.783C94.3524 19.783 92.3492 19.6547 92.3587 20.5336C92.373 21.5883 94.7378 21.232 94.3524 19.783ZM103.245 16.8232L103.94 16.8232C105.134 16.8232 106.11 17.7972 106.11 18.9896L106.11 22.0396L104.815 22.0396L104.815 21.251C104.287 21.9779 103.555 22.1726 102.498 22.1156C101.313 22.0539 100.752 20.2676 101.832 19.3222C102.589 18.6618 103.997 18.6808 104.768 18.7568C104.616 18.2105 104.111 17.8067 103.516 17.8067C103.064 17.8067 102.67 18.0395 102.436 18.3863L101.613 17.5739C102.013 17.113 102.598 16.8232 103.255 16.8232L103.245 16.8232ZM104.744 19.783C104.744 19.783 102.741 19.6547 102.75 20.5336C102.765 21.5883 105.129 21.232 104.744 19.783ZM111.6 16.8517L113.075 16.8517L113.075 17.5026C113.409 17.056 113.941 16.7662 114.536 16.7662C115.298 16.7662 115.949 17.2366 116.221 17.9017C116.492 17.2366 117.148 16.7662 117.905 16.7662C118.904 16.7662 119.723 17.5834 119.723 18.581L119.723 21.6025C119.723 21.7403 119.708 21.8734 119.68 22.0064L118.129 22.0064L118.129 18.9231C118.129 18.4623 117.748 18.0822 117.286 18.0822C116.825 18.0822 116.444 18.4623 116.444 18.9231L116.444 22.0064L114.76 22.0064L114.76 18.9231C114.76 18.4623 114.379 18.0822 113.918 18.0822C113.461 18.0822 113.09 18.448 113.075 18.8993L113.075 22.0111L111.6 22.0111L111.6 16.8613L111.6 16.8517ZM125.247 16.8565C125.247 16.8565 127.007 20.8092 127.264 21.4315C127.521 22.0586 127.569 22.6572 127.007 23.1418C126.446 23.6264 125.627 23.1038 125.627 23.1038L125.399 24.3295C127.978 25.3984 128.796 23.0563 128.796 23.0563L131.147 16.8613L129.548 16.8613L128.349 20.2723C128.349 20.2723 127.369 17.9302 126.926 16.8613L125.247 16.8613L125.247 16.8565ZM85.0312 14.5571L85.0312 21.9779L86.6443 21.9779L86.6443 19.0466L88.9376 19.0466C90.0177 19.0466 90.9027 18.163 90.9027 17.0845L90.9027 16.5239C90.9027 15.4455 90.0177 14.5619 88.9376 14.5619L85.0312 14.5619L85.0312 14.5571ZM86.6538 15.8826L88.381 15.8826C88.8568 15.8826 89.2517 16.2437 89.2517 16.6855L89.2517 16.9135C89.2517 17.3553 88.8615 17.7164 88.381 17.7164L86.6538 17.7164L86.6538 15.8826ZM99.1057 16.6997C97.5403 16.6997 96.2699 17.9254 96.2699 19.4409C96.2699 20.9564 97.5403 22.1822 99.1057 22.1822C99.848 22.1822 100.524 21.9066 101.028 21.4553L100.024 20.4529C99.7814 20.6619 99.4578 20.7854 99.1057 20.7854C98.3349 20.7854 97.7116 20.1821 97.7116 19.4409C97.7116 18.6998 98.3349 18.0965 99.1057 18.0965C99.4626 18.0965 99.7861 18.2247 100.034 18.4385C100.362 18.106 100.728 17.7306 101.023 17.4218C100.519 16.9753 99.8432 16.6997 99.1057 16.6997ZM133.845 18.0965C133.074 18.0965 132.455 18.6998 132.455 19.4409C132.455 20.1821 133.079 20.7854 133.845 20.7854C134.611 20.7854 135.239 20.1821 135.239 19.4409C135.239 18.6998 134.615 18.0965 133.845 18.0965Z" fill="#F4F5F7"/>
</svg>
