<svg width="128" height="32" viewBox="0 0 128 32" fill="none" xmlns="http://www.w3.org/2000/svg">
<path d="M21.0424 0L5.25781 15.9088L21.0424 31.7925L31.5489 21.2034L26.2957 15.9088L31.5489 10.6142L21.0424 0Z" fill="#F4F5F7"/>
<path d="M10.5099 0.00845131L0 10.6011L4.10187 14.7352L14.6118 4.14259L10.5099 0.00845131Z" fill="#F4F5F7"/>
<path d="M4.10578 17.0687L0.00390625 21.2029L10.5138 31.7955L14.6157 27.6614L4.10578 17.0687Z" fill="#F4F5F7"/>
<path d="M60.5781 3.9646H63.1425L67.0264 8.73222V3.9646H70.1385V14.5537H67.5742L63.6902 9.56028V14.5537H60.5781V3.9646Z" fill="#F4F5F7"/>
<path d="M78.1083 4.51673C78.8552 5.04368 79.3033 5.82155 79.4527 6.82526L76.4402 7.50277C76.2908 6.72489 75.8676 6.32341 75.2202 6.32341C74.9962 6.32341 74.8219 6.37359 74.6974 6.47396C74.5729 6.57433 74.4982 6.72489 74.4982 6.92563C74.4982 7.17656 74.6227 7.35221 74.8717 7.4024L76.714 7.92934C77.6601 8.20536 78.3572 8.58176 78.8303 9.1087C79.2784 9.61056 79.5274 10.2881 79.5274 11.1412C79.5274 11.7936 79.4029 12.3457 79.1291 12.8224C78.8801 13.2992 78.5315 13.6756 78.1083 13.9516C77.685 14.2276 77.2369 14.4284 76.7887 14.5538C76.3406 14.6793 75.8427 14.7546 75.3696 14.7546C74.1497 14.7546 73.1289 14.4535 72.3073 13.8261C71.4857 13.1988 71.0127 12.3959 70.8633 11.4172L74.0003 10.7648C74.1995 11.5929 74.6476 12.0195 75.3447 12.0195C75.8925 12.0195 76.1663 11.8187 76.1663 11.4172C76.1663 11.1663 76.0169 11.0158 75.7431 10.9154L73.826 10.3382C72.9297 10.0873 72.2575 9.71093 71.8343 9.20907C71.411 8.70722 71.1869 8.05481 71.1869 7.22675C71.1869 6.07248 71.5604 5.19423 72.3322 4.59201C73.104 3.96469 74.0501 3.66357 75.2202 3.66357C76.4153 3.73885 77.3614 3.98978 78.1083 4.51673Z" fill="#F4F5F7"/>
<path d="M86.1745 6.90045V14.5537H83.0624V6.90045H80.1992V3.9646H89.0376V6.90045H86.1745Z" fill="#F4F5F7"/>
<path d="M95.2859 14.5537L92.9705 11.4171H92.9207V14.5537H89.8086V3.9646H95.0867C96.1075 3.9646 96.9291 4.29081 97.5515 4.96831C98.1739 5.64581 98.4976 6.52406 98.4976 7.62814C98.4976 8.4562 98.3233 9.1588 97.9499 9.78612C97.5764 10.3883 97.0785 10.84 96.4063 11.116L98.9955 14.5537H95.2859ZM92.9207 8.78241H94.3398C94.6884 8.78241 94.9622 8.68204 95.1614 8.50639C95.3606 8.30565 95.4602 8.05472 95.4602 7.75361C95.4602 7.45249 95.3606 7.22666 95.1614 7.05101C94.9622 6.87536 94.6884 6.77499 94.3398 6.77499H92.9207V8.78241Z" fill="#F4F5F7"/>
<path d="M108.903 9.91158C108.903 11.4171 108.479 12.5965 107.608 13.4748C106.737 14.353 105.616 14.7796 104.197 14.7796C102.728 14.7796 101.558 14.353 100.687 13.4748C99.8153 12.5965 99.3672 11.4171 99.3672 9.91158V3.9646H102.703V9.91158C102.703 10.5138 102.828 10.9906 103.102 11.3168C103.376 11.643 103.749 11.7935 104.222 11.7935C104.645 11.7935 104.969 11.643 105.218 11.3168C105.467 10.9906 105.591 10.5138 105.591 9.91158V3.9646H108.928V9.91158H108.903Z" fill="#F4F5F7"/>
<path d="M116.224 11.367V14.5537H112.962V11.367L109.477 3.9646H112.863L114.68 7.90416L116.448 3.9646H119.834L116.224 11.367Z" fill="#F4F5F7"/>
<path d="M128 14.5537H120.332V3.9646H127.95V6.82517H123.444V8.00453H127.552V9.30935V10.5138H123.444V11.6932H128V14.5537Z" fill="#F4F5F7"/>
<path d="M44.5696 10.2629C44.4451 10.6393 44.2708 10.9655 44.0219 11.2666C43.5488 11.7935 43.0011 12.0696 42.304 12.0696C41.6318 12.0696 41.0591 11.7935 40.5861 11.2666C40.1131 10.7397 39.889 10.0872 39.889 9.30937C39.889 8.53149 40.1131 7.87908 40.5861 7.35213C41.0591 6.82518 41.6069 6.54916 42.304 6.54916C42.9762 6.54916 43.5488 6.82518 44.0219 7.35213C44.2708 7.65324 44.47 7.97945 44.5696 8.35584L47.607 8.10491C47.4078 7.00083 46.9099 6.02221 46.1381 5.19415C45.0924 4.09007 43.7978 3.51294 42.2791 3.51294C40.7604 3.51294 39.4657 4.06498 38.4201 5.19415C37.3744 6.29823 36.8516 7.67834 36.8516 9.28427C36.8516 10.8902 37.3744 12.2703 38.4201 13.3744C39.4657 14.4785 40.7604 15.0556 42.2791 15.0556C43.7978 15.0556 45.0924 14.5036 46.1381 13.3744C46.9099 12.5463 47.4078 11.5677 47.607 10.4636L44.5696 10.2629Z" fill="#F4F5F7"/>
<path d="M58.0413 5.2193C56.9458 4.11522 55.5765 3.53809 53.9582 3.53809C52.3399 3.53809 50.9955 4.09013 49.8751 5.2193C48.7797 6.32338 48.207 7.70348 48.207 9.30942C48.207 10.9154 48.7548 12.2955 49.8751 13.3995C50.9706 14.5036 52.3399 15.0808 53.9582 15.0808C55.5765 15.0808 56.9209 14.5287 58.0413 13.3995C59.1368 12.2955 59.7094 10.9154 59.7094 9.30942C59.6845 7.70348 59.1368 6.32338 58.0413 5.2193ZM55.7757 11.1412C55.2778 11.643 54.6802 11.894 53.9582 11.894C53.2362 11.894 52.6387 11.643 52.1407 11.1412C51.6428 10.6393 51.3938 10.0371 51.3938 9.33451C51.3938 8.60682 51.6428 8.0046 52.1407 7.52783C52.6387 7.02598 53.2362 6.77505 53.9582 6.77505C54.6802 6.77505 55.2778 7.02598 55.7757 7.52783C56.2736 8.02969 56.5226 8.63191 56.5226 9.33451C56.4977 10.0371 56.2736 10.6393 55.7757 11.1412Z" fill="#F4F5F7"/>
<path d="M63.9412 17.2388C64.9869 17.2388 65.8583 17.6152 66.5056 18.3429C67.1529 19.0705 67.4766 20.0492 67.4766 21.2285C67.4766 22.4832 67.128 23.4618 66.4309 24.2397C65.7338 24.9924 64.7877 25.3688 63.6424 25.3688H61.825V28.2796H58.6133V17.2388H63.9412ZM63.1196 22.6337C63.4433 22.6337 63.742 22.5082 63.9661 22.2824C64.2151 22.0566 64.3147 21.7304 64.3147 21.3791C64.3147 21.0278 64.1902 20.7518 63.9661 20.5259C63.7171 20.3001 63.4433 20.1997 63.1196 20.1997H61.825V22.6588H63.1196V22.6337Z" fill="#F4F5F7"/>
<path d="M76.0408 28.2294H68.1484V17.2388H75.991V20.2248H71.3601V21.4293H75.1196V24.064H71.3601V25.2685H76.0408V28.2294Z" fill="#F4F5F7"/>
<path d="M45.5408 28.2294H37.6484V17.2388H45.4661V20.2248H40.8352V21.4293H44.5947V24.064H40.8352V25.2685H45.5408V28.2294Z" fill="#F4F5F7"/>
<path d="M82.761 28.3047L80.3709 25.0427H80.3211V28.3047H77.1094V17.2639H82.5618C83.6075 17.2639 84.4789 17.6152 85.1262 18.3178C85.7735 19.0204 86.0972 19.9488 86.0972 21.078C86.0972 21.9312 85.898 22.6839 85.5245 23.3113C85.1511 23.9386 84.6282 24.4153 83.9311 24.6914L86.62 28.2796H82.761V28.3047ZM80.3211 22.2825H81.7651C82.1137 22.2825 82.4124 22.1821 82.6116 21.9814C82.8108 21.7806 82.9352 21.5297 82.9352 21.1784C82.9352 20.8773 82.8357 20.6263 82.6116 20.4256C82.4124 20.25 82.1137 20.1496 81.7651 20.1496H80.3211V22.2825Z" fill="#F4F5F7"/>
<path d="M92.797 20.3001V28.3047H89.5853V20.3001H86.5977V17.2388H95.7597V20.3001H92.797Z" fill="#F4F5F7"/>
<path d="M105.494 18.669C104.399 17.5649 103.03 16.9878 101.411 16.9878C99.793 16.9878 98.4486 17.5398 97.3283 18.669C96.2328 19.7731 95.6602 21.1532 95.6602 22.7591C95.6602 24.3651 96.2079 25.7452 97.3283 26.8492C98.4237 27.9533 99.793 28.5305 101.411 28.5305C103.03 28.5305 104.374 27.9784 105.494 26.8492C106.59 25.7452 107.163 24.3651 107.163 22.7591C107.163 21.1532 106.615 19.7982 105.494 18.669ZM103.229 24.5909C102.731 25.0928 102.133 25.3437 101.411 25.3437C100.689 25.3437 100.092 25.0928 99.5939 24.5909C99.0959 24.089 98.847 23.4868 98.847 22.7842C98.847 22.0565 99.0959 21.4543 99.5939 20.9775C100.092 20.4757 100.689 20.2248 101.411 20.2248C102.133 20.2248 102.731 20.4757 103.229 20.9775C103.727 21.4794 103.976 22.0816 103.976 22.7842C103.976 23.4868 103.727 24.089 103.229 24.5909Z" fill="#F4F5F7"/>
<path d="M58.0662 17.2388H53.5101L52.091 19.6979L50.6968 17.2388H46.1406L49.7507 22.7341L46.1406 28.2294H50.6968L52.091 25.7703L53.5101 28.2294H58.0662L54.4562 22.7341L58.0662 17.2388Z" fill="#F4F5F7"/>
</svg>
