<svg width="154" height="32" viewBox="0 0 154 32" fill="none" xmlns="http://www.w3.org/2000/svg">
<path d="M0 32H32.1921V0H0V32ZM24.1008 6.20215H13.8158L7.10043 2.75699H27.4974L24.1008 6.20215ZM23.296 17.3419H14.8672V8.96344H23.296V17.3419ZM12.0937 8.4215V18.1419L2.77787 27.3161V3.64301L12.0937 8.4215ZM14.0494 20.0989H23.8325L28.5359 29.243H4.75958L14.0494 20.0989ZM26.0739 18.3871V8.14624L29.4186 4.75699V24.8946L26.0739 18.3871Z" fill="#F4F5F7"/>
<path d="M48.5034 14.1758V11.0369H41.0646V0H37.0686V14.1758H48.5034Z" fill="#F4F5F7"/>
<path d="M67.0855 14.1758L61.3271 0H55.2614L49.503 14.1758H53.8064L55.3024 10.2471H61.2862L62.7821 14.1758H67.0855ZM57.8844 3.48321L58.0893 1.84286H58.4992L58.7041 3.48321L60.1181 7.18918H56.4704L57.8844 3.48321Z" fill="#F4F5F7"/>
<path d="M45.1016 32C49.8969 32 52.8888 29.7319 53.2781 26.3702H49.1386C48.7288 27.9093 47.3148 28.8611 45.1426 28.8611C42.9294 28.8611 41.1876 27.889 40.5523 26.1879C40.3679 25.6614 40.2654 25.0943 40.2654 24.4666C40.2654 23.8388 40.3679 23.2717 40.5523 22.7452C41.1671 21.0441 42.9294 20.072 45.2041 20.072C47.4788 20.072 48.9747 21.0238 49.3436 22.5427H53.483C53.1756 19.1 49.9583 16.9331 45.1836 16.9331C40.8392 16.9331 37.6629 18.7152 36.5563 21.7731C36.2489 22.5832 36.1055 23.4945 36.1055 24.4666C36.1055 25.4386 36.2489 26.3499 36.5563 27.16C37.6629 30.2179 40.8392 32 45.1016 32Z" fill="#F4F5F7"/>
<path d="M71.6883 31.5545L65.9299 17.3786H59.8642L54.1058 31.5545H58.4092L59.9052 27.6257H65.8889L67.3849 31.5545H71.6883ZM62.4872 20.8618L62.6921 19.2215H63.102L63.3069 20.8618L64.7209 24.5678H61.0732L62.4872 20.8618Z" fill="#F4F5F7"/>
<path d="M77.3184 31.5545V19.5455H77.7488L78.1176 23.3527L83.2407 31.5545H88.7532V17.3786H85.085V29.3876H84.6752L84.2653 25.5601L79.1832 17.3786H73.6708V31.5545H77.3184Z" fill="#F4F5F7"/>
<path d="M90.748 17.3786V20.5176H96.0555V31.5545H100.072V20.5176H105.38V17.3786H90.748Z" fill="#F4F5F7"/>
<path d="M118.888 31.5545V28.456H111.367V25.9449H118.683V22.968H111.367V20.4771H118.888V17.3786H107.371V31.5545H118.888Z" fill="#F4F5F7"/>
<path d="M135.407 31.5545L131.8 25.9854L130.694 25.6816V25.3981C132.661 25.2563 134.116 24.6083 134.772 23.4945C135.099 22.9275 135.284 22.3199 135.284 21.5099C135.284 20.7201 135.099 20.0315 134.751 19.4442C133.993 18.1279 132.415 17.3786 130.304 17.3786H121.8V31.5545H125.796V26.0866H127.169L130.653 31.5545H135.407ZM129.382 20.3353C130.161 20.3353 130.735 20.5783 131.042 21.0846C131.165 21.2871 131.226 21.5706 131.226 21.8541C131.226 22.1579 131.165 22.4212 131.021 22.6439C130.735 23.1502 130.161 23.4135 129.382 23.4135H125.796V20.3353H129.382Z" fill="#F4F5F7"/>
<path d="M153.998 31.5545L148.24 17.3786H142.174L136.416 31.5545H140.719L142.215 27.6257H148.199L149.695 31.5545H153.998ZM144.797 20.8618L145.002 19.2215H145.412L145.617 20.8618L147.031 24.5678H143.383L144.797 20.8618Z" fill="#F4F5F7"/>
</svg>
