<svg width="148" height="32" viewBox="0 0 148 32" fill="none" xmlns="http://www.w3.org/2000/svg">
<path d="M0 6.92505H7.41712C8.34426 6.92505 9.22217 7.01531 10.0509 7.18761C10.8795 7.36812 11.6016 7.67171 12.2169 8.09837C12.8323 8.53324 13.3246 9.1158 13.6856 9.84606C14.0466 10.5763 14.2271 11.5035 14.2271 12.6112C14.2271 13.7024 14.0548 14.6214 13.7184 15.3599C13.382 16.0983 12.9143 16.6891 12.3236 17.1322C11.7328 17.5752 11.0354 17.887 10.2232 18.0675C9.41088 18.2563 8.53297 18.3465 7.58942 18.3465H3.9465V25.649H0V6.92505ZM3.9465 14.8594H7.33507C7.68788 14.8594 8.03248 14.8265 8.36067 14.7527C8.68886 14.6788 8.98424 14.564 9.24679 14.3917C9.50934 14.2276 9.72266 13.9978 9.87856 13.7024C10.0427 13.4153 10.1165 13.046 10.1165 12.603C10.1165 12.1271 10.0098 11.7414 9.79651 11.4542C9.58318 11.1671 9.31243 10.9373 8.98423 10.7814C8.65604 10.6255 8.28683 10.5189 7.88479 10.4778C7.48276 10.4368 7.08893 10.4122 6.71972 10.4122H3.9465V14.8594Z" fill="#F4F5F7"/>
<path d="M22.5462 24.0406H22.497C22.0785 24.7298 21.5124 25.2221 20.815 25.5257C20.1176 25.8293 19.3792 25.977 18.5997 25.977C18.0254 25.977 17.4757 25.8949 16.9423 25.7226C16.409 25.5585 15.9414 25.3042 15.5393 24.9678C15.1373 24.6314 14.8173 24.2211 14.5794 23.7206C14.3414 23.2283 14.2266 22.6539 14.2266 21.9975C14.2266 21.2591 14.3578 20.6273 14.6204 20.1186C14.8829 19.6099 15.2358 19.1832 15.687 18.8468C16.1301 18.5104 16.647 18.2478 17.2213 18.0673C17.7956 17.8786 18.3864 17.7473 19.0017 17.657C19.6171 17.5668 20.2325 17.5176 20.8478 17.5011C21.4632 17.4847 22.0293 17.4765 22.5544 17.4765C22.5544 16.7709 22.3165 16.2129 21.8324 15.7945C21.3483 15.3842 20.7822 15.1709 20.1258 15.1709C19.5022 15.1709 18.9279 15.3104 18.4192 15.5812C17.9023 15.8519 17.4428 16.2294 17.0408 16.7053L15.0142 14.5391C15.7198 13.8499 16.5485 13.333 17.4921 12.9884C18.4356 12.6437 19.412 12.4714 20.4294 12.4714C21.5452 12.4714 22.456 12.6191 23.178 12.9063C23.8918 13.1935 24.4661 13.6284 24.901 14.1863C25.3276 14.7524 25.6312 15.4417 25.8035 16.2622C25.9758 17.0827 26.0579 18.0345 26.0579 19.1093V25.6406H22.5626V24.0406H22.5462ZM21.6109 20.0201C21.3237 20.0201 20.9627 20.0365 20.536 20.0611C20.1094 20.0857 19.6909 20.1596 19.2971 20.2827C18.9033 20.4057 18.5669 20.5945 18.2879 20.8406C18.009 21.0868 17.8695 21.4314 17.8695 21.8745C17.8695 22.3503 18.0664 22.7032 18.452 22.9329C18.8376 23.1626 19.2479 23.2775 19.6663 23.2775C20.0355 23.2775 20.3966 23.2283 20.7412 23.1216C21.0858 23.015 21.3975 22.8673 21.6683 22.6703C21.9391 22.4734 22.1524 22.2273 22.3165 21.9319C22.4806 21.6283 22.5544 21.2837 22.5544 20.8734V20.0201H21.6109Z" fill="#F4F5F7"/>
<path d="M35.865 16.9515C35.6763 16.6725 35.4138 16.4346 35.0774 16.2541C34.741 16.0654 34.38 15.9751 33.9861 15.9751C33.0262 15.9751 32.2795 16.2787 31.7462 16.8777C31.2129 17.4766 30.9504 18.2643 30.9504 19.2325C30.9504 20.2007 31.2129 20.9884 31.7462 21.5874C32.2795 22.1863 33.0262 22.4899 33.9861 22.4899C34.4046 22.4899 34.7738 22.3915 35.0774 22.2027C35.381 22.0058 35.6435 21.7761 35.865 21.5135L38.3675 24.2622C37.7768 24.894 37.0793 25.3453 36.2835 25.5997C35.4794 25.854 34.7164 25.9853 33.9943 25.9853C33.0508 25.9853 32.1565 25.8294 31.3278 25.5094C30.4909 25.1894 29.7689 24.7381 29.1535 24.1474C28.5382 23.5566 28.0541 22.8427 27.7013 22.014C27.3485 21.1853 27.168 20.2581 27.168 19.2325C27.168 18.2069 27.3485 17.2797 27.7013 16.451C28.0541 15.6223 28.5382 14.9084 29.1535 14.3177C29.7689 13.7269 30.4909 13.2756 31.3278 12.9556C32.1647 12.6356 33.0508 12.4797 33.9943 12.4797C34.7164 12.4797 35.4794 12.611 36.2835 12.8654C37.0876 13.1197 37.7768 13.5628 38.3675 14.2028L35.865 16.9515Z" fill="#F4F5F7"/>
<path d="M47.0696 24.0406H47.0204C46.602 24.7298 46.0358 25.2221 45.3384 25.5257C44.641 25.8293 43.9026 25.977 43.1231 25.977C42.5488 25.977 41.9991 25.8949 41.4658 25.7226C40.9325 25.5585 40.4648 25.3042 40.0628 24.9678C39.6607 24.6314 39.3407 24.2211 39.1028 23.7206C38.8649 23.2283 38.75 22.6539 38.75 21.9975C38.75 21.2591 38.8813 20.6273 39.1438 20.1186C39.4064 19.6099 39.7592 19.1832 40.2104 18.8468C40.6535 18.5104 41.1704 18.2478 41.7447 18.0673C42.3191 17.8786 42.9098 17.7473 43.5252 17.657C44.1405 17.5668 44.7559 17.5176 45.3713 17.5011C45.9866 17.4847 46.5527 17.4765 47.0779 17.4765C47.0779 16.7709 46.8399 16.2129 46.3558 15.7945C45.8717 15.3842 45.3056 15.1709 44.6492 15.1709C44.0257 15.1709 43.4513 15.3104 42.9426 15.5812C42.4257 15.8519 41.9663 16.2294 41.5642 16.7053L39.5377 14.5391C40.2433 13.8499 41.072 13.333 42.0155 12.9884C42.9591 12.6437 43.9354 12.4714 44.9528 12.4714C46.0687 12.4714 46.9794 12.6191 47.7014 12.9063C48.4152 13.1935 48.9896 13.6284 49.4244 14.1863C49.8511 14.7524 50.1546 15.4417 50.3269 16.2622C50.4992 17.0827 50.5813 18.0345 50.5813 19.1093V25.6406H47.0861V24.0406H47.0696ZM46.1343 20.0201C45.8471 20.0201 45.4861 20.0365 45.0595 20.0611C44.6328 20.0857 44.2144 20.1596 43.8206 20.2827C43.4267 20.4057 43.0903 20.5945 42.8114 20.8406C42.5324 21.0868 42.3929 21.4314 42.3929 21.8745C42.3929 22.3503 42.5898 22.7032 42.9755 22.9329C43.3611 23.1626 43.7713 23.2775 44.1898 23.2775C44.559 23.2775 44.92 23.2283 45.2646 23.1216C45.6092 23.015 45.921 22.8673 46.1917 22.6703C46.4625 22.4734 46.6758 22.2273 46.8399 21.9319C47.004 21.6283 47.0779 21.2837 47.0779 20.8734V20.0201H46.1343Z" fill="#F4F5F7"/>
<path d="M59.2738 16.5826C58.7159 15.8605 57.9857 15.4995 57.0749 15.4995C56.7549 15.4995 56.4432 15.5816 56.1396 15.7374C55.836 15.8933 55.6801 16.1723 55.6801 16.558C55.6801 16.878 55.836 17.1077 56.1478 17.2554C56.4596 17.4031 56.8534 17.5344 57.3375 17.6492C57.8216 17.7641 58.3303 17.8872 58.88 18.0185C59.4297 18.1497 59.9466 18.3549 60.4225 18.642C60.9066 18.921 61.3004 19.3067 61.6122 19.7908C61.924 20.2749 62.0799 20.9231 62.0799 21.7354C62.0799 22.5641 61.9075 23.2451 61.5629 23.7866C61.2183 24.3282 60.7753 24.7548 60.2338 25.083C59.6923 25.4112 59.0851 25.641 58.4123 25.7723C57.7395 25.9035 54.6873 25.8461 53.8094 25.5835C52.9315 25.3292 52.1931 24.8779 51.5859 24.2215L53.8915 21.5466C54.2443 22.0061 54.6381 22.3507 55.0648 22.5887C55.4914 22.8266 56.0001 22.9497 56.5744 22.9497C57.0093 22.9497 57.4113 22.8841 57.7641 22.7528C58.1169 22.6215 58.2975 22.3754 58.2975 22.0225C58.2975 21.6861 58.1416 21.44 57.8298 21.2677C57.518 21.1036 57.1242 20.9559 56.6401 20.841C56.156 20.7261 55.6473 20.6031 55.0976 20.4718C54.5479 20.3405 54.031 20.1436 53.5551 19.8728C53.071 19.6102 52.6772 19.2328 52.3654 18.7487C52.0536 18.2646 51.8977 17.6164 51.8977 16.8041C51.8977 16.0492 52.0454 15.3928 52.3408 14.8431C52.6362 14.2934 53.0218 13.8503 53.5059 13.4975C53.9899 13.1446 54.5397 12.8821 55.1632 12.718C55.7868 12.5539 56.4186 12.4636 57.0585 12.4636C57.8708 12.4636 58.6831 12.5867 59.5118 12.8329C60.3404 13.079 61.0378 13.5221 61.6122 14.1539L59.2738 16.5826Z" fill="#F4F5F7"/>
<path d="M63.3996 12.7997H67.0425V14.5474H67.0918C67.2066 14.3013 67.3789 14.0551 67.6005 13.809C67.822 13.5628 68.0845 13.3413 68.3881 13.1443C68.6917 12.9474 69.0363 12.7915 69.4219 12.6685C69.8076 12.5454 70.2342 12.4797 70.6855 12.4797C71.547 12.4797 72.31 12.6685 72.9746 13.0377C73.6392 13.4069 74.1397 13.9895 74.4843 14.7854C74.9191 13.9566 75.4524 13.3659 76.076 13.0131C76.6996 12.6602 77.4708 12.4879 78.3815 12.4879C79.2102 12.4879 79.9076 12.6356 80.4656 12.9228C81.0317 13.21 81.4747 13.612 81.8029 14.1125C82.1311 14.6131 82.3691 15.2038 82.5086 15.8848C82.648 16.5659 82.7219 17.2879 82.7219 18.0674V25.6571H78.9231V18.1741C78.9231 17.5751 78.8 17.0582 78.5538 16.6233C78.3077 16.1884 77.8729 15.9751 77.2493 15.9751C76.8144 15.9751 76.4452 16.0489 76.1498 16.1966C75.8545 16.3443 75.6165 16.5577 75.4442 16.8202C75.2637 17.0828 75.1407 17.3946 75.0668 17.7474C74.993 18.1002 74.9519 18.4694 74.9519 18.8551V25.6571H71.1531V18.8551C71.1531 18.6253 71.1449 18.3464 71.1285 18.01C71.1121 17.6735 71.0547 17.3618 70.948 17.0582C70.8496 16.7546 70.6855 16.5002 70.4557 16.2869C70.226 16.0736 69.8978 15.9669 69.4547 15.9669C68.9625 15.9669 68.5686 16.0571 68.265 16.2459C67.9615 16.4346 67.7317 16.6807 67.5676 16.9843C67.4035 17.2961 67.3051 17.6407 67.2477 18.0264C67.1984 18.412 67.1738 18.8223 67.1738 19.2407V25.6407H63.375V12.7997H63.3996Z" fill="#F4F5F7"/>
<path d="M92.2493 24.0406H92.2001C91.7817 24.7298 91.2155 25.2221 90.5181 25.5257C89.8207 25.8293 89.0823 25.977 88.3028 25.977C87.7285 25.977 87.1788 25.8949 86.6455 25.7226C86.1122 25.5503 85.6445 25.3042 85.2425 24.9678C84.8404 24.6314 84.5204 24.2211 84.2825 23.7206C84.0446 23.2283 83.9297 22.6539 83.9297 21.9975C83.9297 21.2591 84.061 20.6273 84.3235 20.1186C84.5861 19.6099 84.9389 19.1832 85.3901 18.8468C85.8332 18.5104 86.3501 18.2478 86.9244 18.0673C87.4988 17.8786 88.0895 17.7473 88.7049 17.657C89.3202 17.5668 89.9356 17.5176 90.5509 17.5011C91.1663 17.4847 91.7324 17.4765 92.2575 17.4765C92.2575 16.7709 92.0196 16.2129 91.5355 15.7945C91.0514 15.3842 90.4853 15.1709 89.8289 15.1709C89.2054 15.1709 88.631 15.3104 88.1223 15.5812C87.6054 15.8519 87.146 16.2294 86.7439 16.7053L84.7173 14.5391C85.423 13.8499 86.2516 13.333 87.1952 12.9884C88.1387 12.6437 89.1151 12.4714 90.1325 12.4714C91.2484 12.4714 92.1591 12.6191 92.8811 12.9063C93.5949 13.1935 94.1693 13.6284 94.6041 14.1863C95.0308 14.7524 95.3343 15.4417 95.5066 16.2622C95.6789 17.0827 95.761 18.0345 95.761 19.1093V25.6406H92.2657V24.0406H92.2493ZM91.314 20.0201C91.0268 20.0201 90.6658 20.0365 90.2392 20.0611C89.8125 20.0857 89.3941 20.1596 89.0002 20.2827C88.6064 20.4057 88.27 20.5945 87.9911 20.8406C87.7121 21.0868 87.5726 21.4314 87.5726 21.8745C87.5726 22.3503 87.7695 22.7032 88.1552 22.9329C88.5408 23.1626 88.951 23.2775 89.3695 23.2775C89.7387 23.2775 90.0997 23.2283 90.4443 23.1216C90.7889 23.015 91.1007 22.8673 91.3714 22.6703C91.6422 22.4734 91.8555 22.2273 92.0196 21.9319C92.1837 21.6283 92.2575 21.2837 92.2575 20.8734V20.0201H91.314Z" fill="#F4F5F7"/>
<path d="M104.313 27.7415C104.059 28.4308 103.813 29.0379 103.583 29.5631C103.345 30.0882 103.049 30.5395 102.68 30.9005C102.319 31.2615 101.86 31.5323 101.302 31.721C100.744 31.9097 100.014 32 99.103 32C98.1266 32 97.1831 31.8441 96.2723 31.5241L96.781 28.2667C97.3554 28.5292 97.9461 28.6605 98.5533 28.6605C98.9717 28.6605 99.3245 28.6113 99.5871 28.5128C99.8578 28.4144 100.079 28.2749 100.26 28.0862C100.44 27.8974 100.588 27.6759 100.703 27.4133C100.818 27.1508 100.949 26.839 101.08 26.4862L101.359 25.7477L95.9688 12.7837H100.071L103.238 21.2759H103.287L105.995 12.7837H109.892L104.313 27.7415Z" fill="#F4F5F7"/>
<path d="M109.461 19.2242C109.461 18.1986 109.641 17.2714 109.994 16.4427C110.347 15.614 110.831 14.9001 111.446 14.3094C112.062 13.7186 112.792 13.2673 113.621 12.9473C114.458 12.6273 115.344 12.4714 116.287 12.4714C117.231 12.4714 118.125 12.6273 118.954 12.9473C119.791 13.2673 120.513 13.7186 121.128 14.3094C121.743 14.9001 122.228 15.614 122.58 16.4427C122.933 17.2714 123.114 18.1986 123.114 19.2242C123.114 20.2498 122.933 21.177 122.58 22.0057C122.228 22.8344 121.743 23.5483 121.128 24.1391C120.513 24.7298 119.783 25.1811 118.954 25.5011C118.117 25.8211 117.231 25.977 116.287 25.977C115.344 25.977 114.449 25.8211 113.621 25.5011C112.784 25.1811 112.062 24.7298 111.446 24.1391C110.831 23.5483 110.347 22.8344 109.994 22.0057C109.633 21.177 109.461 20.2498 109.461 19.2242ZM113.252 19.2242C113.252 20.1924 113.514 20.9801 114.047 21.5791C114.581 22.178 115.327 22.4816 116.287 22.4816C117.247 22.4816 117.994 22.178 118.527 21.5791C119.061 20.9801 119.323 20.1924 119.323 19.2242C119.323 18.256 119.061 17.4683 118.527 16.8694C117.994 16.2704 117.247 15.9668 116.287 15.9668C115.327 15.9668 114.581 16.2704 114.047 16.8694C113.522 17.4683 113.252 18.256 113.252 19.2242Z" fill="#F4F5F7"/>
<path d="M141.402 12.7999H147.522V0H129.16V19.1917H141.402V12.7999Z" fill="#F4F5F7"/>
</svg>
