<svg width="108" height="26" viewBox="0 0 108 26" fill="none" xmlns="http://www.w3.org/2000/svg">
<path d="M28.3281 3.14174H36.0362C36.9316 3.14174 37.827 3.20939 38.7223 3.3447C39.6372 3.46067 40.4547 3.71196 41.1749 4.09855C41.8951 4.46582 42.4791 4.98772 42.9267 5.66425C43.3744 6.34079 43.5983 7.23962 43.5983 8.36074C43.5983 9.52052 43.2674 10.487 42.6056 11.2602C41.9632 12.014 41.1068 12.5553 40.0362 12.8839V12.9419C40.7175 13.0385 41.3306 13.2318 41.8756 13.5218C42.4401 13.7924 42.917 14.15 43.3063 14.5946C43.7151 15.0198 44.0265 15.5224 44.2406 16.1023C44.4547 16.6822 44.5618 17.3007 44.5618 17.9579C44.5618 19.0404 44.3282 19.9489 43.8611 20.6834C43.3939 21.3986 42.7905 21.9785 42.0508 22.4231C41.3112 22.8676 40.4742 23.1866 39.5399 23.3799C38.625 23.5732 37.7102 23.6698 36.7953 23.6698H28.3281V3.14174ZM32.8829 11.3472H36.1822C36.5325 11.3472 36.8732 11.3085 37.2041 11.2312C37.5545 11.1539 37.8659 11.0282 38.1384 10.8543C38.4109 10.6803 38.625 10.4483 38.7807 10.1584C38.9559 9.86845 39.0435 9.52052 39.0435 9.1146C39.0435 8.68934 38.9462 8.34141 38.7515 8.0708C38.5764 7.78085 38.3428 7.55856 38.0508 7.40392C37.7588 7.24929 37.4279 7.14297 37.0581 7.08498C36.6883 7.00767 36.3282 6.96901 35.9778 6.96901H32.8829V11.3472ZM32.8829 19.8426H36.9705C37.3209 19.8426 37.6712 19.8039 38.0216 19.7266C38.3914 19.6493 38.7223 19.5139 39.0143 19.3207C39.3063 19.1274 39.5399 18.8761 39.715 18.5668C39.9097 18.2575 40.007 17.8806 40.007 17.436C40.007 16.9528 39.8805 16.5662 39.6275 16.2762C39.3939 15.967 39.0922 15.735 38.7223 15.5804C38.3525 15.4257 37.9535 15.3194 37.5253 15.2614C37.097 15.2034 36.698 15.1744 36.3282 15.1744H32.8829V19.8426Z" fill="#151515"/>
<path d="M46.706 9.57851H51.0855V11.8401H51.1439C51.6111 10.9702 52.1658 10.3227 52.8082 9.89745C53.4505 9.45287 54.2583 9.23057 55.2315 9.23057C55.4846 9.23057 55.7376 9.24024 55.9907 9.25957C56.2437 9.2789 56.4773 9.31756 56.6914 9.37555V13.3478C56.38 13.2511 56.0685 13.1835 55.7571 13.1448C55.4651 13.0868 55.1537 13.0578 54.8228 13.0578C53.9858 13.0578 53.324 13.1738 52.8374 13.4058C52.3508 13.6377 51.9712 13.9663 51.6987 14.3916C51.4456 14.7975 51.2802 15.2904 51.2023 15.8703C51.1245 16.4502 51.0855 17.0881 51.0855 17.7839V23.6698H46.706V9.57851Z" fill="#151515"/>
<path d="M58.6542 9.57851H63.0338V23.6698H58.6542V9.57851ZM58.3039 5.14235C58.3039 4.44649 58.5472 3.85693 59.0338 3.37369C59.5399 2.87112 60.1433 2.61983 60.844 2.61983C61.5448 2.61983 62.1384 2.87112 62.6251 3.37369C63.1311 3.85693 63.3842 4.44649 63.3842 5.14235C63.3842 5.83822 63.1311 6.43744 62.6251 6.94001C62.1384 7.42325 61.5448 7.66487 60.844 7.66487C60.1433 7.66487 59.5399 7.42325 59.0338 6.94001C58.5472 6.43744 58.3039 5.83822 58.3039 5.14235Z" fill="#151515"/>
<path d="M75.7862 14.1306C75.5721 13.8214 75.2704 13.5701 74.8811 13.3768C74.4918 13.1642 74.0733 13.0578 73.6256 13.0578C72.5161 13.0578 71.6499 13.3864 71.027 14.0437C70.4236 14.7009 70.1219 15.561 70.1219 16.6242C70.1219 17.6873 70.4236 18.5475 71.027 19.2047C71.6499 19.8619 72.5161 20.1905 73.6256 20.1905C74.1122 20.1905 74.5307 20.0842 74.8811 19.8715C75.2314 19.6589 75.5331 19.4076 75.7862 19.1177L78.6767 22.1331C77.9954 22.829 77.1876 23.3219 76.2533 23.6118C75.3385 23.8825 74.4626 24.0178 73.6256 24.0178C72.5355 24.0178 71.5039 23.8438 70.5307 23.4959C69.5769 23.1479 68.7399 22.655 68.0197 22.0171C67.319 21.3599 66.7642 20.5771 66.3555 19.6686C65.9467 18.7601 65.7423 17.7453 65.7423 16.6242C65.7423 15.503 65.9467 14.4882 66.3555 13.5797C66.7642 12.6713 67.319 11.8981 68.0197 11.2602C68.7399 10.603 69.5769 10.1004 70.5307 9.75248C71.5039 9.40454 72.5355 9.23057 73.6256 9.23057C74.4626 9.23057 75.3385 9.37555 76.2533 9.66549C77.1876 9.93611 77.9954 10.4193 78.6767 11.1152L75.7862 14.1306Z" fill="#151515"/>
<path d="M80.2657 1.75H84.6453V15.1454L89.492 9.57851H94.8643L89.2292 15.9283L95.0103 23.6698H89.492L84.7036 16.5372H84.6453V23.6698H80.2657V1.75Z" fill="#151515"/>
<path d="M104.519 13.7247C103.876 12.9322 103.03 12.5359 101.979 12.5359C101.609 12.5359 101.249 12.6229 100.898 12.7969C100.548 12.9709 100.373 13.2705 100.373 13.6957C100.373 14.0437 100.548 14.3046 100.898 14.4786C101.268 14.6332 101.726 14.7782 102.271 14.9135C102.835 15.0295 103.429 15.1648 104.052 15.3194C104.694 15.4547 105.288 15.677 105.833 15.9863C106.397 16.2956 106.855 16.7208 107.205 17.262C107.575 17.7839 107.76 18.4895 107.76 19.3786C107.76 20.2871 107.555 21.041 107.147 21.6402C106.757 22.2201 106.251 22.6937 105.628 23.0609C105.005 23.4089 104.305 23.6505 103.526 23.7858C102.747 23.9404 101.979 24.0178 101.219 24.0178C100.227 24.0178 99.2243 23.8825 98.2122 23.6118C97.2 23.3219 96.3435 22.8193 95.6428 22.1041L98.2997 19.1757C98.7085 19.6782 99.1562 20.0648 99.6428 20.3355C100.149 20.5867 100.733 20.7124 101.395 20.7124C101.901 20.7124 102.358 20.6447 102.767 20.5094C103.176 20.3548 103.38 20.0842 103.38 19.6976C103.38 19.3303 103.195 19.0597 102.825 18.8857C102.475 18.6924 102.018 18.5378 101.453 18.4218C100.908 18.2865 100.314 18.1512 99.672 18.0159C99.0491 17.8613 98.4555 17.639 97.891 17.349C97.346 17.0591 96.8885 16.6532 96.5187 16.1313C96.1684 15.59 95.9932 14.8748 95.9932 13.9857C95.9932 13.1545 96.1586 12.4393 96.4895 11.8401C96.8399 11.2409 97.2876 10.748 97.8326 10.3614C98.3971 9.97477 99.0394 9.69449 99.7596 9.52052C100.48 9.32722 101.21 9.23057 101.949 9.23057C102.884 9.23057 103.828 9.36588 104.782 9.6365C105.735 9.90711 106.543 10.3904 107.205 11.0862L104.519 13.7247Z" fill="#151515"/>
<path fill-rule="evenodd" clip-rule="evenodd" d="M0 10.6H6.50569V19.6448L10.9874 19.5993L17.6497 12.9856L22.2109 17.5965L13.6885 26H0V10.6Z" fill="#151515"/>
<path fill-rule="evenodd" clip-rule="evenodd" d="M0 0V6.35763L10.9874 6.40309L15.2474 10.6L19.7821 6.04656L13.7294 0H0Z" fill="#151515"/>
</svg>
