<svg width="188" height="32" viewBox="0 0 188 32" fill="none" xmlns="http://www.w3.org/2000/svg">
<g clip-path="url(#clip0_2733_59524)">
<path d="M176.005 16.9081C176.005 17.5669 176.077 18.2113 176.223 18.841C176.385 19.456 176.633 20.0124 176.969 20.5104C177.306 21.0082 177.745 21.4109 178.284 21.7185C178.825 22.0113 179.483 22.1577 180.258 22.1577C181.032 22.1577 181.69 22.0113 182.231 21.7185C182.772 21.4109 183.211 21.0082 183.546 20.5104C183.883 20.0124 184.124 19.456 184.27 18.841C184.43 18.2113 184.512 17.5669 184.512 16.9081C184.512 16.2199 184.43 15.5536 184.27 14.9092C184.124 14.2649 183.883 13.6938 183.546 13.1959C183.211 12.6834 182.772 12.2807 182.231 11.9879C181.69 11.6803 181.032 11.5266 180.258 11.5266C179.483 11.5266 178.825 11.6803 178.284 11.9879C177.745 12.2807 177.306 12.6834 176.969 13.1959C176.633 13.6938 176.385 14.2649 176.223 14.9092C176.077 15.5536 176.005 16.2199 176.005 16.9081ZM172.562 16.9081C172.562 15.7365 172.738 14.6529 173.089 13.6572C173.439 12.6468 173.944 11.7682 174.601 11.0214C175.259 10.2746 176.063 9.68885 177.012 9.26419C177.978 8.83954 179.059 8.6272 180.258 8.6272C181.471 8.6272 182.553 8.83954 183.503 9.26419C184.452 9.68885 185.257 10.2746 185.915 11.0214C186.573 11.7682 187.076 12.6468 187.427 13.6572C187.778 14.6529 187.954 15.7365 187.954 16.9081C187.954 18.0503 187.778 19.1192 187.427 20.115C187.076 21.096 186.573 21.9527 185.915 22.6849C185.257 23.4171 184.452 23.9954 183.503 24.4201C182.553 24.8301 181.471 25.0351 180.258 25.0351C179.059 25.0351 177.978 24.8301 177.012 24.4201C176.063 23.9954 175.259 23.4171 174.601 22.6849C173.944 21.9527 173.439 21.096 173.089 20.115C172.738 19.1192 172.562 18.0503 172.562 16.9081Z" fill="#F4F5F7"/>
<path d="M156.551 9.00073H159.971L166.505 19.522H166.549V9.00073H169.772V24.6838H166.33L159.818 14.1845H159.774V24.6838H156.551V9.00073Z" fill="#F4F5F7"/>
<path d="M141.813 16.9081C141.813 17.5669 141.886 18.2113 142.033 18.841C142.193 19.456 142.442 20.0124 142.778 20.5104C143.114 21.0082 143.553 21.4109 144.093 21.7185C144.634 22.0113 145.292 22.1577 146.067 22.1577C146.841 22.1577 147.499 22.0113 148.04 21.7185C148.581 21.4109 149.019 21.0082 149.356 20.5104C149.691 20.0124 149.933 19.456 150.079 18.841C150.24 18.2113 150.32 17.5669 150.32 16.9081C150.32 16.2199 150.24 15.5536 150.079 14.9092C149.933 14.2649 149.691 13.6938 149.356 13.1959C149.019 12.6834 148.581 12.2807 148.04 11.9879C147.499 11.6803 146.841 11.5266 146.067 11.5266C145.292 11.5266 144.634 11.6803 144.093 11.9879C143.553 12.2807 143.114 12.6834 142.778 13.1959C142.442 13.6938 142.193 14.2649 142.033 14.9092C141.886 15.5536 141.813 16.2199 141.813 16.9081ZM138.371 16.9081C138.371 15.7365 138.547 14.6529 138.897 13.6572C139.248 12.6468 139.752 11.7682 140.41 11.0214C141.068 10.2746 141.872 9.68885 142.822 9.26419C143.786 8.83954 144.868 8.6272 146.067 8.6272C147.28 8.6272 148.361 8.83954 149.312 9.26419C150.262 9.68885 151.065 10.2746 151.723 11.0214C152.381 11.7682 152.885 12.6468 153.235 13.6572C153.587 14.6529 153.762 15.7365 153.762 16.9081C153.762 18.0503 153.587 19.1192 153.235 20.115C152.885 21.096 152.381 21.9527 151.723 22.6849C151.065 23.4171 150.262 23.9954 149.312 24.4201C148.361 24.8301 147.28 25.0351 146.067 25.0351C144.868 25.0351 143.786 24.8301 142.822 24.4201C141.872 23.9954 141.068 23.4171 140.41 22.6849C139.752 21.9527 139.248 21.096 138.897 20.115C138.547 19.1192 138.371 18.0503 138.371 16.9081Z" fill="#F4F5F7"/>
<path d="M133.29 22.9045C132.676 23.6953 131.996 24.2517 131.251 24.5739C130.505 24.8814 129.752 25.0351 128.992 25.0351C127.794 25.0351 126.712 24.8301 125.747 24.4201C124.797 23.9954 123.993 23.4171 123.336 22.6849C122.678 21.9527 122.174 21.096 121.823 20.115C121.472 19.1192 121.297 18.0503 121.297 16.9081C121.297 15.7365 121.472 14.6529 121.823 13.6572C122.174 12.6468 122.678 11.7682 123.336 11.0214C123.993 10.2746 124.797 9.68885 125.747 9.26419C126.712 8.83954 127.794 8.6272 128.992 8.6272C129.796 8.6272 130.571 8.75168 131.316 9.0006C132.076 9.23491 132.756 9.58635 133.355 10.0549C133.969 10.5235 134.474 11.1019 134.868 11.7902C135.263 12.4784 135.504 13.2692 135.592 14.1624H132.303C132.098 13.2838 131.704 12.6249 131.119 12.1856C130.534 11.7462 129.825 11.5266 128.992 11.5266C128.218 11.5266 127.56 11.6803 127.019 11.9879C126.478 12.2807 126.04 12.6834 125.704 13.1959C125.368 13.6938 125.119 14.2649 124.958 14.9092C124.812 15.5536 124.739 16.2199 124.739 16.9081C124.739 17.5669 124.812 18.2113 124.958 18.841C125.119 19.456 125.368 20.0124 125.704 20.5104C126.04 21.0082 126.478 21.4109 127.019 21.7185C127.56 22.0113 128.218 22.1577 128.992 22.1577C130.132 22.1577 131.009 21.8722 131.623 21.301C132.252 20.7154 132.617 19.8733 132.72 18.7751H129.255V16.2051H135.833V24.6837H133.64L133.29 22.9045Z" fill="#F4F5F7"/>
<path d="M110.474 18.6211H114.53L112.556 12.8662H112.513L110.474 18.6211ZM110.802 9.00039H114.332L120.186 24.6835H116.612L115.429 21.191H109.575L108.347 24.6835H104.883L110.802 9.00039ZM116.525 3.70679H113.104L110.781 7.59461H112.951L116.525 3.70679Z" fill="#F4F5F7"/>
<path d="M96.149 11.9001H91.457V9.00073H104.283V11.9001H99.5911V24.6838H96.149V11.9001Z" fill="#F4F5F7"/>
<path d="M75.9961 9.00073H79.4164L85.9499 19.522H85.9938V9.00073H89.2168V24.6838H85.7746L79.263 14.1845H79.2191V24.6838H75.9961V9.00073Z" fill="#F4F5F7"/>
<path d="M61.3398 9.00073H73.0476V11.9001H64.782V15.2608H72.368V17.9406H64.782V21.7844H73.2229V24.6838H61.3398V9.00073Z" fill="#F4F5F7"/>
<path d="M49.7194 16.381H52.3943C52.7889 16.381 53.1689 16.3517 53.5344 16.2931C53.8997 16.2346 54.2213 16.1248 54.499 15.9637C54.7767 15.7879 54.9959 15.5463 55.1568 15.2388C55.3321 14.9313 55.4199 14.5286 55.4199 14.0308C55.4199 13.5329 55.3321 13.1302 55.1568 12.8227C54.9959 12.5152 54.7767 12.2809 54.499 12.1198C54.2213 11.9441 53.8997 11.8269 53.5344 11.7683C53.1689 11.7098 52.7889 11.6805 52.3943 11.6805H49.7194V16.381ZM46.2773 9.00073H53.337C54.3163 9.00073 55.1495 9.14717 55.8365 9.44004C56.5234 9.71826 57.0788 10.0917 57.5026 10.5603C57.9412 11.0288 58.2554 11.5633 58.4454 12.1637C58.65 12.7641 58.7524 13.3864 58.7524 14.0308C58.7524 14.6603 58.65 15.2828 58.4454 15.8978C58.2554 16.4982 57.9412 17.0326 57.5026 17.5012C57.0788 17.9698 56.5234 18.3506 55.8365 18.6434C55.1495 18.9216 54.3163 19.0607 53.337 19.0607H49.7194V24.6838H46.2773V9.00073Z" fill="#F4F5F7"/>
<path d="M33.6418 11.9227C29.7243 9.1006 25.8067 6.27086 21.8969 3.43351C21.6109 3.22757 21.3868 3.20469 21.0932 3.41826C17.4614 6.04204 13.8221 8.66583 10.1904 11.282C9.8272 11.5184 9.46404 11.7549 9.10086 11.9837C9.00814 11.7015 8.94632 11.4117 8.80724 11.1523C8.51361 10.6032 8.69906 10.2676 9.20132 9.94722C9.85038 9.53534 10.4685 9.05483 11.0944 8.60481C13.9071 6.57596 16.7119 4.5471 19.5401 2.53348C20.0269 2.18263 20.0501 1.99195 19.5401 1.66397C18.8292 1.20633 18.1338 0.718185 17.4692 0.191902C17.1215 -0.0826809 16.882 -0.0445443 16.5497 0.191902C12.6089 3.04451 8.66815 5.88186 4.71964 8.71922C4.42602 8.93279 4.31011 9.10822 4.44919 9.51246C5.79369 13.5626 7.10729 17.6203 8.42861 21.678C8.42088 21.7619 8.42861 21.8458 8.53679 21.8534H8.48271C8.59861 22.2806 8.72223 22.7001 8.83814 23.1272C10.144 23.1272 11.4499 23.1272 12.7557 23.1272C12.5626 22.6315 12.3771 22.1357 12.1839 21.6323C11.6121 19.8093 11.0404 17.9863 10.4685 16.1635C10.4067 15.9804 10.3681 15.7897 10.314 15.599C10.7081 15.3091 11.0944 15.0194 11.4885 14.7295C13.258 13.4787 15.0352 12.2278 16.8047 10.9769C17.2065 11.2591 17.6083 11.5413 18.0101 11.8312C19.7332 13.082 21.4487 14.3253 23.1717 15.5761C23.0327 16.0719 22.8859 16.5601 22.7467 17.0559C22.0745 19.0847 21.41 21.106 20.7378 23.1348C20.6605 23.4475 20.5832 23.7526 20.4982 24.0577C20.5832 23.7526 20.6682 23.4475 20.7378 23.1348C20.2355 23.15 19.7332 23.1654 19.231 23.1806C18.8756 24.3552 18.5202 25.5299 18.157 26.7044C18.6128 26.7197 19.0687 26.7349 19.5246 26.7501C19.2619 27.8282 18.5767 28.3672 17.4692 28.3672C13.6289 28.3672 9.78857 28.3824 5.95597 28.3519C5.33008 28.3519 5.23735 28.5121 5.44599 29.0613C5.75506 29.8697 6.01778 30.6936 6.26505 31.5172C6.37323 31.8757 6.55867 31.9825 6.90639 31.9825C11.674 31.9825 16.4415 31.9749 21.209 31.9825C21.6186 31.9825 21.7732 31.8147 21.8737 31.4561C22.1518 30.5333 22.4686 29.6257 22.7622 28.7104C23.79 25.5221 24.8176 22.334 25.853 19.1458C26.0154 18.7109 26.1775 18.2762 26.3399 17.8491C26.6412 18.0626 26.9271 18.3296 27.2593 18.4899C27.9162 18.8026 27.9162 19.2067 27.6998 19.8475C26.4094 23.6536 25.1731 27.4747 23.9058 31.296C23.7591 31.746 23.6818 32.0282 24.354 31.9978C25.2581 31.9519 26.1621 31.9749 27.0662 31.9901C27.4294 31.9901 27.5993 31.8605 27.692 31.5096C27.8776 30.8461 28.1171 30.1978 28.3333 29.5417C29.5697 25.7739 30.8061 21.9983 32.0579 18.2305C32.1737 17.8873 32.2819 17.6203 31.8878 17.338C28.2639 14.7752 24.6553 12.1973 21.0469 9.61924C20.6914 9.32179 20.336 9.03195 19.9805 8.73448C20.949 7.94125 21.9303 7.90057 22.9245 8.61244C26.0772 10.8854 29.2297 13.1583 32.3592 15.4541C32.7533 15.744 32.9 15.744 33.0392 15.2634C33.2941 14.3863 33.5647 13.5168 33.8737 12.6625C33.9973 12.3193 33.9433 12.121 33.6573 11.9151L33.6418 11.9227Z" fill="#F4F5F7"/>
<path d="M6.93037 21.8674C6.90726 21.7977 6.88414 21.7282 6.86104 21.6509C5.65148 17.9244 4.43422 14.2056 3.24006 10.4713C3.08599 9.98423 2.9319 9.83733 2.46964 10.2084C1.76857 10.7728 1.02896 11.2908 0.289361 11.8011C-0.0111025 12.0098 -0.0573277 12.1877 0.0582351 12.5433C1.56055 17.1203 3.05517 21.6974 4.52666 26.282C4.64993 26.6609 4.7963 26.8 5.19692 26.8C9.49587 26.7769 13.7948 26.7769 18.0938 26.7691C18.4481 25.5784 18.8025 24.3878 19.1646 23.1971C17.0151 23.1818 14.858 23.174 12.7085 23.1585C11.4065 23.1585 10.1045 23.1585 8.80248 23.1585C7.8523 23.1946 7.22827 22.7642 6.93037 21.8674Z" fill="#F4F5F7"/>
</g>
<defs>
<clipPath id="clip0_2733_59524">
<rect width="188" height="32" fill="white"/>
</clipPath>
</defs>
</svg>
