<svg width="360" height="90" viewBox="0 0 360 90" fill="none" xmlns="http://www.w3.org/2000/svg">
<path d="M359.918 0C359.918 49.7057 319.625 90 269.92 90V0H359.918Z" fill="#333333"/>
<path d="M329.918 0C329.918 33.1371 303.056 60 269.919 60V0H329.918Z" fill="#FF900E"/>
<path d="M299.918 0C299.918 16.5685 286.487 30 269.919 30V0H299.918Z" fill="#C10000"/>
<path fill-rule="evenodd" clip-rule="evenodd" d="M180 0C229.706 0 270 40.2943 270 90C220.294 90 180 49.7057 180 0Z" fill="#FF900E"/>
<path d="M180.023 60.2617H149.502V90H90.0234V0H180.023V60.2617Z" fill="#FF900E"/>
<path d="M44.9992 22.4999C44.9992 10.0736 55.0729 0 67.4996 0C79.9262 0 90 10.0736 90 22.4999C90 34.9263 79.9262 44.9998 67.4996 44.9998C55.0729 44.9998 44.9992 34.9263 44.9992 22.4999Z" fill="#FFE9CF"/>
<path d="M44.9992 67.4999C44.9992 55.0736 55.0729 45 67.4996 45C79.9262 45 90 55.0736 90 67.4999C90 79.9263 79.9262 89.9998 67.4996 89.9998C55.0729 89.9998 44.9992 79.9263 44.9992 67.4999Z" fill="#FFE9CF"/>
<path d="M-0.000846863 22.4999C-0.000846863 10.0736 10.0729 0 22.4996 0C34.9262 0 45 10.0736 45 22.4999C45 34.9263 34.9262 44.9998 22.4996 44.9998C10.0729 44.9998 -0.000846863 34.9263 -0.000846863 22.4999Z" fill="#FFE9CF"/>
<path d="M-0.000846863 67.4999C-0.000846863 55.0736 10.0729 45 22.4996 45C34.9262 45 45 55.0736 45 67.4999C45 79.9263 34.9262 89.9998 22.4996 89.9998C10.0729 89.9998 -0.000846863 79.9263 -0.000846863 67.4999Z" fill="#FFE9CF"/>
<path d="M71.1816 78.6763H56.9297V57.2983H78.3086V71.5503H71.1816V78.6763Z" fill="#C10000"/>
<path d="M26.998 33.0698H12.7461V11.6909H34.125V25.9438H26.998V33.0698Z" fill="#FF900E"/>
</svg>
