<svg width="60" height="1066" viewBox="0 0 60 1066" fill="none" xmlns="http://www.w3.org/2000/svg">
<g opacity="0.4">
<path d="M58.7461 326.108L30.8535 326.108L58.7461 354.002L58.7461 326.108Z" stroke="#FF900E"/>
<path d="M29.1445 326.107L1.25195 326.107L29.1445 354.001L29.1445 326.107Z" stroke="#FF900E"/>
<path d="M58.7461 296.507L30.8535 296.507L58.7461 324.401L58.7461 296.507Z" stroke="#FF900E"/>
<path d="M29.1445 296.507L1.25195 296.507L29.1445 324.401L29.1445 296.507Z" stroke="#FF900E"/>
<path d="M58.7461 237.306L49.8799 237.306L49.8799 295.507L58.7461 295.507L58.7461 237.306Z" stroke="#FF900E"/>
<path d="M39.0117 237.306L30.1455 237.306L30.1455 295.507L39.0117 295.507L39.0117 237.306Z" stroke="#FF900E"/>
<path d="M19.2813 237.306L10.415 237.306L10.415 295.507L19.2813 295.507L19.2813 237.306Z" stroke="#FF900E"/>
<path d="M58.7461 178.104L0.550784 178.104C0.818055 210.127 26.7243 236.035 58.7461 236.302L58.7461 178.104Z" stroke="#FF900E"/>
<path d="M58.7461 178.104L20.2871 178.104C20.5527 199.228 37.6226 216.3 58.7461 216.565L58.7461 178.104Z" stroke="#FF900E"/>
<path d="M58.7461 178.105L40.0205 178.105C40.2816 188.33 48.5214 196.571 58.7461 196.832L58.7461 178.105Z" stroke="#FF900E"/>
<path d="M58.7432 118.907C26.7236 119.176 0.8195 145.08 0.550781 177.101C32.5696 176.832 58.4738 150.927 58.7432 118.907Z" stroke="#FF900E"/>
<path d="M58.7461 44.4005C58.7459 36.5028 52.3437 30.1007 44.4463 30.1007C36.5489 30.1007 30.1467 36.5028 30.1465 44.4005C30.1465 52.2984 36.5488 58.7013 44.4463 58.7013C52.3438 58.7013 58.7461 52.2984 58.7461 44.4005Z" stroke="#FF900E"/>
<path d="M29.1445 14.8C29.1443 6.90237 22.7421 0.500244 14.8447 0.500243C6.94738 0.500273 0.545159 6.90238 0.544923 14.8C0.544922 22.6979 6.94724 29.1008 14.8447 29.1008C22.7422 29.1008 29.1445 22.6979 29.1445 14.8Z" stroke="#FF900E"/>
<mask id="path-14-inside-1_3024_58375" fill="white">
<path d="M-0.000978296 98.6638L-0.000976563 59.0115L19.8242 59.0115L19.8242 98.6638L-0.000978296 98.6638ZM19.8281 119.01L19.8281 59.0105L60 59.0105L60 119.01L19.8281 119.01Z"/>
</mask>
<path d="M-0.000978296 98.6638L-1.00098 98.6638L-1.00098 99.6638L-0.000978339 99.6638L-0.000978296 98.6638ZM-0.000976563 59.0115L-0.000976519 58.0115L-1.00098 58.0115L-1.00098 59.0115L-0.000976563 59.0115ZM19.8242 59.0115L20.8242 59.0115L20.8242 58.0115L19.8242 58.0115L19.8242 59.0115ZM19.8242 98.6638L19.8242 99.6638L20.8242 99.6638L20.8242 98.6638L19.8242 98.6638ZM19.8281 119.01L18.8281 119.01L18.8281 120.01L19.8281 120.01L19.8281 119.01ZM19.8281 59.0105L19.8281 58.0105L18.8281 58.0105L18.8281 59.0105L19.8281 59.0105ZM60 59.0105L61 59.0105L61 58.0105L60 58.0105L60 59.0105ZM60 119.01L60 120.01L61 120.01L61 119.01L60 119.01ZM-0.000978296 98.6638L0.999022 98.6638L0.999023 59.0115L-0.000976563 59.0115L-1.00098 59.0115L-1.00098 98.6638L-0.000978296 98.6638ZM-0.000976563 59.0115L-0.000976606 60.0115L19.8242 60.0115L19.8242 59.0115L19.8242 58.0115L-0.000976519 58.0115L-0.000976563 59.0115ZM19.8242 59.0115L18.8242 59.0115L18.8242 98.6638L19.8242 98.6638L20.8242 98.6638L20.8242 59.0115L19.8242 59.0115ZM19.8242 98.6638L19.8242 97.6638L-0.000978252 97.6638L-0.000978296 98.6638L-0.000978339 99.6638L19.8242 99.6638L19.8242 98.6638ZM19.8281 119.01L20.8281 119.01L20.8281 59.0105L19.8281 59.0105L18.8281 59.0105L18.8281 119.01L19.8281 119.01ZM19.8281 59.0105L19.8281 60.0105L60 60.0105L60 59.0105L60 58.0105L19.8281 58.0105L19.8281 59.0105ZM60 59.0105L59 59.0105L59 119.01L60 119.01L61 119.01L61 59.0105L60 59.0105ZM60 119.01L60 118.01L19.8281 118.01L19.8281 119.01L19.8281 120.01L60 120.01L60 119.01Z" fill="#FF900E" mask="url(#path-14-inside-1_3024_58375)"/>
<mask id="path-16-inside-2_3024_58375" fill="white">
<path d="M29.6523 44.4006C29.6523 52.5746 23.0262 59.2014 14.8525 59.2014C6.67889 59.2014 0.0527334 52.5746 0.0527337 44.4006C0.0529038 36.2268 6.67899 29.6009 14.8525 29.6008C23.0261 29.6008 29.6522 36.2268 29.6523 44.4006ZM21.5664 37.4485L12.1914 37.4485L12.1914 37.4495L7.50391 37.4495L7.50391 46.8245L12.1914 46.8245L12.1914 51.511L21.5664 51.511L21.5664 37.4485Z"/>
</mask>
<path d="M29.6523 44.4006L30.6523 44.4006L30.6523 44.4006L29.6523 44.4006ZM14.8525 59.2014L14.8525 60.2014L14.8525 60.2014L14.8525 59.2014ZM0.0527337 44.4006L-0.947266 44.4006L-0.947266 44.4006L0.0527337 44.4006ZM14.8525 29.6008L14.8525 28.6008L14.8525 28.6008L14.8525 29.6008ZM21.5664 37.4485L22.5664 37.4485L22.5664 36.4485L21.5664 36.4485L21.5664 37.4485ZM12.1914 37.4485L12.1914 36.4485L11.1914 36.4485L11.1914 37.4485L12.1914 37.4485ZM12.1914 37.4495L12.1914 38.4495L13.1914 38.4495L13.1914 37.4495L12.1914 37.4495ZM7.50391 37.4495L7.50391 36.4495L6.50391 36.4495L6.50391 37.4495L7.50391 37.4495ZM7.50391 46.8245L6.50391 46.8245L6.50391 47.8245L7.50391 47.8245L7.50391 46.8245ZM12.1914 46.8245L13.1914 46.8245L13.1914 45.8245L12.1914 45.8245L12.1914 46.8245ZM12.1914 51.511L11.1914 51.511L11.1914 52.511L12.1914 52.511L12.1914 51.511ZM21.5664 51.511L21.5664 52.511L22.5664 52.511L22.5664 51.511L21.5664 51.511ZM29.6523 44.4006L28.6523 44.4006C28.6523 52.0224 22.4739 58.2014 14.8525 58.2014L14.8525 59.2014L14.8525 60.2014C23.5786 60.2014 30.6523 53.1269 30.6523 44.4006L29.6523 44.4006ZM14.8525 59.2014L14.8525 58.2014C7.23124 58.2014 1.05273 52.0224 1.05273 44.4006L0.0527337 44.4006L-0.947266 44.4006C-0.947267 53.1268 6.12653 60.2014 14.8525 60.2014L14.8525 59.2014ZM0.0527337 44.4006L1.05273 44.4007C1.05289 36.7791 7.23128 30.6009 14.8525 30.6008L14.8525 29.6008L14.8525 28.6008C6.12671 28.6009 -0.947085 35.6745 -0.947266 44.4006L0.0527337 44.4006ZM14.8525 29.6008L14.8525 30.6008C22.4738 30.6008 28.6522 36.7791 28.6523 44.4007L29.6523 44.4006L30.6523 44.4006C30.6522 35.6745 23.5784 28.6008 14.8525 28.6008L14.8525 29.6008ZM21.5664 37.4485L21.5664 36.4485L12.1914 36.4485L12.1914 37.4485L12.1914 38.4485L21.5664 38.4485L21.5664 37.4485ZM12.1914 37.4485L11.1914 37.4485L11.1914 37.4495L12.1914 37.4495L13.1914 37.4495L13.1914 37.4485L12.1914 37.4485ZM12.1914 37.4495L12.1914 36.4495L7.50391 36.4495L7.50391 37.4495L7.50391 38.4495L12.1914 38.4495L12.1914 37.4495ZM7.50391 37.4495L6.50391 37.4495L6.50391 46.8245L7.50391 46.8245L8.50391 46.8245L8.50391 37.4495L7.50391 37.4495ZM7.50391 46.8245L7.50391 47.8245L12.1914 47.8245L12.1914 46.8245L12.1914 45.8245L7.50391 45.8245L7.50391 46.8245ZM12.1914 46.8245L11.1914 46.8245L11.1914 51.511L12.1914 51.511L13.1914 51.511L13.1914 46.8245L12.1914 46.8245ZM12.1914 51.511L12.1914 52.511L21.5664 52.511L21.5664 51.511L21.5664 50.511L12.1914 50.511L12.1914 51.511ZM21.5664 51.511L22.5664 51.511L22.5664 37.4485L21.5664 37.4485L20.5664 37.4485L20.5664 51.511L21.5664 51.511Z" fill="#FF900E" mask="url(#path-16-inside-2_3024_58375)"/>
<mask id="path-18-inside-3_3024_58375" fill="white">
<path d="M59.2422 14.7998C59.2422 22.9738 52.6161 29.6006 44.4424 29.6006C36.2687 29.6006 29.6426 22.9738 29.6426 14.7998C29.6428 6.62602 36.2689 2.95893e-05 44.4424 -6.46972e-07C52.6159 -2.89667e-07 59.242 6.626 59.2422 14.7998ZM51.5508 8.38574L37.4883 8.38574L37.4883 17.7607L42.1758 17.7607L42.1758 22.4482L51.5508 22.4482L51.5508 8.38574Z"/>
</mask>
<path d="M59.2422 14.7998L60.2422 14.7998L60.2422 14.7998L59.2422 14.7998ZM44.4424 29.6006L44.4424 30.6006L44.4424 30.6006L44.4424 29.6006ZM29.6426 14.7998L28.6426 14.7998L28.6426 14.7998L29.6426 14.7998ZM44.4424 -6.46972e-07L44.4424 -1L44.4424 -1L44.4424 -6.46972e-07ZM51.5508 8.38574L52.5508 8.38574L52.5508 7.38574L51.5508 7.38574L51.5508 8.38574ZM37.4883 8.38574L37.4883 7.38574L36.4883 7.38574L36.4883 8.38574L37.4883 8.38574ZM37.4883 17.7607L36.4883 17.7607L36.4883 18.7607L37.4883 18.7607L37.4883 17.7607ZM42.1758 17.7607L43.1758 17.7607L43.1758 16.7607L42.1758 16.7607L42.1758 17.7607ZM42.1758 22.4482L41.1758 22.4482L41.1758 23.4482L42.1758 23.4482L42.1758 22.4482ZM51.5508 22.4482L51.5508 23.4482L52.5508 23.4482L52.5508 22.4482L51.5508 22.4482ZM59.2422 14.7998L58.2422 14.7998C58.2422 22.4216 52.0637 28.6006 44.4424 28.6006L44.4424 29.6006L44.4424 30.6006C53.1684 30.6006 60.2422 23.526 60.2422 14.7998L59.2422 14.7998ZM44.4424 29.6006L44.4424 28.6006C36.8211 28.6006 30.6426 22.4216 30.6426 14.7998L29.6426 14.7998L28.6426 14.7998C28.6426 23.526 35.7164 30.6006 44.4424 30.6006L44.4424 29.6006ZM29.6426 14.7998L30.6426 14.7998C30.6428 7.1783 36.8212 1.00003 44.4424 0.999999L44.4424 -6.46972e-07L44.4424 -1C35.7166 -0.999968 28.6428 6.07374 28.6426 14.7998L29.6426 14.7998ZM44.4424 -6.46972e-07L44.4424 0.999999C52.0636 1 58.242 7.17828 58.2422 14.7998L59.2422 14.7998L60.2422 14.7998C60.2419 6.07372 53.1682 -1 44.4424 -1L44.4424 -6.46972e-07ZM51.5508 8.38574L51.5508 7.38574L37.4883 7.38574L37.4883 8.38574L37.4883 9.38574L51.5508 9.38574L51.5508 8.38574ZM37.4883 8.38574L36.4883 8.38574L36.4883 17.7607L37.4883 17.7607L38.4883 17.7607L38.4883 8.38574L37.4883 8.38574ZM37.4883 17.7607L37.4883 18.7607L42.1758 18.7607L42.1758 17.7607L42.1758 16.7607L37.4883 16.7607L37.4883 17.7607ZM42.1758 17.7607L41.1758 17.7607L41.1758 22.4482L42.1758 22.4482L43.1758 22.4482L43.1758 17.7607L42.1758 17.7607ZM42.1758 22.4482L42.1758 23.4482L51.5508 23.4482L51.5508 22.4482L51.5508 21.4482L42.1758 21.4482L42.1758 22.4482ZM51.5508 22.4482L52.5508 22.4482L52.5508 8.38574L51.5508 8.38574L50.5508 8.38574L50.5508 22.4482L51.5508 22.4482Z" fill="#FF900E" mask="url(#path-18-inside-3_3024_58375)"/>
</g>
<g opacity="0.4">
<path d="M58.7461 681.316L30.8535 681.316L58.7461 709.209L58.7461 681.316Z" stroke="#FF900E"/>
<path d="M29.1445 681.315L1.25195 681.315L29.1445 709.209L29.1445 681.315Z" stroke="#FF900E"/>
<path d="M58.7461 651.715L30.8535 651.715L58.7461 679.609L58.7461 651.715Z" stroke="#FF900E"/>
<path d="M29.1445 651.715L1.25195 651.715L29.1445 679.609L29.1445 651.715Z" stroke="#FF900E"/>
<path d="M58.7461 592.513L49.8799 592.513L49.8799 650.715L58.7461 650.715L58.7461 592.513Z" stroke="#FF900E"/>
<path d="M39.0117 592.513L30.1455 592.513L30.1455 650.715L39.0117 650.715L39.0117 592.513Z" stroke="#FF900E"/>
<path d="M19.2813 592.513L10.415 592.513L10.415 650.715L19.2813 650.715L19.2813 592.513Z" stroke="#FF900E"/>
<path d="M58.7461 533.312L0.550784 533.312C0.818055 565.335 26.7243 591.243 58.7461 591.51L58.7461 533.312Z" stroke="#FF900E"/>
<path d="M58.7461 533.312L20.2871 533.312C20.5527 554.436 37.6226 571.508 58.7461 571.774L58.7461 533.312Z" stroke="#FF900E"/>
<path d="M58.7461 533.312L40.0205 533.312C40.2816 543.537 48.5214 551.779 58.7461 552.04L58.7461 533.312Z" stroke="#FF900E"/>
<path d="M58.7432 474.115C26.7236 474.383 0.8195 500.288 0.550781 532.309C32.5696 532.04 58.4738 506.135 58.7432 474.115Z" stroke="#FF900E"/>
<path d="M58.7461 399.608C58.7459 391.711 52.3437 385.309 44.4463 385.309C36.5489 385.309 30.1467 391.711 30.1465 399.608C30.1465 407.506 36.5488 413.909 44.4463 413.909C52.3438 413.909 58.7461 407.506 58.7461 399.608Z" stroke="#FF900E"/>
<path d="M29.1445 370.008C29.1443 362.11 22.7421 355.708 14.8447 355.708C6.94738 355.708 0.545159 362.11 0.544923 370.008C0.544922 377.906 6.94724 384.309 14.8447 384.309C22.7422 384.309 29.1445 377.906 29.1445 370.008Z" stroke="#FF900E"/>
<mask id="path-33-inside-4_3024_58375" fill="white">
<path d="M-0.000978296 453.871L-0.000976563 414.22L19.8242 414.22L19.8242 453.871L-0.000978296 453.871ZM19.8281 474.219L19.8281 414.219L60 414.219L60 474.219L19.8281 474.219Z"/>
</mask>
<path d="M-0.000978296 453.871L-1.00098 453.871L-1.00098 454.871L-0.000978339 454.871L-0.000978296 453.871ZM-0.000976563 414.22L-0.000976519 413.22L-1.00098 413.22L-1.00098 414.22L-0.000976563 414.22ZM19.8242 414.22L20.8242 414.22L20.8242 413.22L19.8242 413.22L19.8242 414.22ZM19.8242 453.871L19.8242 454.871L20.8242 454.871L20.8242 453.871L19.8242 453.871ZM19.8281 474.219L18.8281 474.219L18.8281 475.219L19.8281 475.219L19.8281 474.219ZM19.8281 414.219L19.8281 413.219L18.8281 413.219L18.8281 414.219L19.8281 414.219ZM60 414.219L61 414.219L61 413.219L60 413.219L60 414.219ZM60 474.219L60 475.219L61 475.219L61 474.219L60 474.219ZM-0.000978296 453.871L0.999022 453.871L0.999023 414.22L-0.000976563 414.22L-1.00098 414.22L-1.00098 453.871L-0.000978296 453.871ZM-0.000976563 414.22L-0.000976606 415.22L19.8242 415.22L19.8242 414.22L19.8242 413.22L-0.000976519 413.22L-0.000976563 414.22ZM19.8242 414.22L18.8242 414.22L18.8242 453.871L19.8242 453.871L20.8242 453.871L20.8242 414.22L19.8242 414.22ZM19.8242 453.871L19.8242 452.871L-0.000978252 452.871L-0.000978296 453.871L-0.000978339 454.871L19.8242 454.871L19.8242 453.871ZM19.8281 474.219L20.8281 474.219L20.8281 414.219L19.8281 414.219L18.8281 414.219L18.8281 474.219L19.8281 474.219ZM19.8281 414.219L19.8281 415.219L60 415.219L60 414.219L60 413.219L19.8281 413.219L19.8281 414.219ZM60 414.219L59 414.219L59 474.219L60 474.219L61 474.219L61 414.219L60 414.219ZM60 474.219L60 473.219L19.8281 473.219L19.8281 474.219L19.8281 475.219L60 475.219L60 474.219Z" fill="#FF900E" mask="url(#path-33-inside-4_3024_58375)"/>
<mask id="path-35-inside-5_3024_58375" fill="white">
<path d="M29.6523 399.608C29.6523 407.782 23.0262 414.409 14.8525 414.409C6.67889 414.409 0.0527334 407.782 0.0527337 399.608C0.052839 391.434 6.67895 384.809 14.8525 384.809C23.0262 384.809 29.6522 391.434 29.6523 399.608ZM21.5664 392.656L12.1914 392.656L12.1914 392.657L7.50391 392.657L7.50391 402.032L12.1914 402.032L12.1914 406.719L21.5664 406.719L21.5664 392.656Z"/>
</mask>
<path d="M29.6523 399.608L30.6523 399.608L30.6523 399.608L29.6523 399.608ZM14.8525 414.409L14.8525 415.409L14.8525 415.409L14.8525 414.409ZM0.0527337 399.608L-0.947266 399.608L-0.947266 399.608L0.0527337 399.608ZM14.8525 384.809L14.8525 383.809L14.8525 383.809L14.8525 384.809ZM21.5664 392.656L22.5664 392.656L22.5664 391.656L21.5664 391.656L21.5664 392.656ZM12.1914 392.656L12.1914 391.656L11.1914 391.656L11.1914 392.656L12.1914 392.656ZM12.1914 392.657L12.1914 393.657L13.1914 393.657L13.1914 392.657L12.1914 392.657ZM7.50391 392.657L7.50391 391.657L6.50391 391.657L6.50391 392.657L7.50391 392.657ZM7.50391 402.032L6.50391 402.032L6.50391 403.032L7.50391 403.032L7.50391 402.032ZM12.1914 402.032L13.1914 402.032L13.1914 401.032L12.1914 401.032L12.1914 402.032ZM12.1914 406.719L11.1914 406.719L11.1914 407.719L12.1914 407.719L12.1914 406.719ZM21.5664 406.719L21.5664 407.719L22.5664 407.719L22.5664 406.719L21.5664 406.719ZM29.6523 399.608L28.6523 399.608C28.6523 407.23 22.4739 413.409 14.8525 413.409L14.8525 414.409L14.8525 415.409C23.5786 415.409 30.6523 408.335 30.6523 399.608L29.6523 399.608ZM14.8525 414.409L14.8525 413.409C7.23124 413.409 1.05273 407.23 1.05273 399.608L0.0527337 399.608L-0.947266 399.608C-0.947267 408.335 6.12653 415.409 14.8525 415.409L14.8525 414.409ZM0.0527337 399.608L1.05273 399.608C1.05283 391.987 7.23123 385.809 14.8525 385.809L14.8525 384.809L14.8525 383.809C6.12667 383.809 -0.947155 390.882 -0.947266 399.608L0.0527337 399.608ZM14.8525 384.809L14.8525 385.809C22.4739 385.809 28.6522 391.987 28.6523 399.608L29.6523 399.608L30.6523 399.608C30.6522 390.882 23.5784 383.809 14.8525 383.809L14.8525 384.809ZM21.5664 392.656L21.5664 391.656L12.1914 391.656L12.1914 392.656L12.1914 393.656L21.5664 393.656L21.5664 392.656ZM12.1914 392.656L11.1914 392.656L11.1914 392.657L12.1914 392.657L13.1914 392.657L13.1914 392.656L12.1914 392.656ZM12.1914 392.657L12.1914 391.657L7.50391 391.657L7.50391 392.657L7.50391 393.657L12.1914 393.657L12.1914 392.657ZM7.50391 392.657L6.50391 392.657L6.50391 402.032L7.50391 402.032L8.50391 402.032L8.50391 392.657L7.50391 392.657ZM7.50391 402.032L7.50391 403.032L12.1914 403.032L12.1914 402.032L12.1914 401.032L7.50391 401.032L7.50391 402.032ZM12.1914 402.032L11.1914 402.032L11.1914 406.719L12.1914 406.719L13.1914 406.719L13.1914 402.032L12.1914 402.032ZM12.1914 406.719L12.1914 407.719L21.5664 407.719L21.5664 406.719L21.5664 405.719L12.1914 405.719L12.1914 406.719ZM21.5664 406.719L22.5664 406.719L22.5664 392.656L21.5664 392.656L20.5664 392.656L20.5664 406.719L21.5664 406.719Z" fill="#FF900E" mask="url(#path-35-inside-5_3024_58375)"/>
<mask id="path-37-inside-6_3024_58375" fill="white">
<path d="M59.2422 370.008C59.2422 378.182 52.6161 384.808 44.4424 384.808C36.2687 384.808 29.6426 378.182 29.6426 370.008C29.6428 361.834 36.2689 355.208 44.4424 355.208C52.6159 355.208 59.242 361.834 59.2422 370.008ZM51.5508 363.594L37.4883 363.594L37.4883 372.969L42.1758 372.969L42.1758 377.657L51.5508 377.657L51.5508 363.594Z"/>
</mask>
<path d="M59.2422 370.008L60.2422 370.008L60.2422 370.008L59.2422 370.008ZM44.4424 384.808L44.4424 385.808L44.4424 385.808L44.4424 384.808ZM29.6426 370.008L28.6426 370.008L28.6426 370.008L29.6426 370.008ZM44.4424 355.208L44.4424 354.208L44.4424 354.208L44.4424 355.208ZM51.5508 363.594L52.5508 363.594L52.5508 362.594L51.5508 362.594L51.5508 363.594ZM37.4883 363.594L37.4883 362.594L36.4883 362.594L36.4883 363.594L37.4883 363.594ZM37.4883 372.969L36.4883 372.969L36.4883 373.969L37.4883 373.969L37.4883 372.969ZM42.1758 372.969L43.1758 372.969L43.1758 371.969L42.1758 371.969L42.1758 372.969ZM42.1758 377.657L41.1758 377.657L41.1758 378.657L42.1758 378.657L42.1758 377.657ZM51.5508 377.657L51.5508 378.657L52.5508 378.657L52.5508 377.657L51.5508 377.657ZM59.2422 370.008L58.2422 370.008C58.2422 377.629 52.0637 383.808 44.4424 383.808L44.4424 384.808L44.4424 385.808C53.1684 385.808 60.2422 378.734 60.2422 370.008L59.2422 370.008ZM44.4424 384.808L44.4424 383.808C36.8211 383.808 30.6426 377.629 30.6426 370.008L29.6426 370.008L28.6426 370.008C28.6426 378.734 35.7164 385.808 44.4424 385.808L44.4424 384.808ZM29.6426 370.008L30.6426 370.008C30.6428 362.386 36.8212 356.208 44.4424 356.208L44.4424 355.208L44.4424 354.208C35.7166 354.208 28.6428 361.282 28.6426 370.008L29.6426 370.008ZM44.4424 355.208L44.4424 356.208C52.0636 356.208 58.242 362.386 58.2422 370.008L59.2422 370.008L60.2422 370.008C60.2419 361.281 53.1682 354.208 44.4424 354.208L44.4424 355.208ZM51.5508 363.594L51.5508 362.594L37.4883 362.594L37.4883 363.594L37.4883 364.594L51.5508 364.594L51.5508 363.594ZM37.4883 363.594L36.4883 363.594L36.4883 372.969L37.4883 372.969L38.4883 372.969L38.4883 363.594L37.4883 363.594ZM37.4883 372.969L37.4883 373.969L42.1758 373.969L42.1758 372.969L42.1758 371.969L37.4883 371.969L37.4883 372.969ZM42.1758 372.969L41.1758 372.969L41.1758 377.657L42.1758 377.657L43.1758 377.657L43.1758 372.969L42.1758 372.969ZM42.1758 377.657L42.1758 378.657L51.5508 378.657L51.5508 377.657L51.5508 376.657L42.1758 376.657L42.1758 377.657ZM51.5508 377.657L52.5508 377.657L52.5508 363.594L51.5508 363.594L50.5508 363.594L50.5508 377.657L51.5508 377.657Z" fill="#FF900E" mask="url(#path-37-inside-6_3024_58375)"/>
</g>
<g opacity="0.4">
<path d="M58.7461 1036.53L30.8535 1036.53L58.7461 1064.42L58.7461 1036.53Z" stroke="#FF900E"/>
<path d="M29.1445 1036.52L1.25195 1036.52L29.1445 1064.42L29.1445 1036.52Z" stroke="#FF900E"/>
<path d="M58.7461 1006.92L30.8535 1006.92L58.7461 1034.82L58.7461 1006.92Z" stroke="#FF900E"/>
<path d="M29.1445 1006.92L1.25195 1006.92L29.1445 1034.82L29.1445 1006.92Z" stroke="#FF900E"/>
<path d="M58.7461 947.723L49.8799 947.723L49.8799 1005.92L58.7461 1005.92L58.7461 947.723Z" stroke="#FF900E"/>
<path d="M39.0117 947.723L30.1455 947.723L30.1455 1005.92L39.0117 1005.92L39.0117 947.723Z" stroke="#FF900E"/>
<path d="M19.2813 947.723L10.415 947.723L10.415 1005.92L19.2813 1005.92L19.2813 947.723Z" stroke="#FF900E"/>
<path d="M58.7461 888.522L0.550784 888.522C0.818055 920.545 26.7243 946.453 58.7461 946.72L58.7461 888.522Z" stroke="#FF900E"/>
<path d="M58.7461 888.522L20.2871 888.522C20.5527 909.646 37.6226 926.718 58.7461 926.984L58.7461 888.522Z" stroke="#FF900E"/>
<path d="M58.7461 888.522L40.0205 888.522C40.2816 898.748 48.5214 906.989 58.7461 907.25L58.7461 888.522Z" stroke="#FF900E"/>
<path d="M58.7432 829.325C26.7236 829.593 0.8195 855.498 0.550781 887.519C32.5696 887.25 58.4738 861.345 58.7432 829.325Z" stroke="#FF900E"/>
<path d="M58.7461 754.818C58.7459 746.92 52.3437 740.518 44.4463 740.518C36.5489 740.518 30.1467 746.92 30.1465 754.818C30.1465 762.716 36.5488 769.119 44.4463 769.119C52.3438 769.119 58.7461 762.716 58.7461 754.818Z" stroke="#FF900E"/>
<path d="M29.1445 725.218C29.1443 717.32 22.7421 710.918 14.8447 710.918C6.94738 710.918 0.545159 717.32 0.544923 725.218C0.544922 733.115 6.94724 739.518 14.8447 739.518C22.7422 739.518 29.1445 733.115 29.1445 725.218Z" stroke="#FF900E"/>
<mask id="path-52-inside-7_3024_58375" fill="white">
<path d="M-0.000978296 809.081L-0.000976563 769.429L19.8242 769.429L19.8242 809.081L-0.000978296 809.081ZM19.8281 829.428L19.8281 769.428L60 769.428L60 829.428L19.8281 829.428Z"/>
</mask>
<path d="M-0.000978296 809.081L-1.00098 809.081L-1.00098 810.081L-0.000978339 810.081L-0.000978296 809.081ZM-0.000976563 769.429L-0.000976519 768.429L-1.00098 768.429L-1.00098 769.429L-0.000976563 769.429ZM19.8242 769.429L20.8242 769.429L20.8242 768.429L19.8242 768.429L19.8242 769.429ZM19.8242 809.081L19.8242 810.081L20.8242 810.081L20.8242 809.081L19.8242 809.081ZM19.8281 829.428L18.8281 829.428L18.8281 830.428L19.8281 830.428L19.8281 829.428ZM19.8281 769.428L19.8281 768.428L18.8281 768.428L18.8281 769.428L19.8281 769.428ZM60 769.428L61 769.428L61 768.428L60 768.428L60 769.428ZM60 829.428L60 830.428L61 830.428L61 829.428L60 829.428ZM-0.000978296 809.081L0.999022 809.081L0.999023 769.429L-0.000976563 769.429L-1.00098 769.429L-1.00098 809.081L-0.000978296 809.081ZM-0.000976563 769.429L-0.000976606 770.429L19.8242 770.429L19.8242 769.429L19.8242 768.429L-0.000976519 768.429L-0.000976563 769.429ZM19.8242 769.429L18.8242 769.429L18.8242 809.081L19.8242 809.081L20.8242 809.081L20.8242 769.429L19.8242 769.429ZM19.8242 809.081L19.8242 808.081L-0.000978252 808.081L-0.000978296 809.081L-0.000978339 810.081L19.8242 810.081L19.8242 809.081ZM19.8281 829.428L20.8281 829.428L20.8281 769.428L19.8281 769.428L18.8281 769.428L18.8281 829.428L19.8281 829.428ZM19.8281 769.428L19.8281 770.428L60 770.428L60 769.428L60 768.428L19.8281 768.428L19.8281 769.428ZM60 769.428L59 769.428L59 829.428L60 829.428L61 829.428L61 769.428L60 769.428ZM60 829.428L60 828.428L19.8281 828.428L19.8281 829.428L19.8281 830.428L60 830.428L60 829.428Z" fill="#FF900E" mask="url(#path-52-inside-7_3024_58375)"/>
<mask id="path-54-inside-8_3024_58375" fill="white">
<path d="M29.6523 754.817C29.6523 762.991 23.0262 769.618 14.8525 769.618C6.67889 769.618 0.0527334 762.991 0.0527337 754.817C0.0529706 746.644 6.67903 740.018 14.8525 740.018C23.0261 740.018 29.6521 746.644 29.6523 754.817ZM21.5664 747.865L12.1914 747.865L12.1914 747.866L7.50391 747.866L7.50391 757.241L12.1914 757.241L12.1914 761.928L21.5664 761.928L21.5664 747.865Z"/>
</mask>
<path d="M29.6523 754.817L30.6523 754.817L30.6523 754.817L29.6523 754.817ZM14.8525 769.618L14.8525 770.618L14.8525 770.618L14.8525 769.618ZM0.0527337 754.817L-0.947266 754.817L-0.947266 754.817L0.0527337 754.817ZM14.8525 740.018L14.8525 739.018L14.8525 739.018L14.8525 740.018ZM21.5664 747.865L22.5664 747.865L22.5664 746.865L21.5664 746.865L21.5664 747.865ZM12.1914 747.865L12.1914 746.865L11.1914 746.865L11.1914 747.865L12.1914 747.865ZM12.1914 747.866L12.1914 748.866L13.1914 748.866L13.1914 747.866L12.1914 747.866ZM7.50391 747.866L7.50391 746.866L6.50391 746.866L6.50391 747.866L7.50391 747.866ZM7.50391 757.241L6.50391 757.241L6.50391 758.241L7.50391 758.241L7.50391 757.241ZM12.1914 757.241L13.1914 757.241L13.1914 756.241L12.1914 756.241L12.1914 757.241ZM12.1914 761.928L11.1914 761.928L11.1914 762.928L12.1914 762.928L12.1914 761.928ZM21.5664 761.928L21.5664 762.928L22.5664 762.928L22.5664 761.928L21.5664 761.928ZM29.6523 754.817L28.6523 754.817C28.6523 762.439 22.4739 768.618 14.8525 768.618L14.8525 769.618L14.8525 770.618C23.5786 770.618 30.6523 763.544 30.6523 754.817L29.6523 754.817ZM14.8525 769.618L14.8525 768.618C7.23124 768.618 1.05273 762.439 1.05273 754.817L0.0527337 754.817L-0.947266 754.817C-0.947267 763.544 6.12653 770.618 14.8525 770.618L14.8525 769.618ZM0.0527337 754.817L1.05273 754.817C1.05295 747.196 7.23133 741.018 14.8525 741.018L14.8525 740.018L14.8525 739.018C6.12674 739.018 -0.947014 746.091 -0.947266 754.817L0.0527337 754.817ZM14.8525 740.018L14.8525 741.018C22.4738 741.018 28.6521 747.196 28.6523 754.817L29.6523 754.817L30.6523 754.817C30.6521 746.091 23.5784 739.018 14.8525 739.018L14.8525 740.018ZM21.5664 747.865L21.5664 746.865L12.1914 746.865L12.1914 747.865L12.1914 748.865L21.5664 748.865L21.5664 747.865ZM12.1914 747.865L11.1914 747.865L11.1914 747.866L12.1914 747.866L13.1914 747.866L13.1914 747.865L12.1914 747.865ZM12.1914 747.866L12.1914 746.866L7.50391 746.866L7.50391 747.866L7.50391 748.866L12.1914 748.866L12.1914 747.866ZM7.50391 747.866L6.50391 747.866L6.50391 757.241L7.50391 757.241L8.50391 757.241L8.50391 747.866L7.50391 747.866ZM7.50391 757.241L7.50391 758.241L12.1914 758.241L12.1914 757.241L12.1914 756.241L7.50391 756.241L7.50391 757.241ZM12.1914 757.241L11.1914 757.241L11.1914 761.928L12.1914 761.928L13.1914 761.928L13.1914 757.241L12.1914 757.241ZM12.1914 761.928L12.1914 762.928L21.5664 762.928L21.5664 761.928L21.5664 760.928L12.1914 760.928L12.1914 761.928ZM21.5664 761.928L22.5664 761.928L22.5664 747.865L21.5664 747.865L20.5664 747.865L20.5664 761.928L21.5664 761.928Z" fill="#FF900E" mask="url(#path-54-inside-8_3024_58375)"/>
<mask id="path-56-inside-9_3024_58375" fill="white">
<path d="M59.2422 725.219C59.2422 733.393 52.6161 740.019 44.4424 740.019C36.2687 740.019 29.6426 733.392 29.6426 725.219C29.6428 717.045 36.2689 710.419 44.4424 710.419C52.6159 710.419 59.242 717.045 59.2422 725.219ZM51.5508 718.804L37.4883 718.804L37.4883 728.179L42.1758 728.179L42.1758 732.867L51.5508 732.867L51.5508 718.804Z"/>
</mask>
<path d="M59.2422 725.219L60.2422 725.219L60.2422 725.218L59.2422 725.219ZM44.4424 740.019L44.4424 741.019L44.4424 741.019L44.4424 740.019ZM29.6426 725.219L28.6426 725.218L28.6426 725.219L29.6426 725.219ZM44.4424 710.419L44.4424 709.419L44.4424 709.419L44.4424 710.419ZM51.5508 718.804L52.5508 718.804L52.5508 717.804L51.5508 717.804L51.5508 718.804ZM37.4883 718.804L37.4883 717.804L36.4883 717.804L36.4883 718.804L37.4883 718.804ZM37.4883 728.179L36.4883 728.179L36.4883 729.179L37.4883 729.179L37.4883 728.179ZM42.1758 728.179L43.1758 728.179L43.1758 727.179L42.1758 727.179L42.1758 728.179ZM42.1758 732.867L41.1758 732.867L41.1758 733.867L42.1758 733.867L42.1758 732.867ZM51.5508 732.867L51.5508 733.867L52.5508 733.867L52.5508 732.867L51.5508 732.867ZM59.2422 725.219L58.2422 725.219C58.2422 732.84 52.0637 739.019 44.4424 739.019L44.4424 740.019L44.4424 741.019C53.1684 741.019 60.2422 733.945 60.2422 725.219L59.2422 725.219ZM44.4424 740.019L44.4424 739.019C36.8211 739.019 30.6426 732.84 30.6426 725.219L29.6426 725.219L28.6426 725.219C28.6426 733.945 35.7164 741.019 44.4424 741.019L44.4424 740.019ZM29.6426 725.219L30.6426 725.219C30.6428 717.597 36.8212 711.419 44.4424 711.419L44.4424 710.419L44.4424 709.419C35.7166 709.419 28.6428 716.492 28.6426 725.218L29.6426 725.219ZM44.4424 710.419L44.4424 711.419C52.0636 711.419 58.242 717.597 58.2422 725.219L59.2422 725.219L60.2422 725.218C60.2419 716.492 53.1682 709.419 44.4424 709.419L44.4424 710.419ZM51.5508 718.804L51.5508 717.804L37.4883 717.804L37.4883 718.804L37.4883 719.804L51.5508 719.804L51.5508 718.804ZM37.4883 718.804L36.4883 718.804L36.4883 728.179L37.4883 728.179L38.4883 728.179L38.4883 718.804L37.4883 718.804ZM37.4883 728.179L37.4883 729.179L42.1758 729.179L42.1758 728.179L42.1758 727.179L37.4883 727.179L37.4883 728.179ZM42.1758 728.179L41.1758 728.179L41.1758 732.867L42.1758 732.867L43.1758 732.867L43.1758 728.179L42.1758 728.179ZM42.1758 732.867L42.1758 733.867L51.5508 733.867L51.5508 732.867L51.5508 731.867L42.1758 731.867L42.1758 732.867ZM51.5508 732.867L52.5508 732.867L52.5508 718.804L51.5508 718.804L50.5508 718.804L50.5508 732.867L51.5508 732.867Z" fill="#FF900E" mask="url(#path-56-inside-9_3024_58375)"/>
</g>
</svg>
