<svg width="380" height="59" viewBox="0 0 380 59" fill="none" xmlns="http://www.w3.org/2000/svg">
<g clip-path="url(#clip0_3112_56494)">
<path fill-rule="evenodd" clip-rule="evenodd" d="M186.637 -18.4529L186.637 20.4247C172.247 20.4247 159.683 12.6065 152.96 0.985928C159.683 -10.6346 172.247 -18.4529 186.637 -18.4529Z" fill="#C10000"/>
<path fill-rule="evenodd" clip-rule="evenodd" d="M186.637 0.985932L152.96 0.985928C159.683 -10.6346 172.247 -18.4529 186.637 -18.4529L186.637 0.985932Z" fill="#FFE9CF"/>
<path fill-rule="evenodd" clip-rule="evenodd" d="M147.758 20.4247C147.758 9.68892 139.055 0.985839 128.319 0.985838C117.583 0.985837 108.88 9.68892 108.88 20.4246L118.6 20.4246C118.6 15.0568 122.951 10.7052 128.319 10.7052C133.687 10.7052 138.038 15.0568 138.038 20.4247L147.758 20.4247Z" fill="#FF900E"/>
<path fill-rule="evenodd" clip-rule="evenodd" d="M147.758 -18.4529C147.758 -7.71715 139.055 0.985931 128.319 0.98593C117.583 0.985929 108.88 -7.71715 108.88 -18.4529L118.6 -18.4529C118.6 -13.085 122.951 -8.73348 128.319 -8.73348C133.687 -8.73348 138.038 -13.085 138.038 -18.4529L147.758 -18.4529Z" fill="#FF900E"/>
<path d="M70.0013 20.4245C91.4727 20.4245 108.879 3.01842 108.879 -18.4531L70.0013 -18.4531L70.0013 20.4245Z" fill="#C10000"/>
<path d="M70.0034 7.46894C84.3176 7.46895 95.9216 -4.13513 95.9216 -18.4495L70.0034 -18.4495L70.0034 7.46894Z" fill="#FF900E"/>
<path d="M186.637 20.4272C186.637 41.8988 169.231 59.3049 147.759 59.3049L147.759 20.4272L186.637 20.4272Z" fill="#FF900E"/>
<path d="M128.321 59.3407L147.793 39.8682L128.321 20.3956L108.848 39.8682L128.321 59.3407Z" fill="#FF900E"/>
<path fill-rule="evenodd" clip-rule="evenodd" d="M128.353 20.4307L147.758 39.8358L147.758 39.8695L108.88 39.8695L108.88 39.8358L128.285 20.4307L128.353 20.4307Z" fill="#FF900E"/>
<path d="M108.871 59.3022L108.871 20.4246L69.9937 20.4246L69.9937 59.3022L108.871 59.3022Z" fill="white"/>
<path d="M108.871 59.3022L108.871 20.4246L69.9937 20.4246L69.9937 59.3022L108.871 59.3022Z" fill="#333333"/>
<path d="M89.4336 39.864L69.9949 59.3028L69.9949 39.864L89.4336 39.864Z" fill="#FF900E"/>
<path d="M108.871 39.8633L89.4324 59.3021L89.4324 39.8633L108.871 39.8633Z" fill="#FF900E"/>
<path d="M89.4375 20.4253L69.9988 39.8641L69.9988 20.4253L89.4375 20.4253Z" fill="#FF900E"/>
<path d="M108.871 20.4246L89.4324 39.8634L89.4324 20.4246L108.871 20.4246Z" fill="#FF900E"/>
<path d="M70.0102 59.3018L31.1328 59.3018L31.1328 52.8222L70.0102 52.8222L70.0102 59.3018Z" fill="#FFE9CF"/>
<path d="M70.0102 46.3386L31.1328 46.3386L31.1328 39.859L70.0102 39.859L70.0102 46.3386Z" fill="#FFE9CF"/>
<path d="M70.0102 33.3831L31.1328 33.3831L31.1328 26.9035L70.0102 26.9035L70.0102 33.3831Z" fill="#FFE9CF"/>
<path d="M57.0448 20.4277L70.0039 20.4277L70.0039 7.46853L57.0448 7.46853L57.0448 20.4277Z" fill="#FF900E"/>
<path d="M31.1229 20.427L44.082 20.427L44.082 7.4678L31.1229 7.4678L31.1229 20.427Z" fill="#FF900E"/>
<path d="M37.6013 13.9453L63.5195 13.9453L63.5195 -11.9731L37.6013 -11.9731L37.6013 13.9453Z" fill="#FFE9CF"/>
<path d="M11.6826 -18.4477C22.4183 -18.4477 31.1213 -9.74464 31.1213 0.991119C31.1213 11.7269 22.4183 20.4299 11.6826 20.4299C0.946947 20.4299 -7.75605 11.7269 -7.75605 0.991115C-7.75605 -9.74464 0.946948 -18.4477 11.6826 -18.4477Z" fill="#FFE9CF"/>
<path d="M31.1526 0.988185C20.3983 -9.76618 2.96209 -9.76618 -7.7922 0.988181C2.96209 11.7425 20.3983 11.7425 31.1526 0.988185Z" fill="#C10000"/>
<rect x="30.9062" y="20.5532" width="38.7863" height="25.9698" transform="rotate(90 30.9062 20.5532)" fill="#C10000"/>
<rect x="4.9375" y="20.5518" width="25.6326" height="12.8162" transform="rotate(90 4.9375 20.5518)" fill="#C10000"/>
<rect x="59.2227" y="-7.15161" width="16.6227" height="11.0817" transform="rotate(90 59.2227 -7.15161)" fill="#FF900E"/>
<rect x="48.1404" y="-7.15234" width="11.0818" height="5.54086" transform="rotate(90 48.1404 -7.15234)" fill="#FF900E"/>
<rect x="164.5" y="20.5486" width="16.6227" height="11.0817" transform="rotate(90 164.5 20.5486)" fill="#333333"/>
<rect x="153.414" y="20.5513" width="11.0818" height="5.54086" transform="rotate(90 153.414 20.5513)" fill="#333333"/>
<path fill-rule="evenodd" clip-rule="evenodd" d="M381.086 20.4268C381.086 9.69112 372.383 0.988036 361.647 0.988035C350.912 0.988034 342.209 9.69111 342.209 20.4268L351.928 20.4268C351.928 15.059 356.279 10.7074 361.647 10.7074C367.015 10.7074 371.367 15.059 371.367 20.4268L381.086 20.4268Z" fill="#FF900E"/>
<path fill-rule="evenodd" clip-rule="evenodd" d="M381.086 -18.4509C381.086 -7.7152 372.383 0.987884 361.647 0.987883C350.912 0.987882 342.209 -7.7152 342.209 -18.4509L351.928 -18.4509C351.928 -13.083 356.279 -8.73152 361.647 -8.73152C367.015 -8.73152 371.367 -13.083 371.367 -18.4509L381.086 -18.4509Z" fill="#FF900E"/>
<path d="M303.337 20.4264C324.809 20.4265 342.215 3.02037 342.215 -18.4512L303.337 -18.4512L303.337 20.4264Z" fill="#C10000"/>
<path d="M303.34 7.4709C317.654 7.4709 329.258 -4.13318 329.258 -18.4475L303.34 -18.4475L303.34 7.4709Z" fill="#FF900E"/>
<path d="M361.649 59.3424L381.121 39.8699L361.649 20.3973L342.176 39.8699L361.649 59.3424Z" fill="#FF900E"/>
<path fill-rule="evenodd" clip-rule="evenodd" d="M361.681 20.4321L381.086 39.8372L381.086 39.8709L342.209 39.8709L342.209 39.8372L361.614 20.4321L361.681 20.4321Z" fill="#FF900E"/>
<path d="M342.203 59.3041L342.203 20.4265L303.326 20.4265L303.326 59.3041L342.203 59.3041Z" fill="white"/>
<path d="M342.203 59.3041L342.203 20.4265L303.326 20.4265L303.326 59.3041L342.203 59.3041Z" fill="#333333"/>
<path d="M322.766 39.866L303.327 59.3048L303.327 39.866L322.766 39.866Z" fill="#FF900E"/>
<path d="M342.203 39.8652L322.764 59.304L322.764 39.8652L342.203 39.8652Z" fill="#FF900E"/>
<path d="M322.77 20.4272L303.331 39.8661L303.331 20.4272L322.77 20.4272Z" fill="#FF900E"/>
<path d="M342.203 20.4265L322.764 39.8653L322.764 20.4265L342.203 20.4265Z" fill="#FF900E"/>
<path d="M303.342 59.3037L264.465 59.3037L264.465 52.8241L303.342 52.8241L303.342 59.3037Z" fill="#FFE9CF"/>
<path d="M303.342 46.3411L264.465 46.3411L264.465 39.8615L303.342 39.8615L303.342 46.3411Z" fill="#FFE9CF"/>
<path d="M303.342 33.385L264.465 33.385L264.465 26.9054L303.342 26.9054L303.342 33.385Z" fill="#FFE9CF"/>
<path d="M225.582 59.3018L225.582 39.8629L206.143 39.8629L225.582 59.3018Z" fill="#FF900E"/>
<path d="M206.141 59.3025L206.141 39.8637L186.702 39.8637L206.141 59.3025Z" fill="#FF900E"/>
<path d="M225.582 39.8633L225.582 20.4245L206.143 20.4245L225.582 39.8633Z" fill="#FF900E"/>
<path d="M206.141 39.8633L206.141 20.4245L186.702 20.4245L206.141 39.8633Z" fill="#FF900E"/>
<path d="M290.373 20.4299L303.332 20.4299L303.332 7.47073L290.373 7.47073L290.373 20.4299Z" fill="#FF900E"/>
<path d="M264.455 20.429L277.414 20.429L277.414 7.46975L264.455 7.46975L264.455 20.429Z" fill="#FF900E"/>
<path d="M270.937 13.9473L296.855 13.9473L296.855 -11.9711L270.937 -11.9711L270.937 13.9473Z" fill="#FFE9CF"/>
<path d="M245.015 -18.446C255.75 -18.446 264.453 -9.74293 264.453 0.992828C264.453 11.7286 255.75 20.4316 245.015 20.4316C234.279 20.4316 225.576 11.7286 225.576 0.992824C225.576 -9.74294 234.279 -18.446 245.015 -18.446Z" fill="#FFE9CF"/>
<path d="M264.489 0.990138C253.734 -9.76422 236.298 -9.76423 225.544 0.990134C236.298 11.7445 253.734 11.7445 264.489 0.990138Z" fill="#C10000"/>
<path d="M225.582 -18.4477L225.582 20.4299L219.102 20.4299L219.102 -18.4477L225.582 -18.4477Z" fill="#FF900E"/>
<path d="M212.621 -18.4438L212.621 20.4338L206.142 20.4338L206.142 -18.4438L212.621 -18.4438Z" fill="#FF900E"/>
<path d="M199.664 -18.447L199.664 20.4307L193.184 20.4307L193.184 -18.447L199.664 -18.447Z" fill="#FF900E"/>
<rect x="264.242" y="20.5549" width="38.7863" height="25.9698" transform="rotate(90 264.242 20.5549)" fill="#C10000"/>
<rect x="238.27" y="20.5537" width="25.6326" height="12.8162" transform="rotate(90 238.27 20.5537)" fill="#C10000"/>
<rect x="292.559" y="-7.14941" width="16.6227" height="11.0817" transform="rotate(90 292.559 -7.14941)" fill="#FF900E"/>
<rect x="281.477" y="-7.15063" width="11.0818" height="5.54086" transform="rotate(90 281.477 -7.15063)" fill="#FF900E"/>
</g>
<defs>
<clipPath id="clip0_3112_56494">
<rect width="380" height="59" fill="white"/>
</clipPath>
</defs>
</svg>
