<svg width="92" height="802" viewBox="0 0 92 802" fill="none" xmlns="http://www.w3.org/2000/svg">
<g clip-path="url(#clip0_3011_45977)">
<path fill-rule="evenodd" clip-rule="evenodd" d="M-21.0195 571.049H35.4641C35.4641 591.956 24.1052 610.21 7.22227 619.976C-9.66071 610.21 -21.0195 591.956 -21.0195 571.049Z" fill="#C10000"/>
<path fill-rule="evenodd" clip-rule="evenodd" d="M7.22227 571.049V619.976C-9.66071 610.21 -21.0195 591.956 -21.0195 571.049H7.22227Z" fill="#FFE9CF"/>
<path fill-rule="evenodd" clip-rule="evenodd" d="M35.4645 627.533C19.867 627.533 7.22266 640.177 7.22266 655.775C7.22266 671.372 19.867 684.016 35.4645 684.016V669.895C27.6657 669.895 21.3436 663.573 21.3436 655.775C21.3436 647.976 27.6657 641.654 35.4645 641.654V627.533Z" fill="#FF900E"/>
<path fill-rule="evenodd" clip-rule="evenodd" d="M-21.0195 627.533C-5.42206 627.533 7.22227 640.177 7.22227 655.775C7.22227 671.372 -5.42206 684.016 -21.0195 684.016V669.895C-13.2208 669.895 -6.89863 663.573 -6.89863 655.775C-6.89863 647.976 -13.2208 641.654 -21.0195 641.654V627.533Z" fill="#FF900E"/>
<path d="M35.4641 740.499C35.4641 709.304 10.1755 684.016 -21.0195 684.016V740.499H35.4641Z" fill="#C10000"/>
<path d="M16.6362 740.5C16.6362 719.703 -0.222862 702.844 -21.0195 702.844V740.5H16.6362Z" fill="#FF900E"/>
<path d="M35.4688 571.049C66.6638 571.049 91.9524 596.338 91.9524 627.533H35.4688V571.049Z" fill="#FF900E"/>
<path d="M92.0017 655.774L63.7109 627.484L35.4201 655.774L63.7109 684.065L92.0017 655.774Z" fill="#FF900E"/>
<path fill-rule="evenodd" clip-rule="evenodd" d="M35.4688 655.726L63.6616 627.533H63.7106V684.016H63.6616L35.4688 655.823V655.726Z" fill="#FF900E"/>
<path d="M91.9524 684.016H35.4688V740.499H91.9524V684.016Z" fill="white"/>
<path d="M91.9524 684.016H35.4688V740.499H91.9524V684.016Z" fill="#333333"/>
<path d="M63.7109 712.258L91.9527 740.5H63.7109V712.258Z" fill="#FF900E"/>
<path d="M63.7109 684.016L91.9527 712.258H63.7109V684.016Z" fill="#FF900E"/>
<path d="M35.4688 712.258L63.7106 740.5H35.4688V712.258Z" fill="#FF900E"/>
<path d="M35.4688 684.016L63.7106 712.258H35.4688V684.016Z" fill="#FF900E"/>
<path d="M91.9453 740.5V796.983H82.5314V740.5H91.9453Z" fill="#FFE9CF"/>
<path d="M73.1172 740.5V796.983H63.7033V740.5H73.1172Z" fill="#FFE9CF"/>
<path d="M54.2891 740.5V796.983H44.8751V740.5H54.2891Z" fill="#FFE9CF"/>
<path d="M35.4688 759.327V740.499H16.6409V759.327H35.4688Z" fill="#FF900E"/>
<path d="M35.4688 796.983V778.156H16.6409V796.983H35.4688Z" fill="#FF900E"/>
<path d="M26.0547 787.569V749.913H-11.601V787.569H26.0547Z" fill="#FFE9CF"/>
<path d="M-21.0149 825.225C-21.0149 809.627 -8.37057 796.983 7.22695 796.983C22.8245 796.983 35.4688 809.627 35.4688 825.225C35.4688 840.822 22.8245 853.467 7.22695 853.467C-8.37057 853.467 -21.0149 840.822 -21.0149 825.225Z" fill="#FFE9CF"/>
<path d="M7.22691 796.935C-8.39763 812.559 -8.39763 837.892 7.22691 853.516C22.8514 837.892 22.8514 812.559 7.22691 796.935Z" fill="#C10000"/>
<rect x="35.6484" y="797.298" width="56.3509" height="37.7306" fill="#C10000"/>
<rect x="-4.60156" y="756.153" width="24.1504" height="16.1002" fill="#FF900E"/>
<rect x="-4.60156" y="772.253" width="16.1002" height="8.05012" fill="#FF900E"/>
<rect x="35.6484" y="603.201" width="24.1504" height="16.1002" fill="#333333"/>
<rect x="35.6484" y="619.301" width="16.1002" height="8.05012" fill="#333333"/>
<path fill-rule="evenodd" clip-rule="evenodd" d="M-21.0195 232.05H35.4641C35.4641 252.957 24.1052 271.211 7.22227 280.977C-9.66071 271.211 -21.0195 252.957 -21.0195 232.05Z" fill="#C10000"/>
<path fill-rule="evenodd" clip-rule="evenodd" d="M7.22227 232.05V280.977C-9.66071 271.211 -21.0195 252.957 -21.0195 232.05H7.22227Z" fill="#FFE9CF"/>
<path fill-rule="evenodd" clip-rule="evenodd" d="M35.4645 288.533C19.867 288.533 7.22266 301.178 7.22266 316.775C7.22266 332.372 19.867 345.017 35.4645 345.017V330.896C27.6657 330.896 21.3436 324.574 21.3436 316.775C21.3436 308.976 27.6657 302.654 35.4645 302.654V288.533Z" fill="#FF900E"/>
<path fill-rule="evenodd" clip-rule="evenodd" d="M-21.0195 288.533C-5.42206 288.533 7.22227 301.178 7.22227 316.775C7.22227 332.372 -5.42206 345.017 -21.0195 345.017V330.896C-13.2208 330.896 -6.89863 324.574 -6.89863 316.775C-6.89863 308.976 -13.2208 302.654 -21.0195 302.654V288.533Z" fill="#FF900E"/>
<path d="M35.4641 401.5C35.4641 370.305 10.1755 345.017 -21.0195 345.017V401.5H35.4641Z" fill="#C10000"/>
<path d="M16.6362 401.5C16.6362 380.704 -0.222862 363.845 -21.0195 363.845V401.5H16.6362Z" fill="#FF900E"/>
<path d="M35.4688 232.05C66.6638 232.05 91.9524 257.338 91.9524 288.533H35.4688V232.05Z" fill="#FF900E"/>
<path d="M92.0017 316.775L63.7109 288.484L35.4201 316.775L63.7109 345.066L92.0017 316.775Z" fill="#FF900E"/>
<path fill-rule="evenodd" clip-rule="evenodd" d="M35.4688 316.726L63.6616 288.533H63.7106V345.017H63.6616L35.4688 316.824V316.726Z" fill="#FF900E"/>
<path d="M91.9524 345.017H35.4688V401.5H91.9524V345.017Z" fill="white"/>
<path d="M91.9524 345.017H35.4688V401.5H91.9524V345.017Z" fill="#333333"/>
<path d="M63.7109 373.259L91.9527 401.501H63.7109V373.259Z" fill="#FF900E"/>
<path d="M63.7109 345.017L91.9527 373.258H63.7109V345.017Z" fill="#FF900E"/>
<path d="M35.4688 373.259L63.7106 401.501H35.4688V373.259Z" fill="#FF900E"/>
<path d="M35.4688 345.017L63.7106 373.258H35.4688V345.017Z" fill="#FF900E"/>
<path d="M91.9453 401.5V457.984H82.5314V401.5H91.9453Z" fill="#FFE9CF"/>
<path d="M73.1172 401.5V457.984H63.7033V401.5H73.1172Z" fill="#FFE9CF"/>
<path d="M54.2891 401.5V457.984H44.8751V401.5H54.2891Z" fill="#FFE9CF"/>
<path d="M91.9453 514.468H63.7035V542.71L91.9453 514.468Z" fill="#FF900E"/>
<path d="M91.9453 542.709H63.7035V570.951L91.9453 542.709Z" fill="#FF900E"/>
<path d="M63.7031 514.468H35.4613V542.71L63.7031 514.468Z" fill="#FF900E"/>
<path d="M63.7031 542.709H35.4613V570.951L63.7031 542.709Z" fill="#FF900E"/>
<path d="M35.4688 420.328V401.5H16.6409V420.328H35.4688Z" fill="#FF900E"/>
<path d="M35.4688 457.984V439.156H16.6409V457.984H35.4688Z" fill="#FF900E"/>
<path d="M26.0547 448.57V410.914H-11.601V448.57H26.0547Z" fill="#FFE9CF"/>
<path d="M-21.0149 486.225C-21.0149 470.628 -8.37057 457.983 7.22695 457.983C22.8245 457.983 35.4688 470.628 35.4688 486.225C35.4688 501.823 22.8245 514.467 7.22695 514.467C-8.37057 514.467 -21.0149 501.823 -21.0149 486.225Z" fill="#FFE9CF"/>
<path d="M7.22691 457.935C-8.39763 473.56 -8.39763 498.892 7.22691 514.517C22.8514 498.892 22.8514 473.56 7.22691 457.935Z" fill="#C10000"/>
<path d="M-21.0149 514.468H35.4688V523.882H-21.0149V514.468Z" fill="#FF900E"/>
<path d="M-21.0149 533.296H35.4688V542.71H-21.0149V533.296Z" fill="#FF900E"/>
<path d="M-21.0149 552.123H35.4688V561.537H-21.0149V552.123Z" fill="#FF900E"/>
<rect x="35.6484" y="458.299" width="56.3509" height="37.7306" fill="#C10000"/>
<rect x="35.6484" y="496.029" width="37.2406" height="18.6203" fill="#C10000"/>
<rect x="-4.60156" y="417.153" width="24.1504" height="16.1002" fill="#FF900E"/>
<rect x="-4.60156" y="433.254" width="16.1002" height="8.05012" fill="#FF900E"/>
<rect x="35.6484" y="264.201" width="24.1504" height="16.1002" fill="#333333"/>
<rect x="35.6484" y="280.301" width="16.1002" height="8.05012" fill="#333333"/>
<path fill-rule="evenodd" clip-rule="evenodd" d="M35.4645 -50.4678C19.867 -50.4678 7.22266 -37.8234 7.22266 -22.226C7.22266 -6.6285 19.867 6.01583 35.4645 6.01583V-8.10507C27.6657 -8.10507 21.3436 -14.4272 21.3436 -22.226C21.3436 -30.0247 27.6657 -36.3469 35.4645 -36.3469V-50.4678Z" fill="#FF900E"/>
<path fill-rule="evenodd" clip-rule="evenodd" d="M-21.0195 -50.4678C-5.42206 -50.4678 7.22227 -37.8234 7.22227 -22.226C7.22227 -6.6285 -5.42206 6.01583 -21.0195 6.01583V-8.10507C-13.2208 -8.10507 -6.89863 -14.4272 -6.89863 -22.226C-6.89863 -30.0247 -13.2208 -36.3469 -21.0195 -36.3469V-50.4678Z" fill="#FF900E"/>
<path d="M35.4641 62.4997C35.4641 31.3046 10.1755 6.01611 -21.0195 6.01611V62.4997H35.4641Z" fill="#C10000"/>
<path d="M16.6362 62.5005C16.6362 41.7038 -0.222862 24.8447 -21.0195 24.8447V62.5005H16.6362Z" fill="#FF900E"/>
<path d="M92.0017 -22.2253L63.7109 -50.5161L35.4201 -22.2253L63.7109 6.06546L92.0017 -22.2253Z" fill="#FF900E"/>
<path fill-rule="evenodd" clip-rule="evenodd" d="M35.4688 -22.2747L63.6616 -50.4675H63.7106V6.01607H63.6616L35.4688 -22.1768V-22.2747Z" fill="#FF900E"/>
<path d="M91.9524 6.01611H35.4688V62.4997H91.9524V6.01611Z" fill="white"/>
<path d="M91.9524 6.01611H35.4688V62.4997H91.9524V6.01611Z" fill="#333333"/>
<path d="M63.7109 34.2578L91.9527 62.4996H63.7109V34.2578Z" fill="#FF900E"/>
<path d="M63.7109 6.01611L91.9527 34.2579H63.7109V6.01611Z" fill="#FF900E"/>
<path d="M35.4688 34.2578L63.7106 62.4996H35.4688V34.2578Z" fill="#FF900E"/>
<path d="M35.4688 6.01611L63.7106 34.2579H35.4688V6.01611Z" fill="#FF900E"/>
<path d="M91.9453 62.4998V118.983H82.5314V62.4998H91.9453Z" fill="#FFE9CF"/>
<path d="M73.1172 62.4998V118.983H63.7033V62.4998H73.1172Z" fill="#FFE9CF"/>
<path d="M54.2891 62.4998V118.983H44.8751V62.4998H54.2891Z" fill="#FFE9CF"/>
<path d="M91.9453 175.467H63.7035V203.709L91.9453 175.467Z" fill="#FF900E"/>
<path d="M91.9453 203.709H63.7035V231.951L91.9453 203.709Z" fill="#FF900E"/>
<path d="M63.7031 175.467H35.4613V203.709L63.7031 175.467Z" fill="#FF900E"/>
<path d="M63.7031 203.709H35.4613V231.951L63.7031 203.709Z" fill="#FF900E"/>
<path d="M35.4688 81.3274V62.4995H16.6409V81.3274H35.4688Z" fill="#FF900E"/>
<path d="M35.4688 118.984V100.156H16.6409V118.984H35.4688Z" fill="#FF900E"/>
<path d="M26.0547 109.57V71.9141H-11.601V109.57H26.0547Z" fill="#FFE9CF"/>
<path d="M-21.0149 147.225C-21.0149 131.628 -8.37057 118.983 7.22695 118.983C22.8245 118.983 35.4688 131.628 35.4688 147.225C35.4688 162.823 22.8245 175.467 7.22695 175.467C-8.37057 175.467 -21.0149 162.823 -21.0149 147.225Z" fill="#FFE9CF"/>
<path d="M7.22691 118.935C-8.39763 134.559 -8.39763 159.892 7.22691 175.516C22.8514 159.892 22.8514 134.559 7.22691 118.935Z" fill="#C10000"/>
<path d="M-21.0149 175.467H35.4688V184.881H-21.0149V175.467Z" fill="#FF900E"/>
<path d="M-21.0149 194.295H35.4688V203.709H-21.0149V194.295Z" fill="#FF900E"/>
<path d="M-21.0149 213.122H35.4688V222.536H-21.0149V213.122Z" fill="#FF900E"/>
<rect x="35.6484" y="119.298" width="56.3509" height="37.7306" fill="#C10000"/>
<rect x="35.6484" y="157.028" width="37.2406" height="18.6203" fill="#C10000"/>
<rect x="-4.60156" y="78.1523" width="24.1504" height="16.1002" fill="#FF900E"/>
<rect x="-4.60156" y="94.2529" width="16.1002" height="8.05012" fill="#FF900E"/>
</g>
<defs>
<clipPath id="clip0_3011_45977">
<path d="M0 40C0 17.9086 17.9086 0 40 0H92V802H40C17.9086 802 0 784.091 0 762V40Z" fill="white"/>
</clipPath>
</defs>
</svg>
