<svg width="168" height="28" viewBox="0 0 168 28" fill="none" xmlns="http://www.w3.org/2000/svg">
<path d="M27.9572 14.0125C27.9572 6.28752 21.7058 0.0251465 13.9942 0.0251465C6.28269 0.0251465 0.03125 6.28752 0.03125 14.0125C0.03125 21.7376 6.28269 27.9999 13.9942 27.9999C21.7058 27.9999 27.9572 21.7376 27.9572 14.0125Z" fill="#FF900E"/>
<path d="M0 14.0116C7.72493 6.27316 20.2495 6.27316 27.9744 14.0116C20.2495 21.75 7.72493 21.75 0 14.0116Z" fill="#FFE9CF"/>
<path d="M19.7999 14.0134C19.7999 10.7946 17.1951 8.1853 13.982 8.1853C10.7688 8.1853 8.16406 10.7946 8.16406 14.0134C8.16406 17.2321 10.7688 19.8415 13.982 19.8415C17.1951 19.8415 19.7999 17.2321 19.7999 14.0134Z" fill="#FF900E"/>
<path d="M27.9727 27.9999C27.9727 12.5499 40.4972 0.0251465 55.9471 0.0251465V27.9999H27.9727Z" fill="#C10000"/>
<path d="M83.9286 13.9874L69.9414 0L55.9542 13.9874L69.9414 27.9747L83.9286 13.9874Z" fill="#333333"/>
<path d="M111.898 9.3248V0H102.574V9.3248H111.898Z" fill="#FF900E"/>
<path d="M111.898 27.9747V18.6499H102.574V27.9747H111.898Z" fill="#FF900E"/>
<path d="M93.25 9.3248V0H83.9256V9.3248H93.25Z" fill="#FF900E"/>
<path d="M93.25 27.9747V18.6499H83.9256V27.9747H93.25Z" fill="#FF900E"/>
<path d="M107.234 23.311V4.66138H88.5856V23.311H107.234Z" fill="#FFE9CF"/>
<rect x="92.0547" y="7.75195" width="11.9603" height="7.9739" fill="#FF900E"/>
<rect x="92.0547" y="15.7258" width="7.97354" height="3.98695" fill="#FF900E"/>
<path fill-rule="evenodd" clip-rule="evenodd" d="M111.898 0.0251465H139.873C139.873 11.979 134.247 22.4159 125.886 27.9999C117.524 22.4159 111.898 11.979 111.898 0.0251465Z" fill="#C10000"/>
<path fill-rule="evenodd" clip-rule="evenodd" d="M125.886 0.0251465V27.9999C117.524 22.4159 111.898 11.979 111.898 0.0251465H125.886Z" fill="#FFE9CF"/>
<path d="M139.871 0.0251465C155.321 0.0251465 167.845 12.5499 167.845 27.9999H139.871V0.0251465Z" fill="#FF900E"/>
<rect x="139.961" y="15.8523" width="13.0547" height="8.39244" fill="#333333"/>
<rect x="139.961" y="24.2451" width="8.39232" height="3.72997" fill="#333333"/>
</svg>
