<svg width="91" height="32" viewBox="0 0 91 32" fill="none" xmlns="http://www.w3.org/2000/svg">
<g clip-path="url(#clip0_2733_59544)">
<path d="M22.4687 18.6463L22.1232 20.8995C22.0309 21.5041 21.7018 22.0834 21.2074 22.5108L18.5402 24.8235C18.0473 25.2509 17.4307 25.4907 16.8261 25.4907H7.51562L11.2714 1.04395C17.5871 1.0782 17.733 1.04395 18.0815 1.04395H20.567C21.1791 1.04395 21.7286 1.28966 22.089 1.72749L24.0502 4.0983C24.4032 4.52421 24.5491 5.09756 24.4568 5.69473L23.7271 10.4423C23.6348 11.0395 23.3131 11.6128 22.8306 12.0387L21.6288 13.099C21.5216 13.1944 21.4978 13.3448 21.5767 13.4401L22.4538 14.5004C22.8068 14.9263 22.9527 15.4996 22.8604 16.0968L22.4687 18.6493V18.6463Z" fill="#5C5C5C"/>
<path d="M22.8867 25.4907L26.641 1.04395H32.3342L28.5785 25.4907H22.8867Z" fill="#5C5C5C"/>
<path d="M40.59 25.4907H30.6719L34.4276 1.04395H40.1551L36.9355 21.9985H41.1276L40.59 25.4907Z" fill="#5C5C5C"/>
<path d="M57.4507 18.5063L57.0828 20.8995C56.9905 21.5041 56.6614 22.0834 56.167 22.5108L53.4998 24.8235C53.0069 25.2509 52.3904 25.4907 51.7857 25.4907H41.9883L45.7441 1.04395H55.5415C56.1461 1.04395 56.6897 1.28371 57.0516 1.71111L59.0084 4.02384C59.3703 4.45124 59.5207 5.03054 59.4283 5.63516L59.0605 8.02831L58.7567 10.006L57.7545 16.5272L57.4507 18.5049V18.5063Z" fill="#5C5C5C"/>
<path d="M70.119 11.522L69.5829 15.0142H65.3923L64.3186 21.9985H70.2561L69.7199 25.4907H58.125L61.8808 1.04395H73.4757L72.9396 4.53613H67.0021L65.9284 11.522H70.119Z" fill="#5C5C5C"/>
<path d="M88.415 5.63665L88.0695 7.88981L87.6882 10.3708C87.5959 10.968 87.2742 11.5413 86.7917 11.9673L84.3703 14.1013L85.3651 25.4922H80.1529L79.3204 15.0157H78.8379L77.2281 25.4922H71.4648L75.2206 1.04395C81.1164 1.07671 81.6957 1.04841 82.0307 1.04395H84.5281C85.1327 1.04395 85.6763 1.28371 86.0382 1.71111L87.995 4.02384C88.3569 4.45124 88.5073 5.03054 88.415 5.63516V5.63665Z" fill="#5C5C5C"/>
<path d="M48.1055 22.4885H51.2402L54.095 3.90771H50.9603L48.1055 22.4885Z" fill="#F4F5F7"/>
<path d="M15.3555 11.522H17.8707L19.0398 3.90771H16.526L15.3555 11.522Z" fill="#F4F5F7"/>
<path d="M13.6602 22.5585H16.1739L17.3325 15.0142H14.8188L13.6602 22.5585Z" fill="#F4F5F7"/>
<path d="M88.6895 3.43569L86.7327 1.12296C86.1995 0.493029 85.3969 0.132641 84.5272 0.132641H81.8972C81.6575 0.140087 81.2122 0.149023 79.7364 0.149023C78.7565 0.149023 77.3299 0.144555 75.2241 0.132641L74.4378 0.128174V0.132641H61.0961L58.7535 2.24284H58.6925L57.7453 1.12296C57.2122 0.493029 56.4095 0.132641 55.5398 0.132641H44.9605L40.6389 3.89437L41.0558 1.18253L41.2167 0.132641H33.6456L33.3522 0.408144L33.3939 0.132641H25.857L23.6203 2.14753L22.7923 1.1453C22.2591 0.500475 21.449 0.131152 20.5674 0.131152H18.0819C18.0164 0.131152 17.9583 0.131152 17.8704 0.134131C17.6351 0.138598 17.1988 0.147533 15.7662 0.147533C14.7967 0.147533 13.379 0.144555 11.2762 0.132641L10.4899 0.128174L4.03574 5.7246L3.9166 6.50196L0.160834 30.9502L0 32.0001H10.3708C11.1988 32.0001 12.0194 31.6844 12.6821 31.1096L15.3492 28.7968L15.9375 28.286L15.5279 30.9487L15.3671 31.9986H22.9039L23.1973 31.7231L23.1556 31.9986H45.3299C46.1579 31.9986 46.9784 31.6829 47.6411 31.1081L50.3083 28.7953L50.7312 28.429L50.8369 28.3367L51.2182 28.0061L50.7669 30.9472L50.6061 31.9971H71.5532L72.7312 30.8966H72.7669L72.7878 31.1587L72.8548 31.9986H79.9032L86.3589 26.4022L86.2725 25.4119L85.3179 14.4796L87.3939 12.6494C88.0402 12.079 88.4646 11.3195 88.5897 10.5079L88.971 8.02691L89.3165 5.77374C89.449 4.91298 89.2211 4.05967 88.691 3.4342L88.6895 3.43569ZM22.4706 18.6464L22.1251 20.8996C22.0328 21.5042 21.7036 22.0835 21.2092 22.5109L18.5421 24.8236C18.0491 25.251 17.4326 25.4908 16.828 25.4908H7.5175L11.2733 1.04403C17.589 1.07829 17.7349 1.04403 18.0834 1.04403H20.5689C21.1809 1.04403 21.7305 1.28975 22.0908 1.72758L24.0521 4.09839C24.4051 4.5243 24.551 5.09765 24.4587 5.69482L23.729 10.4424C23.6366 11.0396 23.315 11.6129 22.8325 12.0388L21.6307 13.0991C21.5235 13.1944 21.4996 13.3449 21.5786 13.4402L22.4557 14.5005C22.8086 14.9264 22.9546 15.4997 22.8622 16.0969L22.4706 18.6494V18.6464ZM22.8861 25.4923L26.6404 1.04403H32.3336L28.5778 25.4908H22.8846L22.8861 25.4923ZM40.5927 25.4923H30.6746L34.4289 1.04403H40.1564L36.9367 21.9986H41.1273L40.5912 25.4908L40.5927 25.4923ZM57.452 18.5079L57.0841 20.9011C56.9918 21.5057 56.6627 22.085 56.1683 22.5124L53.5011 24.8251C53.0082 25.2525 52.3917 25.4923 51.787 25.4923H41.9896L45.7439 1.04403H55.5413C56.1459 1.04403 56.6895 1.2838 57.0514 1.7112L59.0082 4.02393C59.3701 4.45133 59.5205 5.03063 59.4281 5.63525L59.0603 8.0284L58.7565 10.0061L57.7543 16.5273L57.4505 18.5049L57.452 18.5079ZM70.1191 11.5236L69.583 15.0157H65.3924L64.3187 22.0001H70.2561L69.72 25.4923H58.1251L61.8794 1.04403H73.4743L72.9382 4.53622H67.0007L65.927 11.5206H70.1176L70.1191 11.5236ZM88.4155 5.63823L88.07 7.89139L87.6888 10.3724C87.5964 10.9696 87.2748 11.5429 86.7923 11.9688L84.3708 14.1029L85.3656 25.4938H80.1534L79.3209 15.0172H78.8384L77.2286 25.4938H71.4654L75.2197 1.04403C81.1154 1.0768 81.6947 1.0485 82.0298 1.04403H84.5272C85.1318 1.04403 85.6754 1.2838 86.0372 1.7112L87.994 4.02393C88.3559 4.45133 88.5063 5.03063 88.414 5.63525L88.4155 5.63823Z" fill="#F4F5F7"/>
<path d="M79.3711 11.522H81.8864L83.0554 3.90771H80.5401L79.3711 11.522Z" fill="#F4F5F7"/>
<path d="M88.3842 0.628468C88.4408 0.501886 88.5167 0.391685 88.612 0.297865C88.7073 0.204045 88.8205 0.131074 88.9471 0.0789521C89.0752 0.0253408 89.2107 -0.00146484 89.3536 -0.00146484C89.4966 -0.00146484 89.6321 0.0253408 89.7587 0.0789521C89.8853 0.132563 89.997 0.205534 90.0908 0.297865C90.1861 0.391685 90.2621 0.500397 90.3172 0.628468C90.3737 0.75505 90.4006 0.892057 90.4006 1.03949C90.4006 1.18692 90.3723 1.32988 90.3172 1.45795C90.2606 1.58603 90.1861 1.69623 90.0908 1.79005C89.9955 1.88387 89.8853 1.95684 89.7587 2.00896C89.6321 2.06108 89.4966 2.08789 89.3536 2.08789C89.2107 2.08789 89.0752 2.06108 88.9471 2.00896C88.819 1.95684 88.7073 1.88387 88.612 1.79005C88.5167 1.69623 88.4408 1.58454 88.3842 1.45795C88.3276 1.32988 88.3008 1.19139 88.3008 1.03949C88.3008 0.88759 88.3291 0.75505 88.3842 0.628468ZM88.5554 1.39541C88.5986 1.50412 88.6597 1.59943 88.7371 1.67985C88.8146 1.76026 88.9054 1.82281 89.0111 1.86897C89.1169 1.91514 89.23 1.93748 89.3536 1.93748C89.4773 1.93748 89.5875 1.91514 89.6917 1.86897C89.7959 1.82281 89.8868 1.76026 89.9642 1.67985C90.0417 1.59943 90.1027 1.50561 90.1459 1.39541C90.1891 1.2867 90.2114 1.16756 90.2114 1.03949C90.2114 0.911417 90.1891 0.798237 90.1459 0.689526C90.1027 0.580814 90.0417 0.488483 89.9642 0.408066C89.8868 0.329138 89.7959 0.266592 89.6917 0.220426C89.5875 0.174261 89.4743 0.151923 89.3536 0.151923C89.233 0.151923 89.1169 0.174261 89.0111 0.220426C88.9054 0.266592 88.8146 0.329138 88.7371 0.408066C88.6597 0.486994 88.5986 0.580814 88.5554 0.689526C88.5123 0.798237 88.4899 0.914395 88.4899 1.03949C88.4899 1.16458 88.5123 1.2867 88.5554 1.39541ZM89.4177 0.431893C89.5636 0.431893 89.6708 0.460188 89.7408 0.518267C89.8108 0.576346 89.8451 0.664209 89.8451 0.780367C89.8451 0.890568 89.8138 0.970985 89.7528 1.02162C89.6917 1.07225 89.6143 1.10352 89.5234 1.11246L89.8734 1.65155H89.6694L89.3373 1.12586H89.1362V1.65155H88.9456V0.433383H89.4177V0.431893ZM89.3343 0.973963C89.3775 0.973963 89.4177 0.973963 89.4564 0.969496C89.4951 0.966517 89.5279 0.959071 89.5592 0.945668C89.5889 0.932266 89.6128 0.912906 89.6306 0.8861C89.6485 0.859295 89.6574 0.822065 89.6574 0.772921C89.6574 0.731223 89.65 0.69995 89.6336 0.674634C89.6172 0.650806 89.5979 0.631447 89.5726 0.618044C89.5472 0.604641 89.519 0.595706 89.4862 0.591238C89.4534 0.58677 89.4222 0.583792 89.3894 0.583792H89.1377V0.972474H89.3358L89.3343 0.973963Z" fill="#F4F5F7"/>
</g>
<defs>
<clipPath id="clip0_2733_59544">
<rect width="90.4036" height="32" fill="white"/>
</clipPath>
</defs>
</svg>
