<svg width="98" height="32" viewBox="0 0 98 32" fill="none" xmlns="http://www.w3.org/2000/svg">
<path d="M45.9423 16.341C45.5924 15.9842 45.2133 15.7395 44.8049 15.6085C45.1254 15.4793 45.4322 15.2484 45.7234 14.9209C46.0147 14.5935 46.2439 14.204 46.4128 13.7525C46.5799 13.301 46.6644 12.8271 46.6644 12.3308C46.6644 11.5587 46.461 10.8728 46.0526 10.2748C45.6441 9.67855 45.0772 9.21152 44.3482 8.8772C43.6209 8.54287 42.7748 8.37398 41.8132 8.37398H37.0499C36.9034 8.37398 36.7862 8.49289 36.7862 8.63765V23.4101C36.7862 23.5566 36.9051 23.6738 37.0499 23.6738H42.2285C43.1022 23.6738 43.9122 23.4773 44.6532 23.0827C45.4149 22.6811 46.0181 22.1331 46.4645 21.442C46.8832 20.7958 47.1021 20.0461 47.1021 19.2793C47.1021 18.683 46.997 18.1332 46.7867 17.63C46.5747 17.1285 46.2938 16.6977 45.944 16.341H45.9423ZM40.4776 11.4329H41.4409C41.7597 11.4329 42.0338 11.5001 42.2595 11.6311C42.4853 11.7621 42.6593 11.9413 42.7851 12.167C42.9092 12.3928 42.9695 12.6444 42.9695 12.9201C42.9695 13.2269 42.9075 13.4923 42.7851 13.718C42.661 13.9438 42.4784 14.1265 42.2388 14.2643C41.9993 14.4022 41.7253 14.4729 41.4202 14.4729H40.4793V11.4329H40.4776ZM43.1556 19.8497C43.0316 20.0841 42.8575 20.2684 42.63 20.4063C42.4043 20.5442 42.1596 20.6148 41.8976 20.6148H40.4759V17.5111H41.9407C42.2026 17.5111 42.4405 17.58 42.6507 17.7179C42.8627 17.8575 43.0298 18.0471 43.1539 18.2866C43.278 18.5279 43.34 18.7881 43.34 19.0621C43.34 19.3551 43.2763 19.617 43.1539 19.8497H43.1556Z" fill="#F4F5F7"/>
<path d="M52.0618 12.8977H49.0701C48.9237 12.8977 48.8065 13.0149 48.8065 13.1614V23.4084C48.8065 23.5549 48.9254 23.6738 49.0701 23.6738H52.0618C52.2083 23.6738 52.3255 23.5549 52.3255 23.4084V13.1614C52.3255 13.0149 52.2066 12.8977 52.0618 12.8977Z" fill="#F4F5F7"/>
<path d="M63.5789 20.6579H58.7501L63.6995 15.7516C63.7495 15.7016 63.7788 15.6344 63.7788 15.5637V13.1614C63.7788 13.0149 63.6599 12.896 63.5134 12.896H54.621C54.4745 12.896 54.3573 13.0132 54.3573 13.1614V15.6706C54.3573 15.8171 54.4762 15.936 54.621 15.936H59.2102L54.2608 20.8423C54.2108 20.8923 54.1815 20.9595 54.1815 21.0302V23.4101C54.1815 23.5566 54.3005 23.6755 54.4469 23.6755H63.5789C63.7254 23.6755 63.8443 23.5566 63.8443 23.4101V20.9216C63.8443 20.7751 63.7254 20.6579 63.5789 20.6579Z" fill="#F4F5F7"/>
<path d="M74.3101 13.1821C73.7121 12.7892 73.0211 12.5927 72.2335 12.5927C71.3891 12.5927 70.6377 12.8185 69.9828 13.27C69.6709 13.4854 69.3952 13.7387 69.1522 14.0248V13.1631C69.1522 13.0166 69.0333 12.8977 68.8868 12.8977H66.0278C65.8813 12.8977 65.7641 13.0166 65.7641 13.1631V23.4118C65.7641 23.5583 65.8813 23.6755 66.0278 23.6755H68.9971C69.1436 23.6755 69.2625 23.5583 69.2625 23.4118V17.8403C69.2625 17.2423 69.4296 16.758 69.7657 16.3875C70.1 16.0153 70.5308 15.8291 71.0547 15.8291C71.5493 15.8291 71.944 15.9997 72.2352 16.3427C72.5265 16.6856 72.6729 17.1182 72.6729 17.6438V23.4118C72.6729 23.5583 72.7919 23.6772 72.9383 23.6772H75.9076C76.0541 23.6772 76.173 23.56 76.173 23.4118V17.5783C76.173 16.5581 76.0128 15.6689 75.6922 14.9106C75.3717 14.1541 74.9116 13.5767 74.3153 13.1838L74.3101 13.1821Z" fill="#F4F5F7"/>
<path d="M86.1132 13.2907C85.2981 12.8254 84.3882 12.591 83.3835 12.591C82.4063 12.591 81.4378 12.8495 80.5951 13.3441C79.6938 13.8731 78.9769 14.5866 78.4409 15.4879C77.9171 16.3703 77.6534 17.3336 77.6534 18.3831C77.6534 19.4326 77.8981 20.4046 78.3858 21.2576C78.8735 22.1107 79.5404 22.7811 80.3866 23.2688C81.231 23.7582 82.1789 24.0012 83.2284 24.0012C84.1762 24.0012 85.0293 23.8254 85.7858 23.4773C86.5441 23.1275 87.1593 22.6639 87.6332 22.09C88.0296 21.6092 88.3208 21.0784 88.5087 20.4994C88.5638 20.3305 88.4277 20.1547 88.2502 20.1547H85.3326C85.2361 20.1547 85.1533 20.2116 85.1034 20.296C84.9776 20.5114 84.7828 20.6924 84.5192 20.844C84.1986 21.025 83.8333 21.1163 83.4266 21.1163C82.975 21.1163 82.5632 21.0078 82.1909 20.7889C81.8187 20.57 81.524 20.2495 81.3051 19.8273C81.2086 19.6412 81.1414 19.4326 81.088 19.2155H88.4363C88.5707 19.2155 88.6862 19.119 88.7017 18.9846C88.7413 18.6399 88.7603 18.2642 88.7603 17.8592C88.7603 16.8976 88.5242 16.0135 88.0503 15.2036C87.5764 14.3953 86.9318 13.7577 86.1167 13.2907H86.1132ZM81.2483 16.8528C81.2621 16.8183 81.2672 16.777 81.2827 16.7442C81.4878 16.2927 81.7722 15.9498 82.1358 15.7171C82.4994 15.4845 82.9078 15.3673 83.3594 15.3673C83.6937 15.3673 83.997 15.4328 84.2658 15.5637C84.5347 15.6947 84.7501 15.8739 84.9104 16.0997C85.0706 16.3255 85.174 16.5771 85.2171 16.8545H81.2483V16.8528Z" fill="#F4F5F7"/>
<path d="M96.343 12.8977C95.5261 12.8977 94.823 13.1786 94.2336 13.7405C94.113 13.8542 94.0027 13.9817 93.8941 14.111V13.1631C93.8941 13.0166 93.7769 12.8995 93.6304 12.8995H90.6611C90.5147 12.8995 90.3957 13.0166 90.3957 13.1631V23.4101C90.3957 23.5566 90.5129 23.6755 90.6611 23.6755H93.6304C93.7769 23.6755 93.8941 23.5566 93.8941 23.4101V18.2539C93.8941 17.5404 94.0992 16.9752 94.5059 16.5598C94.9143 16.1445 95.4675 15.9377 96.1672 15.9377H97.1478C97.2943 15.9377 97.4114 15.8188 97.4114 15.6723V12.8977H96.3412H96.343Z" fill="#F4F5F7"/>
<path d="M50.566 8.00002C49.5768 8.00002 48.7737 8.80309 48.7737 9.79229C48.7737 10.7815 49.5768 11.5846 50.566 11.5846C51.5552 11.5846 52.3583 10.7815 52.3583 9.79229C52.3583 8.80309 51.5552 8.00002 50.566 8.00002Z" fill="#F4F5F7"/>
<path d="M21.2452 17.6834C20.6696 17.7334 20.2697 18.5227 20.3507 19.4447C20.4317 20.3667 20.9625 21.0732 21.5381 21.0233C22.1137 20.9733 22.5135 20.184 22.4325 19.262C22.3515 18.34 21.8207 17.6317 21.2452 17.6834Z" fill="#F4F5F7"/>
<path d="M28.4177 26.4363C26.167 25.6573 23.7509 24.4441 22.3033 22.9241C22.2292 22.8466 22.1189 22.8207 22.0189 22.8535C21.9173 22.8862 21.8121 22.9086 21.7036 22.9189C20.4765 23.0258 19.3409 21.5179 19.1685 19.5481C18.9962 17.58 19.851 15.8963 21.0797 15.7895C22.3067 15.6827 23.4424 17.1906 23.6147 19.1603C23.6234 19.2603 23.6302 19.3602 23.6337 19.4602C23.6423 19.7135 23.9663 19.8169 24.1197 19.6153C25.6776 17.5697 26.6064 15.0174 26.6116 12.248C26.6237 5.54944 21.1745 0.0468237 14.4776 0.000293664C7.68939 -0.0462364 2.17127 5.44259 2.17127 12.2205C2.17127 14.9985 3.09843 17.5594 4.66149 19.6101C4.81659 19.8135 5.14058 19.7135 5.1492 19.4585C5.15264 19.3585 5.15954 19.2586 5.16815 19.1586C5.34049 17.1906 6.47444 15.6809 7.70318 15.7878C8.93019 15.8946 9.78669 17.5783 9.61436 19.5464C9.44203 21.5144 8.30807 23.0241 7.07933 22.9172C6.97076 22.9069 6.86564 22.8862 6.76396 22.8517C6.66228 22.819 6.55199 22.8448 6.47961 22.9224C5.03029 24.4441 2.61417 25.6556 0.365215 26.4345C-0.18453 26.6241 -0.0897461 27.4324 0.489295 27.4875C3.56545 27.7822 7.04487 27.5375 9.66778 26.2157C9.3662 26.6413 9.056 27.0412 8.75958 27.3944C7.59978 28.7404 6.19698 30.0656 4.59773 30.9876C4.07039 31.2926 4.37025 32.0957 4.96997 31.9906C8.2736 31.4115 11.9236 29.4745 14.3949 27.0946C16.8662 29.4745 20.5179 31.4115 23.8198 31.9906C24.4195 32.0957 24.7177 31.2926 24.1921 30.9876C22.5928 30.0639 21.1917 28.7404 20.0302 27.3927C19.7338 27.0377 19.4236 26.6396 19.122 26.214C21.7432 27.5358 25.2243 27.7805 28.3005 27.4858C28.8795 27.4306 28.9726 26.6241 28.4246 26.4328L28.4177 26.4363Z" fill="#F4F5F7"/>
<path d="M7.24477 21.0233C7.82037 21.0732 8.35115 20.3667 8.43215 19.4447C8.51315 18.5227 8.11161 17.7334 7.53774 17.6834C6.96214 17.6335 6.43136 18.34 6.35036 19.262C6.26936 20.184 6.6709 20.9733 7.24477 21.0233Z" fill="#F4F5F7"/>
</svg>
