<svg width="122" height="32" viewBox="0 0 122 32" fill="none" xmlns="http://www.w3.org/2000/svg">
<path d="M20.6644 10.6738H10.332V21.3335H20.6644V10.6738Z" fill="#5C5C5C"/>
<path d="M58.0634 5.34546H47.6133C47.6136 6.19369 47.9014 7.01507 48.4268 7.66722C48.9522 8.31937 49.6821 8.76118 50.4899 8.91607V23.8897H58.0634C63.4298 23.8897 66.9962 20.1558 66.9962 14.595C66.9962 9.03416 63.4298 5.34546 58.0634 5.34546ZM58.1273 20.2566H54.7628V8.98206H58.1273C60.7988 8.98206 62.5685 11.212 62.5685 14.595C62.5685 17.978 60.8189 20.2566 58.1273 20.2566Z" fill="#F4F5F7"/>
<path d="M71.0517 3.74432C70.7349 3.73131 70.4188 3.78573 70.1232 3.90422C69.8276 4.0227 69.5588 4.20271 69.3335 4.43304C69.1082 4.66337 68.9312 4.9391 68.8135 5.24308C68.6958 5.54705 68.64 5.87277 68.6495 6.19998C68.6727 6.83846 68.9347 7.44281 69.3805 7.88605C69.8262 8.3293 70.421 8.57693 71.0399 8.57693C71.6589 8.57693 72.2537 8.3293 72.6994 7.88605C73.1452 7.44281 73.4072 6.83846 73.4304 6.19998C73.4427 5.87409 73.3896 5.5491 73.2744 5.24542C73.1592 4.94174 72.9845 4.66593 72.7611 4.43532C72.5377 4.20471 72.2705 4.02428 71.9764 3.90536C71.6822 3.78645 71.3674 3.73162 71.0517 3.74432Z" fill="#F4F5F7"/>
<path d="M73.0897 10.2324H68.9648V23.8896H73.0897V10.2324Z" fill="#F4F5F7"/>
<path d="M85.4469 11.9139C84.5485 10.6843 83.2128 9.98267 81.4095 9.98267C77.9137 9.98267 75.0977 12.7613 75.0977 16.9988C75.0977 21.2363 77.9137 24.1401 81.4095 24.1401C82.1575 24.1722 82.9025 24.0238 83.5853 23.7066C84.268 23.3895 84.8697 22.9123 85.3426 22.3131V25.9219H78.6136C77.889 25.9219 77.1941 26.219 76.6818 26.7479C76.1694 27.2769 75.8816 27.9942 75.8816 28.7422V29.4022H89.4742V10.2327H85.5175L85.4469 11.9139ZM82.3515 20.4826C80.5582 20.4826 79.3672 19.0933 79.3672 17.0093C79.3672 14.9252 80.5582 13.6019 82.3515 13.6019C84.1448 13.6019 85.3392 14.9912 85.3392 17.037C85.3392 19.0829 84.1583 20.4826 82.3515 20.4826Z" fill="#F4F5F7"/>
<path d="M116.978 10.2324V18.1517C116.989 18.4618 116.94 18.7712 116.833 19.0614C116.726 19.3515 116.564 19.6163 116.355 19.84C116.147 20.0637 115.897 20.2417 115.62 20.3632C115.343 20.4848 115.046 20.5475 114.745 20.5475C114.444 20.5475 114.147 20.4848 113.87 20.3632C113.594 20.2417 113.344 20.0637 113.135 19.84C112.927 19.6163 112.764 19.3515 112.657 19.0614C112.55 18.7712 112.501 18.4618 112.513 18.1517V10.2324H105.484C105.484 11.0849 105.775 11.9103 106.305 12.5638C106.835 13.2173 107.572 13.6572 108.385 13.8065V18.3219C108.385 21.7952 110.935 24.1328 114.743 24.1328C118.552 24.1328 121.106 21.8022 121.106 18.3219V10.2324H116.978Z" fill="#F4F5F7"/>
<path d="M98.687 9.98267C94.3132 9.98267 91.4062 12.8134 91.4062 17.0509C91.4062 21.2884 94.3199 24.1401 98.687 24.1401C102.983 24.1401 105.897 21.3093 105.897 17.0509C105.897 12.7926 102.983 9.98267 98.687 9.98267ZM98.6635 20.4826C96.8668 20.4826 95.6792 19.0933 95.6792 17.0509C95.6792 15.0086 96.8668 13.6158 98.6635 13.6158C100.46 13.6158 101.624 15.0051 101.624 17.0509C101.624 19.0967 100.437 20.4826 98.6635 20.4826Z" fill="#F4F5F7"/>
<path d="M30.9972 0H0C0 2.82898 1.08859 5.54209 3.02629 7.54247C4.96398 9.54286 7.59207 10.6667 10.3324 10.6667H30.9972V21.3021H10.3324C10.3315 24.1342 11.4188 26.8511 13.3558 28.8566C15.2929 30.8622 17.9214 31.9926 20.6648 32H41.3295V10.6667C41.3295 7.83769 40.2409 5.12458 38.3032 3.12419C36.3656 1.12381 33.7375 0 30.9972 0Z" fill="#F4F5F7"/>
</svg>
