<svg width="412" height="83" viewBox="0 0 412 83" fill="none" xmlns="http://www.w3.org/2000/svg">
<path fill-rule="evenodd" clip-rule="evenodd" d="M411.434 0.000137329C365.989 0.000137329 329.148 36.8409 329.148 82.2863C374.593 82.2863 411.434 45.4456 411.434 0.000137329Z" fill="#BD1717"/>
<path d="M246.859 82.2863C246.859 36.8409 283.7 0.000137329 329.145 0.000137329V82.2863H246.859Z" fill="#BD1717"/>
<path d="M274.288 82.2856C274.288 51.9887 298.848 27.4282 329.145 27.4282V82.2856H274.288Z" fill="#FF900E"/>
<path d="M301.716 82.2854C301.716 67.1368 313.996 54.8567 329.145 54.8567V82.2854H301.716Z" fill="#FFF4E7"/>
<path d="M164.646 41.1432C164.646 18.4205 183.035 0.000137329 205.718 0.000137329C228.401 0.000137329 246.789 18.4205 246.789 41.1432C246.789 63.8659 228.401 82.2863 205.718 82.2863C183.035 82.2863 164.646 63.8659 164.646 41.1432Z" fill="#FF900E"/>
<path d="M246.859 41.1434C224.137 18.3813 187.297 18.3813 164.574 41.1434C187.297 63.9055 224.137 63.9055 246.859 41.1434Z" fill="#FFF4E7"/>
<path d="M188.614 41.1433C188.614 31.6755 196.275 24.0004 205.727 24.0004C215.178 24.0004 222.84 31.6755 222.84 41.1433C222.84 50.6111 215.178 58.2863 205.727 58.2863C196.275 58.2863 188.614 50.6111 188.614 41.1433Z" fill="#151515"/>
<path d="M82.2929 0.000137329L164.578 82.2863H82.2929V0.000137329Z" fill="#BD1717"/>
<path d="M164.578 82.2863L82.2929 0.000137329H164.578V82.2863Z" fill="#FFF4E7"/>
<path d="M0 0C45.4452 0 82.2858 36.8407 82.2858 82.2862H0V0Z" fill="#FF900E"/>
<path d="M35.6602 70.4014H23.7754V82.2862H0.00390625V46.629H35.6602V70.4014Z" fill="#151515"/>
</svg>
