<svg width="124" height="32" viewBox="0 0 124 32" fill="none" xmlns="http://www.w3.org/2000/svg">
<g clip-path="url(#clip0_2733_59528)">
<path d="M50.3647 15.7041H47.2223C46.9052 15.7041 46.6445 15.9648 46.6445 16.2889V18.8181C46.6445 19.1352 46.9052 19.3959 47.2223 19.3959H50.3647C50.6818 19.3959 50.9425 19.1352 50.9425 18.8181V16.2889C50.9425 15.9718 50.6818 15.7182 50.3647 15.7182V15.7041Z" fill="#B5B5B5"/>
<path d="M124.001 15.9012L123.973 31.6758L120.436 31.7744C120.26 31.8026 120.098 31.6899 120.062 31.5137C120.062 31.4856 120.062 31.4503 120.062 31.4221L119.9 25.1659C119.9 25.0813 119.844 24.9968 119.759 24.9756C119.717 24.9686 119.675 24.9756 119.633 24.9897C119.59 25.0109 119.562 25.0391 119.541 25.0743L117.928 27.9417C117.85 28.0897 117.695 28.1883 117.526 28.1883L115.631 28.2095C115.412 28.2165 115.208 28.0967 115.109 27.8995L113.482 24.877C113.46 24.8347 113.425 24.8066 113.383 24.7925C113.298 24.7572 113.2 24.7854 113.143 24.8559C113.115 24.8911 113.101 24.9334 113.101 24.9827L113.15 31.3728C113.186 31.563 113.052 31.7462 112.862 31.7815C112.826 31.7815 112.784 31.7815 112.749 31.7815L109.642 31.8096C109.473 31.8378 109.31 31.7251 109.282 31.549C109.282 31.5137 109.282 31.4856 109.282 31.4503L109.254 16.5001C109.226 16.3169 109.346 16.1478 109.522 16.1196C109.557 16.1196 109.599 16.1196 109.635 16.1196L112.826 16.169C112.995 16.169 113.158 16.2605 113.228 16.4155L116.307 22.4886C116.377 22.6225 116.54 22.6718 116.673 22.6014C116.723 22.5732 116.765 22.5309 116.793 22.4816L119.823 16.5071C119.907 16.338 120.077 16.2253 120.267 16.2042L123.994 15.873L124.001 15.9012Z" fill="#F4F5F7"/>
<path d="M73.5945 15.7322L70.5437 15.697C70.1702 15.697 69.8602 15.9929 69.8532 16.3734L69.832 18.6843C69.832 19.0577 70.128 19.3677 70.5014 19.3747L73.5522 19.4099C73.9257 19.4099 74.2357 19.114 74.2427 18.7336L74.2709 16.4227C74.2709 16.0493 73.975 15.7393 73.5945 15.7322Z" fill="#B5B5B5"/>
<path d="M62.1953 27.1316C62.3292 26.568 61.984 26.0043 61.4203 25.8634C61.378 25.8564 61.3357 25.8423 61.2864 25.8423C58.4328 25.5252 55.1495 25.2293 54.7831 21.7137C54.1349 15.5772 61.2512 15.2038 65.1123 17.1835C65.3307 17.2963 65.4857 17.5076 65.521 17.7472C65.5562 17.9867 65.4787 18.2333 65.3096 18.4094L63.6679 20.0651C63.527 20.2412 63.2663 20.2694 63.0831 20.1356C61.9276 19.424 58.8979 18.7758 58.6231 20.6076C58.4469 21.1501 58.7499 21.7348 59.2995 21.911C59.4193 21.9462 59.5461 21.9673 59.6729 21.9603C61.9346 22.1717 65.0278 22.3337 65.7817 25.1659C67.7475 32.4861 58.9824 32.8595 54.6422 30.5909C54.2969 30.4077 54.1349 30.0061 54.2617 29.6397C54.304 29.52 54.3674 29.4143 54.459 29.3297L56.157 27.6741C56.2979 27.512 56.5375 27.4768 56.7207 27.5895C58.0383 28.3152 61.6176 29.4566 62.1812 27.1527L62.1953 27.1316Z" fill="#F4F5F7"/>
<path d="M79.6112 18.0078C82.8382 14.5485 89.0949 15.7885 89.9897 20.7202C89.9968 20.7766 89.9968 20.8329 89.9827 20.8893C89.9686 20.9457 89.9404 20.995 89.9052 21.0373C89.8277 21.1289 89.722 21.1782 89.6022 21.1711L86.5866 21.157C86.4034 21.157 86.2343 21.0725 86.1216 20.9245L85.2972 19.8677C85.1985 19.7339 85.0576 19.6423 84.8956 19.6071C81.1965 18.6418 82.0279 24.3063 82.19 26.3142C82.3872 28.8646 84.9167 29.2874 86.0018 27.054C86.0863 26.8779 86.2695 26.7581 86.4668 26.7581L89.7361 26.744C90.0461 26.744 90.1588 26.8919 90.0743 27.1949C88.0873 34.1839 78.4204 33.4089 78.2302 25.6027C78.1668 22.855 77.7088 20.0227 79.6112 17.9937V18.0078Z" fill="#F4F5F7"/>
<path d="M105.07 26.2721C105.112 29.3086 102.688 31.8027 99.6515 31.845L98.7849 31.859C95.7481 31.9013 93.2539 29.4777 93.2116 26.4412L93.1412 21.6644C93.0989 18.6279 95.5227 16.1338 98.5594 16.0915L99.4261 16.0774C102.463 16.0352 104.957 18.4588 104.999 21.4953L105.07 26.2721ZM101.11 21.4531C101.11 20.4103 100.265 19.5649 99.2217 19.5649H99.0245C98.2635 19.5649 97.573 20.0228 97.2771 20.7274C97.1784 20.9528 97.1291 21.1994 97.1291 21.4531V26.5328C97.115 27.033 97.3194 27.5191 97.6716 27.8714C98.0239 28.2236 98.5031 28.428 99.0033 28.428H99.2006C100.243 28.428 101.089 27.5825 101.096 26.5398L101.103 21.4601L101.11 21.4531Z" fill="#F4F5F7"/>
<path d="M50.441 20.7837H47.1859C47.0027 20.7837 46.8477 20.9387 46.8477 21.1219L46.8618 31.394C46.8618 31.5772 47.0168 31.7251 47.1999 31.7251H50.4551C50.6383 31.7251 50.7933 31.5701 50.7933 31.387L50.7722 21.1148C50.7722 20.9316 50.6172 20.7837 50.434 20.7837H50.441Z" fill="#F4F5F7"/>
<path d="M73.4813 21.4106H70.36C70.1909 21.4106 70.05 21.5445 70.043 21.7136V31.1191C70.043 31.2882 70.1909 31.4221 70.36 31.4221H73.4813C73.6504 31.4221 73.7914 31.2882 73.7984 31.1191V21.7136C73.7984 21.5445 73.6504 21.4106 73.4813 21.4106Z" fill="#F4F5F7"/>
<path d="M19.6803 0.443837C11.1196 -1.61341 2.50955 3.65652 0.445112 12.2237C-1.61228 20.7838 3.65802 29.4002 12.2187 31.4575C20.7794 33.5147 29.3965 28.2448 31.4539 19.6847C31.7498 18.4659 31.8978 17.2118 31.8978 15.9577C31.9189 8.58122 26.86 2.15586 19.6803 0.450883V0.443837ZM19.3562 24.1655C18.2782 24.6164 17.1156 24.8489 15.946 24.8489C11.028 24.8489 7.04003 20.8613 7.04003 15.9507C7.04003 11.033 11.028 7.04533 15.9389 7.04533C17.1931 7.04533 18.4332 7.30601 19.5746 7.82737C24.0628 9.82825 26.0709 15.0841 24.0699 19.572C23.1398 21.6504 21.4488 23.299 19.3491 24.1655H19.3562Z" fill="#B5B5B5"/>
<path d="M22.9854 0.0985981C21.8792 0.0985981 20.7801 0.211324 19.7021 0.436775C19.688 0.436775 19.6809 0.42973 19.6668 0.42973C12.2969 1.98675 7.01953 8.49666 7.01953 16.0281V15.9366C7.04067 20.8472 11.0216 24.8208 15.9325 24.8278C17.1021 24.8278 18.2647 24.5953 19.3427 24.1444C14.8545 22.1506 12.8394 16.9018 14.8334 12.4139C15.7634 10.3285 17.4544 8.67984 19.5682 7.80622C20.6462 7.35531 21.8017 7.12282 22.9713 7.12282C27.8471 7.16509 31.7998 11.0753 31.8984 15.9436C31.8984 23.4751 26.6211 29.9779 19.2511 31.542C27.8118 33.5993 36.4289 28.3293 38.4863 19.7692C40.5437 11.2091 35.2734 2.59265 26.7127 0.53541C25.4938 0.239505 24.2396 0.0915527 22.9854 0.0915527V0.0985981Z" fill="#F4F5F7"/>
</g>
<defs>
<clipPath id="clip0_2733_59528">
<rect width="124" height="32" fill="white"/>
</clipPath>
</defs>
</svg>
