<svg width="100" height="24" viewBox="0 0 100 24" fill="none" xmlns="http://www.w3.org/2000/svg">
<path d="M26.2305 2.89991H33.3676C34.1966 2.89991 35.0257 2.96236 35.8547 3.08726C36.7018 3.19432 37.4588 3.42627 38.1256 3.78313C38.7925 4.12214 39.3332 4.6039 39.7477 5.22839C40.1622 5.85289 40.3695 6.68258 40.3695 7.71746C40.3695 8.78802 40.0631 9.68016 39.4503 10.3939C38.8556 11.0897 38.0626 11.5893 37.0713 11.8927V11.9462C37.7021 12.0354 38.2698 12.2138 38.7745 12.4815C39.2971 12.7313 39.7387 13.0614 40.0992 13.4717C40.4776 13.8643 40.766 14.3282 40.9643 14.8635C41.1625 15.3988 41.2616 15.9697 41.2616 16.5764C41.2616 17.5756 41.0454 18.4142 40.6128 19.0922C40.1803 19.7524 39.6215 20.2877 38.9367 20.6981C38.2518 21.1084 37.4768 21.4028 36.6117 21.5813C35.7646 21.7597 34.9175 21.8489 34.0705 21.8489H26.2305V2.89991ZM30.4478 10.4742H33.5027C33.8272 10.4742 34.1426 10.4385 34.4489 10.3671C34.7734 10.2957 35.0617 10.1798 35.3141 10.0192C35.5664 9.85859 35.7646 9.64447 35.9088 9.37683C36.071 9.10919 36.1521 8.78802 36.1521 8.41332C36.1521 8.02078 36.062 7.69961 35.8818 7.44981C35.7196 7.18217 35.5033 6.97698 35.2329 6.83424C34.9626 6.6915 34.6562 6.59336 34.3138 6.53983C33.9713 6.46846 33.6379 6.43278 33.3135 6.43278H30.4478V10.4742ZM30.4478 18.3161H34.2327C34.5571 18.3161 34.8815 18.2804 35.2059 18.209C35.5484 18.1376 35.8547 18.0127 36.1251 17.8343C36.3954 17.6559 36.6117 17.4239 36.7739 17.1384C36.9541 16.8529 37.0443 16.505 37.0443 16.0946C37.0443 15.6486 36.9271 15.2917 36.6928 15.0241C36.4765 14.7386 36.1972 14.5245 35.8547 14.3817C35.5123 14.239 35.1428 14.1408 34.7463 14.0873C34.3498 14.0338 33.9804 14.007 33.6379 14.007H30.4478V18.3161Z" fill="white"/>
<path d="M43.247 8.84155H47.3022V10.9292H47.3562C47.7888 10.1262 48.3024 9.5285 48.8972 9.13596C49.4919 8.72557 50.2399 8.52038 51.141 8.52038C51.3753 8.52038 51.6096 8.5293 51.8439 8.54714C52.0782 8.56499 52.2945 8.60067 52.4928 8.6542V12.3209C52.2044 12.2317 51.916 12.1692 51.6277 12.1335C51.3573 12.08 51.069 12.0532 50.7626 12.0532C49.9876 12.0532 49.3748 12.1603 48.9242 12.3744C48.4736 12.5885 48.1222 12.8919 47.8699 13.2844C47.6356 13.6591 47.4824 14.1141 47.4103 14.6494C47.3382 15.1846 47.3022 15.7735 47.3022 16.4158V21.8489H43.247V8.84155Z" fill="white"/>
<path d="M54.3102 8.84155H58.3654V21.8489H54.3102V8.84155ZM53.9858 4.74664C53.9858 4.1043 54.2111 3.5601 54.6617 3.11403C55.1303 2.65011 55.689 2.41816 56.3378 2.41816C56.9866 2.41816 57.5363 2.65011 57.9869 3.11403C58.4555 3.5601 58.6898 4.1043 58.6898 4.74664C58.6898 5.38898 58.4555 5.9421 57.9869 6.40601C57.5363 6.85208 56.9866 7.07512 56.3378 7.07512C55.689 7.07512 55.1303 6.85208 54.6617 6.40601C54.2111 5.9421 53.9858 5.38898 53.9858 4.74664Z" fill="white"/>
<path d="M70.1731 13.0435C69.9749 12.758 69.6955 12.5261 69.335 12.3477C68.9746 12.1514 68.5871 12.0532 68.1726 12.0532C67.1452 12.0532 66.3432 12.3566 65.7665 12.9632C65.2078 13.5699 64.9284 14.3639 64.9284 15.3452C64.9284 16.3266 65.2078 17.1206 65.7665 17.7272C66.3432 18.3339 67.1452 18.6372 68.1726 18.6372C68.6231 18.6372 69.0106 18.5391 69.335 18.3428C69.6595 18.1465 69.9388 17.9146 70.1731 17.6469L72.8495 20.4304C72.2187 21.0728 71.4708 21.5277 70.6057 21.7954C69.7586 22.0452 68.9475 22.1701 68.1726 22.1701C67.1633 22.1701 66.208 22.0095 65.3069 21.6883C64.4238 21.3672 63.6488 20.9122 62.9819 20.3234C62.3331 19.7167 61.8195 18.9941 61.441 18.1555C61.0625 17.3169 60.8732 16.3801 60.8732 15.3452C60.8732 14.3104 61.0625 13.3736 61.441 12.535C61.8195 11.6964 62.3331 10.9827 62.9819 10.3939C63.6488 9.78722 64.4238 9.3233 65.3069 9.00214C66.208 8.68097 67.1633 8.52038 68.1726 8.52038C68.9475 8.52038 69.7586 8.6542 70.6057 8.92184C71.4708 9.17164 72.2187 9.61771 72.8495 10.26L70.1731 13.0435Z" fill="white"/>
<path d="M74.3208 1.61523H78.376V13.9803L82.8637 8.84155H87.838L82.6204 14.7029L87.9732 21.8489H82.8637L78.43 15.2649H78.376V21.8489H74.3208V1.61523Z" fill="white"/>
<path d="M96.7774 12.6688C96.1826 11.9373 95.3986 11.5715 94.4254 11.5715C94.0829 11.5715 93.7495 11.6518 93.4251 11.8124C93.1007 11.973 92.9385 12.2495 92.9385 12.6421C92.9385 12.9632 93.1007 13.2041 93.4251 13.3647C93.7675 13.5074 94.1911 13.6413 94.6957 13.7661C95.2184 13.8732 95.7681 13.9981 96.3448 14.1408C96.9396 14.2657 97.4893 14.4709 97.9939 14.7564C98.5166 15.0419 98.9401 15.4344 99.2645 15.934C99.607 16.4158 99.7782 17.0671 99.7782 17.8878C99.7782 18.7264 99.5889 19.4223 99.2105 19.9754C98.85 20.5107 98.3814 20.9479 97.8047 21.2869C97.2279 21.608 96.5791 21.8311 95.8582 21.956C95.1373 22.0987 94.4254 22.1701 93.7225 22.1701C92.8033 22.1701 91.8751 22.0452 90.9379 21.7954C90.0007 21.5277 89.2077 21.0638 88.5589 20.4037L91.019 17.7005C91.3975 18.1644 91.812 18.5212 92.2626 18.771C92.7312 19.003 93.2719 19.119 93.8847 19.119C94.3533 19.119 94.7768 19.0565 95.1553 18.9316C95.5338 18.7889 95.723 18.5391 95.723 18.1822C95.723 17.8432 95.5518 17.5934 95.2094 17.4328C94.8849 17.2544 94.4614 17.1117 93.9387 17.0046C93.4341 16.8797 92.8844 16.7548 92.2896 16.6299C91.7129 16.4872 91.1632 16.282 90.6405 16.0143C90.1359 15.7467 89.7123 15.372 89.3699 14.8902C89.0455 14.3906 88.8833 13.7305 88.8833 12.9097C88.8833 12.1425 89.0365 11.4823 89.3429 10.9292C89.6673 10.376 90.0818 9.92104 90.5865 9.56418C91.1091 9.20733 91.7039 8.94861 92.3707 8.78802C93.0376 8.60959 93.7134 8.52038 94.3983 8.52038C95.2634 8.52038 96.1375 8.64528 97.0207 8.89508C97.9038 9.14488 98.6517 9.59094 99.2645 10.2333L96.7774 12.6688Z" fill="white"/>
<path fill-rule="evenodd" clip-rule="evenodd" d="M0 9.78467H6.02379V18.1336L10.1735 18.0917L16.3423 11.9868L20.5657 16.243L12.6745 24H0V9.78467Z" fill="white"/>
<path fill-rule="evenodd" clip-rule="evenodd" d="M0 0V5.86858L10.1735 5.91054L14.118 9.78465L18.3168 5.58144L12.7124 0H0Z" fill="white"/>
</svg>
