<svg width="142" height="32" viewBox="0 0 142 32" fill="none" xmlns="http://www.w3.org/2000/svg">
<g clip-path="url(#clip0_2733_59514)">
<path d="M32 0H0V32H21.3348V21.3326H32V0ZM2.63773 2.63773H22.8294V18.6971H12.1664V29.3623H2.63773V2.63773ZM18.6971 29.3623H14.8041V21.365H18.6971V29.3623ZM29.3644 18.6971H25.4671V2.63773H29.3644V18.6971Z" fill="#F4F5F7"/>
<path d="M51.3742 20.893C51.3742 22.9876 50.9477 24.4345 50.0947 25.2337C49.6582 25.6261 48.8443 25.8217 47.6529 25.8202H42.2873V31.6539H39.7539V15.8271H47.6443C48.8343 15.8271 49.6482 16.0234 50.0861 16.4158C50.9434 17.1837 51.3728 18.6761 51.3742 20.893ZM42.2873 23.6509H47.0216C47.6699 23.6509 48.0765 23.5798 48.2414 23.4377C48.6182 23.1376 48.8066 22.2638 48.8066 20.8162C48.8066 19.3679 48.6189 18.4955 48.2414 18.1926C48.0779 18.059 47.6713 17.9914 47.0216 17.99H42.2873V23.6509Z" fill="#F4F5F7"/>
<path d="M53.0814 23.173C53.0951 21.6408 53.3353 20.6348 53.8021 20.1547C54.2383 19.7044 54.9006 19.4792 55.7885 19.4792H59.4093C60.5153 19.4792 61.2794 19.6973 61.7006 20.1335C61.9797 20.4242 62.17 20.7937 62.246 21.1955C62.3554 21.9368 62.3998 22.6868 62.3779 23.4364V31.6309H60.1257V30.144C59.6263 30.6076 59.0856 31.0221 58.5117 31.3823C58.1168 31.5749 57.6828 31.6674 57.246 31.6521H55.4118C54.4098 31.6521 53.7046 31.4397 53.2955 31.0149C52.8303 30.5349 52.5977 29.6492 52.5977 28.3578C52.5977 26.9417 52.8378 25.9887 53.3182 25.4988C53.6526 25.1671 54.0668 24.9339 54.518 24.8234C55.0121 24.6818 55.9139 24.6109 57.223 24.6109C58.4581 24.6109 59.4259 24.7235 60.1257 24.9486V23.5978C60.1257 22.472 60.0383 21.8186 59.8642 21.6373C59.7324 21.5035 59.391 21.4355 58.8348 21.4355H56.4782C55.982 21.4355 55.6712 21.5035 55.5394 21.6373C55.4075 21.7711 55.3213 22.2745 55.2779 23.1475L53.0814 23.173ZM57.6431 29.6555C58.5176 29.6248 59.3707 29.3701 60.1257 28.9142V26.3909H57.0708C55.9648 26.3909 55.31 26.4964 55.1069 26.7074C54.9038 26.9183 54.809 27.3431 54.8229 27.9818C54.8229 28.8229 54.8958 29.3185 55.041 29.4686C55.1584 29.5876 55.4531 29.647 55.9573 29.647L57.6431 29.6555Z" fill="#F4F5F7"/>
<path d="M72.3745 27.2127H74.6079C74.6342 28.0808 74.5747 28.9495 74.4305 29.8054C74.3352 30.2718 74.1133 30.7015 73.7902 31.0454C73.3915 31.4524 72.7426 31.6551 71.8451 31.6537H68.1981C67.0776 31.6537 66.2894 31.4212 65.8334 30.9561C65.4101 30.4983 65.1325 29.9208 65.0371 29.2992C64.8978 28.6002 64.8281 27.3559 64.8281 25.5665C64.8281 23.7771 64.8978 22.5335 65.0371 21.8359C65.132 21.2142 65.4101 20.6365 65.8334 20.179C66.2905 19.7139 67.0787 19.4807 68.1981 19.4792H71.822C72.7201 19.4792 73.3685 19.682 73.7672 20.0876C74.0849 20.4293 74.3014 20.8554 74.393 21.3169C74.534 22.1239 74.5934 22.9435 74.5699 23.7629H72.3305C72.3016 22.5909 72.2116 21.9295 72.0658 21.7784C71.9201 21.6275 71.6489 21.5658 71.2487 21.5658H68.4858C67.9537 21.5658 67.6161 21.6402 67.4683 21.7912C67.3198 21.9422 67.2598 22.2038 67.2137 22.6696C67.1676 23.1354 67.1366 24.0989 67.1366 25.5559C67.1366 27.0128 67.1617 27.9763 67.2137 28.4421C67.2657 28.9079 67.3493 29.2014 67.4683 29.3205C67.5872 29.4396 67.9537 29.546 68.4858 29.546H71.2696C71.7116 29.546 71.9994 29.48 72.1328 29.3333C72.2662 29.1865 72.3745 28.4761 72.3745 27.2127Z" fill="#F4F5F7"/>
<path d="M76.9588 23.173C76.9749 21.6408 77.2305 20.6348 77.7251 20.1547C78.1886 19.7044 78.8927 19.4792 79.8363 19.4792H83.6853C84.861 19.4792 85.6728 19.6973 86.1208 20.1335C86.4176 20.4242 86.6191 20.7937 86.7005 21.1955C86.8168 21.9368 86.864 22.6868 86.8404 23.4364V31.6309H84.4511V30.144C83.92 30.6076 83.3456 31.0221 82.7358 31.3823C82.3157 31.5749 81.8543 31.6674 81.3897 31.6521H79.4425C78.3745 31.6521 77.6243 31.4397 77.1908 31.0149C76.6962 30.5349 76.4492 29.6492 76.4492 28.3578C76.4492 26.9417 76.7043 25.9887 77.2149 25.4988C77.5708 25.1676 78.0112 24.9345 78.4908 24.8234C79.0159 24.6818 79.974 24.6109 81.3656 24.6109C82.6785 24.6109 83.7073 24.7235 84.4511 24.9486V23.5978C84.4511 22.472 84.3584 21.8186 84.1735 21.6373C84.0331 21.5035 83.6698 21.4355 83.0793 21.4355H80.5737C80.0485 21.4355 79.7163 21.5035 79.5759 21.6373C79.436 21.7711 79.3439 22.2745 79.2983 23.1475L76.9588 23.173ZM81.8077 29.6555C82.7385 29.6256 83.6473 29.3708 84.4511 28.9142V26.3909H81.2038C80.0282 26.3909 79.3326 26.4964 79.1167 26.7074C78.9007 26.9183 78.8 27.3431 78.8145 27.9818C78.8145 28.8314 78.8932 29.3178 79.0465 29.4686C79.1713 29.5876 79.4843 29.647 80.0223 29.647L81.8077 29.6555Z" fill="#F4F5F7"/>
<path d="M98.4692 28.1139C98.4692 29.6328 98.2307 30.6326 97.7533 31.1134C97.397 31.4722 96.7952 31.6523 95.948 31.6538H91.3177C90.3805 31.6538 89.7407 31.4807 89.3983 31.1347C89.1218 30.8456 88.9321 30.4824 88.8534 30.088C88.7296 29.3389 88.6733 28.5798 88.6851 27.8204H90.8274C90.8569 28.8436 90.9309 29.4137 91.0504 29.5349C91.1704 29.6562 91.4062 29.6924 91.808 29.6924H95.3334C95.7353 29.6924 95.9941 29.6328 96.1141 29.5116C96.2342 29.3903 96.3247 28.9563 96.3247 28.2501C96.3247 27.5438 96.2508 27.1588 96.1013 27.0099C95.8843 26.8427 95.6169 26.7549 95.3436 26.761L91.2609 26.3355C90.3688 26.2292 89.7729 26.027 89.4766 25.725C89.2258 25.4599 89.0554 25.1277 88.9863 24.7677C88.8796 24.1612 88.8346 23.5454 88.8512 22.9297C88.8512 21.5016 89.0967 20.5394 89.588 20.043C89.9604 19.6686 90.5622 19.4792 91.396 19.4792H95.7899C96.6527 19.4792 97.263 19.6537 97.5979 19.9983C97.8685 20.287 98.0539 20.6467 98.1321 21.0364C98.2624 21.7578 98.3224 22.4902 98.3111 23.2233H96.1688C96.1393 22.2915 96.0579 21.7576 95.9244 21.6214C95.8049 21.5023 95.5585 21.4406 95.1882 21.4406H91.9977C91.6103 21.4406 91.3665 21.4938 91.2609 21.6002C91.1136 21.7491 91.038 22.149 91.038 22.7936C91.038 23.4381 91.097 23.87 91.217 23.9891C91.337 24.1083 91.6103 24.2019 92.0417 24.2593L96.1918 24.6847C97.0336 24.7592 97.6188 24.9549 97.9323 25.2698C98.2886 25.6484 98.4676 26.5965 98.4692 28.1139Z" fill="#F4F5F7"/>
<path d="M118.872 18.1756C119.131 18.8624 119.261 19.899 119.262 21.2854C119.263 22.6719 119.133 23.705 118.872 24.3847C118.652 25.01 118.282 25.5731 117.793 26.025C117.26 26.4914 116.269 26.7246 114.819 26.7246H110.109V31.6539H105.195V15.8271H114.823C116.272 15.8271 117.263 16.0611 117.797 16.5289C118.286 16.9833 118.654 17.5485 118.872 18.1756ZM110.113 23.139H112.536C113.267 23.139 113.694 23.0786 113.818 22.9577C114.061 22.7316 114.183 22.1664 114.183 21.262C114.183 20.3576 114.061 19.8073 113.818 19.611C113.674 19.4916 113.247 19.4319 112.536 19.4319H110.113V23.139Z" fill="#F4F5F7"/>
<path d="M124.626 31.654H119.875V18.8708H124.626V20.949C125.164 20.3477 125.76 19.7976 126.404 19.3059C126.806 19.0231 127.29 18.8723 127.786 18.8752H129.049V23.3049H127.503C126.518 23.294 125.542 23.4802 124.633 23.8519L124.626 31.654Z" fill="#F4F5F7"/>
<path d="M133.379 31.6506C132.865 31.6698 132.351 31.6082 131.856 31.4679C131.482 31.3351 131.143 31.1141 130.869 30.8229C130.397 30.2892 130.077 29.6354 129.941 28.931C129.754 28.1256 129.66 26.9022 129.66 25.2612C129.66 23.6201 129.754 22.3976 129.941 21.5935C130.076 20.889 130.396 20.235 130.869 19.7016C131.136 19.4068 131.472 19.185 131.845 19.0566C132.345 18.9181 132.862 18.8565 133.379 18.8739H138.173C138.687 18.8558 139.2 18.9175 139.696 19.0566C140.07 19.1905 140.407 19.4114 140.681 19.7016C141.154 20.2348 141.475 20.8888 141.611 21.5935C141.797 22.3976 141.89 23.6201 141.892 25.2612C141.893 26.9022 141.8 28.1291 141.611 28.9418C141.473 29.6427 141.152 30.2927 140.681 30.8229C140.407 31.114 140.07 31.335 139.696 31.4679C139.2 31.608 138.687 31.6697 138.173 31.6506H133.379ZM134.14 25.2698C134.14 26.9424 134.215 27.869 134.364 28.0496C134.468 28.1872 134.73 28.2645 135.148 28.2645H136.404C136.805 28.2645 137.067 28.1957 137.188 28.0496C137.336 27.869 137.41 26.9424 137.412 25.2698C137.413 23.5972 137.338 22.6706 137.188 22.49C137.067 22.3524 136.805 22.275 136.404 22.275H135.148C134.726 22.275 134.468 22.3417 134.364 22.49C134.213 22.6734 134.138 23.6001 134.138 25.2698H134.14Z" fill="#F4F5F7"/>
</g>
<defs>
<clipPath id="clip0_2733_59514">
<rect width="142" height="32" fill="white"/>
</clipPath>
</defs>
</svg>
