<svg width="619" height="619" viewBox="0 0 619 619" fill="none" xmlns="http://www.w3.org/2000/svg">
<path d="M103.146 51.6178C103.146 23.1597 80.0758 0.0898438 51.6178 0.0898438C23.1597 0.0898438 0.0898438 23.1597 0.0898438 51.6178C0.0898438 80.0758 23.1597 103.146 51.6178 103.146C80.0758 103.146 103.146 80.0758 103.146 51.6178Z" fill="#FF900E"/>
<path d="M0 51.6183C28.5075 23.1109 74.7271 23.1109 103.235 51.6183C74.7271 80.1257 28.5075 80.1257 0 51.6183Z" fill="#FFE9CF"/>
<path d="M73.0923 51.6179C73.0923 39.7604 63.4798 30.1479 51.6223 30.1479C39.7648 30.1479 30.1523 39.7604 30.1523 51.6179C30.1523 63.4754 39.7648 73.0879 51.6223 73.0879C63.4798 73.0879 73.0923 63.4754 73.0923 51.6179Z" fill="#FF900E"/>
<path d="M103.146 103.146H0.0898438V128.909H103.146V103.146Z" fill="#FFE9CF"/>
<path d="M103.146 141.791H0.0898438V167.554H103.146V141.791Z" fill="#FFE9CF"/>
<path d="M103.146 180.437H0.0898438V206.201H103.146V180.437Z" fill="#FFE9CF"/>
<path d="M0.0898438 206.201L0.0898438 309.257H34.4418L34.4418 206.201H0.0898438Z" fill="#FFE9CF"/>
<path d="M68.8008 206.201V309.257H103.153V206.201H68.8008Z" fill="#FFE9CF"/>
<path d="M103.152 103.146C103.152 46.2294 149.292 0.0898438 206.208 0.0898438V103.146H103.152Z" fill="#C10000"/>
<path d="M206.208 206.201C206.208 149.285 160.069 103.146 103.152 103.146V206.201H206.208Z" fill="#C10000"/>
<path d="M171.856 206.202C171.856 168.258 141.096 137.499 103.152 137.499V206.202H171.856Z" fill="#FF900E"/>
<path d="M137.504 206.201C137.504 187.229 122.124 171.849 103.152 171.849V206.201H137.504Z" fill="#FFE9CF"/>
<path fill-rule="evenodd" clip-rule="evenodd" d="M103.152 206.201C160.069 206.201 206.208 252.34 206.208 309.257C149.292 309.257 103.152 263.117 103.152 206.201Z" fill="#FFE9CF"/>
<path d="M309.356 51.6173L257.738 0L206.121 51.6173L257.738 103.235L309.356 51.6173Z" fill="#333333"/>
<path d="M309.259 103.146H206.203V137.497H309.259V103.146Z" fill="#FF900E"/>
<path d="M309.259 171.849H206.203V206.201H309.259V171.849Z" fill="#FF900E"/>
<path d="M309.259 206.201H206.203V309.257H309.259V206.201Z" fill="white"/>
<path d="M309.259 206.201H206.203V309.257H309.259V206.201Z" fill="#333333"/>
<path d="M257.734 257.728L309.262 309.256H257.734V257.728Z" fill="#FF900E"/>
<path d="M257.734 206.201L309.262 257.729H257.734V206.201Z" fill="#FF900E"/>
<path d="M206.203 257.728L257.731 309.256H206.203V257.728Z" fill="#FF900E"/>
<path d="M206.203 206.201L257.731 257.729H206.203V206.201Z" fill="#FF900E"/>
<path d="M412.399 51.6173L360.781 0L309.164 51.6173L360.781 103.235L412.399 51.6173Z" fill="#FFE9CF"/>
<path d="M309.258 137.497V103.146H343.61V137.497H309.258Z" fill="#FF900E"/>
<path d="M309.258 206.201V171.849H343.61V206.201H309.258Z" fill="#FF900E"/>
<path d="M377.965 137.497V103.146H412.317V137.497H377.965Z" fill="#FF900E"/>
<path d="M377.965 206.201V171.849H412.317V206.201H377.965Z" fill="#FF900E"/>
<path d="M326.434 189.025V120.321H395.137V189.025H326.434Z" fill="#FFE9CF"/>
<path d="M412.314 257.729C412.314 229.271 389.244 206.201 360.786 206.201C332.328 206.201 309.258 229.271 309.258 257.729C309.258 286.187 332.328 309.257 360.786 309.257C389.244 309.257 412.314 286.187 412.314 257.729Z" fill="#FF900E"/>
<path d="M386.555 257.729C386.555 243.5 375.02 231.965 360.791 231.965C346.562 231.965 335.027 243.5 335.027 257.729C335.027 271.958 346.562 283.493 360.791 283.493C375.02 283.493 386.555 271.958 386.555 257.729Z" fill="#FF900E"/>
<path fill-rule="evenodd" clip-rule="evenodd" d="M412.312 0.0898438H515.368C515.368 38.235 494.644 71.5398 463.84 89.3586C433.037 71.5398 412.312 38.235 412.312 0.0898438Z" fill="#C10000"/>
<path fill-rule="evenodd" clip-rule="evenodd" d="M463.84 0.0898438V89.3586C433.037 71.5398 412.312 38.235 412.312 0.0898438H463.84Z" fill="#FFE9CF"/>
<path fill-rule="evenodd" clip-rule="evenodd" d="M515.36 103.146C486.902 103.146 463.832 126.215 463.832 154.673C463.832 183.131 486.902 206.201 515.36 206.201V180.437C501.131 180.437 489.596 168.902 489.596 154.673C489.596 140.444 501.131 128.909 515.36 128.909V103.146Z" fill="#FF900E"/>
<path fill-rule="evenodd" clip-rule="evenodd" d="M412.312 103.146C440.771 103.146 463.84 126.215 463.84 154.673C463.84 183.131 440.771 206.201 412.312 206.201V180.437C426.542 180.437 438.076 168.902 438.076 154.673C438.076 140.444 426.542 128.909 412.312 128.909V103.146Z" fill="#FF900E"/>
<path d="M515.368 309.257C515.368 252.34 469.229 206.201 412.312 206.201V309.257H515.368Z" fill="#C10000"/>
<path d="M481.016 309.257C481.016 271.313 450.257 240.553 412.312 240.553V309.257H481.016Z" fill="#FF900E"/>
<path d="M446.664 309.258C446.664 290.286 431.285 274.906 412.312 274.906V309.258H446.664Z" fill="#FFE9CF"/>
<path d="M515.367 0.0898438C572.283 0.0898438 618.423 46.2294 618.423 103.146H515.367V0.0898438Z" fill="#FF900E"/>
<path d="M618.524 154.674L566.906 103.057L515.289 154.674L566.906 206.292L618.524 154.674Z" fill="#FF900E"/>
<path fill-rule="evenodd" clip-rule="evenodd" d="M515.383 154.584L566.821 103.146H566.911V206.201H566.821L515.383 154.763V154.584Z" fill="#FF900E"/>
<path d="M618.423 206.201H515.367V309.257H618.423V206.201Z" fill="white"/>
<path d="M618.423 206.201H515.367V309.257H618.423V206.201Z" fill="#333333"/>
<path d="M566.891 257.729L618.419 309.257H566.891V257.729Z" fill="#FF900E"/>
<path d="M566.891 206.201L618.419 257.729H566.891V206.201Z" fill="#FF900E"/>
<path d="M515.367 257.729L566.895 309.257H515.367V257.729Z" fill="#FF900E"/>
<path d="M515.367 206.201L566.895 257.729H515.367V206.201Z" fill="#FF900E"/>
<path d="M618.43 309.257V412.313H601.254V309.257H618.43Z" fill="#FFE9CF"/>
<path d="M584.074 309.257V412.313H566.898V309.257H584.074Z" fill="#FFE9CF"/>
<path d="M549.73 309.257V412.313H532.555V309.257H549.73Z" fill="#FFE9CF"/>
<path d="M618.43 515.368H566.902V566.896L618.43 515.368Z" fill="#FF900E"/>
<path d="M618.43 566.898H566.902V618.426L618.43 566.898Z" fill="#FF900E"/>
<path d="M566.891 515.368H515.363V566.896L566.891 515.368Z" fill="#FF900E"/>
<path d="M566.891 566.898H515.363V618.426L566.891 566.898Z" fill="#FF900E"/>
<path d="M515.367 343.609V309.257H481.015V343.609H515.367Z" fill="#FF900E"/>
<path d="M515.367 412.313V377.961H481.015V412.313H515.367Z" fill="#FF900E"/>
<path d="M446.664 343.609V309.257H412.312V343.609H446.664Z" fill="#FF900E"/>
<path d="M446.664 412.313V377.961H412.312V412.313H446.664Z" fill="#FF900E"/>
<path d="M498.195 395.138V326.434H429.491V395.138H498.195Z" fill="#FFE9CF"/>
<path d="M412.311 463.841C412.311 435.383 435.381 412.313 463.839 412.313C492.297 412.313 515.367 435.383 515.367 463.841C515.367 492.299 492.297 515.369 463.839 515.369C435.381 515.369 412.311 492.299 412.311 463.841Z" fill="#FFE9CF"/>
<path d="M463.846 412.224C435.339 440.732 435.339 486.951 463.846 515.459C492.353 486.951 492.353 440.732 463.846 412.224Z" fill="#C10000"/>
<path d="M412.311 515.368H515.367V532.544H412.311V515.368Z" fill="#FF900E"/>
<path d="M412.311 549.721H515.367V566.897H412.311V549.721Z" fill="#FF900E"/>
<path d="M412.311 584.072H515.367V601.248H412.311V584.072Z" fill="#FF900E"/>
<path d="M412.312 309.257H360.785C360.785 337.715 383.854 360.785 412.312 360.785V309.257Z" fill="#FF900E"/>
<path d="M309.257 309.257H360.785C360.785 337.715 337.715 360.785 309.257 360.785V309.257Z" fill="#FF900E"/>
<path d="M360.785 412.312C360.785 383.854 337.715 360.784 309.257 360.784V412.312H360.785Z" fill="#FF900E"/>
<path d="M360.785 412.312C360.785 383.854 383.854 360.784 412.312 360.784V412.312H360.785Z" fill="#FF900E"/>
<path fill-rule="evenodd" clip-rule="evenodd" d="M412.312 412.313C355.396 412.313 309.257 458.453 309.257 515.369C366.173 515.369 412.312 469.229 412.312 412.313Z" fill="#C10000"/>
<path d="M412.312 515.368C412.312 572.284 366.173 618.424 309.257 618.424V515.368H412.312Z" fill="#333333"/>
<path d="M377.957 515.368C377.957 553.312 347.197 584.072 309.253 584.072V515.368H377.957Z" fill="#FF900E"/>
<path d="M343.609 515.368C343.609 534.34 328.23 549.72 309.257 549.72V515.368H343.609Z" fill="#C10000"/>
<path d="M309.258 309.257V412.313H274.906V309.257H309.258Z" fill="#FF900E"/>
<path d="M240.555 309.257V412.313H206.203V309.257H240.555Z" fill="#FF900E"/>
<path d="M206.202 515.369C206.202 458.453 252.342 412.313 309.258 412.313V515.369H206.202Z" fill="#C10000"/>
<path d="M240.554 515.368C240.554 477.424 271.314 446.665 309.258 446.665V515.368H240.554Z" fill="#FF900E"/>
<path d="M274.906 515.369C274.906 496.397 290.286 481.017 309.258 481.017V515.369H274.906Z" fill="#FFE9CF"/>
<path fill-rule="evenodd" clip-rule="evenodd" d="M206.202 515.369C263.118 515.369 309.258 561.508 309.258 618.424C252.342 618.424 206.202 572.285 206.202 515.369Z" fill="#FF900E"/>
<path d="M206.203 309.257V412.313H189.027V309.257H206.203Z" fill="#FF900E"/>
<path d="M171.855 309.257V412.313H154.68V309.257H171.855Z" fill="#FF900E"/>
<path d="M137.504 309.257V412.313H120.328V309.257H137.504Z" fill="#FF900E"/>
<path d="M103.147 463.841C103.147 435.383 126.217 412.313 154.675 412.313C183.133 412.313 206.203 435.383 206.203 463.841C206.203 492.299 183.133 515.369 154.675 515.369C126.217 515.369 103.147 492.299 103.147 463.841Z" fill="#FF900E"/>
<path d="M206.289 463.842C177.782 435.335 131.562 435.335 103.055 463.842C131.562 492.349 177.782 492.349 206.289 463.842Z" fill="#FFE9CF"/>
<path d="M133.205 463.842C133.205 451.984 142.817 442.372 154.675 442.372C166.532 442.372 176.145 451.984 176.145 463.842C176.145 475.699 166.532 485.312 154.675 485.312C142.817 485.312 133.205 475.699 133.205 463.842Z" fill="#FF900E"/>
<path d="M103.147 515.369H206.203V541.133H103.147V515.369Z" fill="#FF900E"/>
<path d="M103.147 554.015H206.203V579.779H103.147V554.015Z" fill="#FF900E"/>
<path d="M103.152 309.257C46.2361 309.257 0.0965118 355.397 0.0965118 412.313H103.152V309.257Z" fill="#FF900E"/>
<path d="M0.0965118 412.313L103.152 515.369H0.0965118V412.313Z" fill="#C10000"/>
<path d="M103.152 515.369L0.0965118 412.313H103.152V515.369Z" fill="#FFE9CF"/>
<path d="M51.6244 541.132C51.6244 526.903 63.1593 515.368 77.3884 515.368C91.6174 515.368 103.152 526.903 103.152 541.132C103.152 555.361 91.6174 566.896 77.3884 566.896C63.1593 566.896 51.6244 555.361 51.6244 541.132Z" fill="#FFE9CF"/>
<path d="M51.6244 592.662C51.6244 578.433 63.1593 566.898 77.3884 566.898C91.6174 566.898 103.152 578.433 103.152 592.662C103.152 606.891 91.6174 618.426 77.3884 618.426C63.1593 618.426 51.6244 606.891 51.6244 592.662Z" fill="#FFE9CF"/>
<path d="M0.097084 541.132C0.097084 526.903 11.632 515.368 25.861 515.368C40.0901 515.368 51.625 526.903 51.625 541.132C51.625 555.361 40.0901 566.896 25.861 566.896C11.632 566.896 0.097084 555.361 0.097084 541.132Z" fill="#FFE9CF"/>
<path d="M0.097084 592.662C0.097084 578.433 11.632 566.898 25.861 566.898C40.0901 566.898 51.625 578.433 51.625 592.662C51.625 606.891 40.0901 618.426 25.861 618.426C11.632 618.426 0.097084 606.891 0.097084 592.662Z" fill="#FFE9CF"/>
<rect x="515.703" y="412.887" width="102.814" height="68.8404" fill="#C10000"/>
<rect x="515.703" y="481.727" width="67.9464" height="33.9732" fill="#C10000"/>
<rect y="179.516" width="102.814" height="68.8404" fill="#333333"/>
<rect y="248.356" width="67.9464" height="33.9732" fill="#333333"/>
<rect x="102.816" y="514.068" width="104.446" height="69.9331" fill="#FF900E"/>
<rect x="102.816" y="584" width="69.0249" height="34.5124" fill="#FF900E"/>
<rect x="442.266" y="337.816" width="44.063" height="29.3753" fill="#FF900E"/>
<rect x="442.266" y="367.192" width="29.3753" height="14.6877" fill="#FF900E"/>
<rect x="515.703" y="58.7515" width="44.063" height="29.3753" fill="#333333"/>
<rect x="515.703" y="88.1265" width="29.3753" height="14.6877" fill="#333333"/>
<rect x="65.2812" y="580.978" width="24.4794" height="16.3196" fill="#C10000"/>
<rect x="65.2812" y="597.297" width="16.3196" height="8.15981" fill="#C10000"/>
<rect x="14.6914" y="528.756" width="24.4794" height="16.3196" fill="#FF900E"/>
<rect x="14.6914" y="545.075" width="16.3196" height="8.15981" fill="#FF900E"/>
<rect x="337.816" y="135.453" width="44.063" height="29.3753" fill="#FF900E"/>
<rect x="337.816" y="164.829" width="29.3753" height="14.6877" fill="#FF900E"/>
</svg>
